<ttFont>
    <TTGlyph name=".notdef" xMin="105" yMin="275" xMax="303" yMax="333">
      <contour>
        <pt x="240" y="276" on="1"/>
        <pt x="225" y="276" on="0"/>
        <pt x="198" y="288" on="1"/>
        <pt x="166" y="302" on="0"/>
        <pt x="133" y="302" on="0"/>
        <pt x="121" y="280" on="1"/>
        <pt x="120" y="278" on="0"/>
        <pt x="105" y="278" on="0"/>
        <pt x="105" y="281" on="1"/>
        <pt x="133" y="331" on="0"/>
        <pt x="166" y="331" on="1"/>
        <pt x="179" y="331" on="0"/>
        <pt x="208" y="320" on="1"/>
        <pt x="241" y="307" on="0"/>
        <pt x="253" y="307" on="1"/>
        <pt x="276" y="307" on="0"/>
        <pt x="288" y="331" on="1"/>
        <pt x="288" y="333" on="0"/>
        <pt x="290" y="333" on="1"/>
        <pt x="302" y="333" on="0"/>
        <pt x="302" y="330" on="1"/>
        <pt x="302" y="276" on="0"/>
      </contour>
    </TTGlyph>
    <TTGlyph name="A" xMin="5" yMin="-58" xMax="821" yMax="567">
      <contour>
        <pt x="666" y="566" on="1"/>
        <pt x="703" y="566" on="0"/>
        <pt x="703" y="519" on="1"/>
        <pt x="703" y="494" on="0"/>
        <pt x="678" y="275" on="0"/>
        <pt x="675" y="212" on="1"/>
        <pt x="725" y="215" on="0"/>
        <pt x="749" y="231" on="0"/>
        <pt x="750" y="219" on="0"/>
        <pt x="715" y="198" on="0"/>
        <pt x="675" y="192" on="1"/>
        <pt x="675" y="174" on="0"/>
        <pt x="675" y="130" on="1"/>
        <pt x="675" y="33" on="0"/>
        <pt x="708" y="1" on="1"/>
        <pt x="720" y="-11" on="0"/>
        <pt x="737" y="-11" on="0"/>
        <pt x="760" y="-4" on="0"/>
        <pt x="796" y="35" on="0"/>
        <pt x="809" y="65" on="1"/>
        <pt x="813" y="74" on="0"/>
        <pt x="820" y="71" on="0"/>
        <pt x="820" y="65" on="0"/>
        <pt x="819" y="61" on="1"/>
        <pt x="806" y="24" on="0"/>
        <pt x="778" y="-1" on="1"/>
        <pt x="717" y="-57" on="0"/>
        <pt x="669" y="-14" on="1"/>
        <pt x="644" y="8" on="0"/>
        <pt x="631" y="92" on="0"/>
        <pt x="631" y="161" on="0"/>
        <pt x="632" y="187" on="1"/>
        <pt x="617" y="186" on="0"/>
        <pt x="507" y="186" on="1"/>
        <pt x="454" y="128" on="0"/>
        <pt x="393" y="77" on="1"/>
        <pt x="400" y="76" on="0"/>
        <pt x="408" y="76" on="1"/>
        <pt x="480" y="76" on="0"/>
        <pt x="536" y="150" on="1"/>
        <pt x="540" y="155" on="0"/>
        <pt x="542" y="149" on="1"/>
        <pt x="542" y="145" on="1"/>
        <pt x="482" y="66" on="0"/>
        <pt x="408" y="66" on="1"/>
        <pt x="395" y="66" on="0"/>
        <pt x="383" y="68" on="1"/>
        <pt x="227" y="-57" on="0"/>
        <pt x="117" y="-57" on="1"/>
        <pt x="58" y="-57" on="0"/>
        <pt x="26" y="-24" on="1"/>
        <pt x="6" y="-2" on="0"/>
        <pt x="6" y="30" on="1"/>
        <pt x="6" y="77" on="0"/>
        <pt x="73" y="143" on="0"/>
        <pt x="166" y="174" on="0"/>
        <pt x="241" y="186" on="1"/>
        <pt x="216" y="243" on="0"/>
        <pt x="216" y="299" on="1"/>
        <pt x="216" y="451" on="0"/>
        <pt x="302" y="522" on="1"/>
        <pt x="348" y="559" on="0"/>
        <pt x="396" y="559" on="1"/>
        <pt x="413" y="559" on="0"/>
        <pt x="431" y="554" on="1"/>
        <pt x="494" y="538" on="0"/>
        <pt x="514" y="472" on="1"/>
        <pt x="522" y="447" on="0"/>
        <pt x="522" y="418" on="1"/>
        <pt x="522" y="322" on="0"/>
        <pt x="442" y="203" on="1"/>
        <pt x="487" y="203" on="1"/>
        <pt x="507" y="223" on="0"/>
        <pt x="625" y="388" on="0"/>
        <pt x="655" y="426" on="1"/>
        <pt x="665" y="491" on="0"/>
        <pt x="665" y="510" on="1"/>
        <pt x="665" y="545" on="0"/>
        <pt x="647" y="545" on="1"/>
        <pt x="626" y="545" on="0"/>
        <pt x="591" y="504" on="1"/>
        <pt x="572" y="482" on="0"/>
        <pt x="564" y="464" on="0"/>
        <pt x="558" y="468" on="1"/>
        <pt x="552" y="476" on="0"/>
        <pt x="576" y="506" on="1"/>
        <pt x="626" y="566" on="0"/>
      </contour>
      <contour>
        <pt x="453" y="237" on="0"/>
        <pt x="470" y="272" on="1"/>
        <pt x="508" y="350" on="0"/>
        <pt x="508" y="454" on="0"/>
        <pt x="489" y="488" on="1"/>
        <pt x="457" y="546" on="0"/>
        <pt x="326" y="546" on="0"/>
        <pt x="231" y="414" on="0"/>
        <pt x="231" y="299" on="1"/>
        <pt x="231" y="239" on="0"/>
        <pt x="255" y="188" on="1"/>
        <pt x="346" y="201" on="0"/>
        <pt x="429" y="202" on="1"/>
      </contour>
      <contour>
        <pt x="19" y="42" on="1"/>
        <pt x="19" y="14" on="0"/>
        <pt x="47" y="-6" on="1"/>
        <pt x="82" y="-32" on="0"/>
        <pt x="140" y="-32" on="1"/>
        <pt x="245" y="-32" on="0"/>
        <pt x="361" y="73" on="1"/>
        <pt x="338" y="82" on="1"/>
        <pt x="235" y="-8" on="0"/>
        <pt x="138" y="-8" on="1"/>
        <pt x="109" y="-8" on="0"/>
        <pt x="81" y="0" on="1"/>
        <pt x="76" y="1" on="0"/>
        <pt x="80" y="9" on="0"/>
        <pt x="83" y="8" on="1"/>
        <pt x="200" y="-23" on="0"/>
        <pt x="328" y="88" on="1"/>
        <pt x="282" y="115" on="0"/>
        <pt x="253" y="165" on="1"/>
        <pt x="157" y="146" on="0"/>
        <pt x="109" y="131" on="1"/>
        <pt x="19" y="100" on="0"/>
      </contour>
      <contour>
        <pt x="525" y="208" on="1"/>
        <pt x="539" y="207" on="0"/>
        <pt x="590" y="207" on="0"/>
        <pt x="634" y="209" on="1"/>
        <pt x="637" y="287" on="0"/>
        <pt x="653" y="392" on="1"/>
        <pt x="628" y="348" on="0"/>
        <pt x="583" y="287" on="0"/>
        <pt x="536" y="222" on="0"/>
      </contour>
      <contour>
        <pt x="418" y="187" on="1"/>
        <pt x="344" y="180" on="0"/>
        <pt x="266" y="167" on="1"/>
        <pt x="296" y="118" on="0"/>
        <pt x="337" y="96" on="1"/>
        <pt x="380" y="135" on="0"/>
      </contour>
      <contour>
        <pt x="466" y="189" on="0"/>
        <pt x="444" y="189" on="0"/>
        <pt x="432" y="188" on="1"/>
        <pt x="393" y="131" on="0"/>
        <pt x="347" y="90" on="1"/>
        <pt x="360" y="85" on="0"/>
        <pt x="370" y="82" on="1"/>
        <pt x="391" y="102" on="0"/>
        <pt x="461" y="175" on="0"/>
        <pt x="475" y="188" on="1"/>
      </contour>
    </TTGlyph>
    <TTGlyph name="AE" xMin="-150" yMin="-116" xMax="1006" yMax="590">
      <contour>
        <pt x="842" y="266" on="1"/>
        <pt x="818" y="266" on="1"/>
        <pt x="743" y="266" on="0"/>
        <pt x="577" y="222" on="0"/>
        <pt x="489" y="138" on="0"/>
        <pt x="489" y="45" on="0"/>
        <pt x="579" y="-21" on="0"/>
        <pt x="659" y="-21" on="1"/>
        <pt x="687" y="-21" on="0"/>
        <pt x="712" y="-17" on="1"/>
        <pt x="804" y="-5" on="0"/>
        <pt x="948" y="83" on="0"/>
        <pt x="952" y="136" on="1"/>
        <pt x="954" y="145" on="0"/>
        <pt x="960" y="145" on="0"/>
        <pt x="960" y="135" on="1"/>
        <pt x="957" y="71" on="0"/>
        <pt x="880" y="24" on="1"/>
        <pt x="777" y="-40" on="0"/>
        <pt x="641" y="-40" on="1"/>
        <pt x="565" y="-40" on="0"/>
        <pt x="513" y="-12" on="1"/>
        <pt x="446" y="24" on="0"/>
        <pt x="446" y="87" on="1"/>
        <pt x="446" y="136" on="0"/>
        <pt x="491" y="182" on="1"/>
        <pt x="491" y="186" on="1"/>
        <pt x="416" y="184" on="0"/>
        <pt x="325" y="179" on="1"/>
        <pt x="235" y="94" on="1"/>
        <pt x="274" y="62" on="0"/>
        <pt x="380" y="62" on="0"/>
        <pt x="401" y="83" on="1"/>
        <pt x="403" y="86" on="0"/>
        <pt x="409" y="80" on="0"/>
        <pt x="406" y="77" on="1"/>
        <pt x="381" y="54" on="0"/>
        <pt x="337" y="54" on="1"/>
        <pt x="271" y="54" on="0"/>
        <pt x="228" y="88" on="1"/>
        <pt x="192" y="55" on="1"/>
        <pt x="114" y="-17" on="0"/>
        <pt x="60" y="-49" on="1"/>
        <pt x="91" y="-65" on="0"/>
        <pt x="143" y="-69" on="0"/>
        <pt x="143" y="-72" on="1"/>
        <pt x="143" y="-78" on="0"/>
        <pt x="131" y="-76" on="1"/>
        <pt x="85" y="-72" on="0"/>
        <pt x="49" y="-55" on="1"/>
        <pt x="-53" y="-115" on="0"/>
        <pt x="-116" y="-115" on="1"/>
        <pt x="-119" y="-115" on="0"/>
        <pt x="-122" y="-115" on="1"/>
        <pt x="-150" y="-115" on="0"/>
        <pt x="-150" y="-97" on="1"/>
        <pt x="-150" y="-90" on="0"/>
        <pt x="-144" y="-79" on="1"/>
        <pt x="-141" y="-69" on="0"/>
        <pt x="-133" y="-66" on="1"/>
        <pt x="-139" y="-80" on="0"/>
        <pt x="-139" y="-89" on="1"/>
        <pt x="-139" y="-104" on="0"/>
        <pt x="-117" y="-104" on="1"/>
        <pt x="-115" y="-104" on="0"/>
        <pt x="-113" y="-104" on="1"/>
        <pt x="-52" y="-104" on="0"/>
        <pt x="37" y="-49" on="1"/>
        <pt x="-16" y="-25" on="0"/>
        <pt x="-16" y="20" on="1"/>
        <pt x="-16" y="49" on="0"/>
        <pt x="10" y="83" on="1"/>
        <pt x="59" y="143" on="0"/>
        <pt x="149" y="168" on="1"/>
        <pt x="172" y="174" on="1"/>
        <pt x="159" y="213" on="0"/>
        <pt x="159" y="332" on="0"/>
        <pt x="180" y="389" on="1"/>
        <pt x="216" y="485" on="0"/>
        <pt x="271" y="533" on="1"/>
        <pt x="318" y="577" on="0"/>
        <pt x="370" y="577" on="1"/>
        <pt x="406" y="577" on="0"/>
        <pt x="453" y="530" on="0"/>
        <pt x="453" y="448" on="0"/>
        <pt x="432" y="403" on="1"/>
        <pt x="402" y="338" on="0"/>
        <pt x="279" y="199" on="1"/>
        <pt x="270" y="189" on="1"/>
        <pt x="282" y="190" on="0"/>
        <pt x="313" y="194" on="1"/>
        <pt x="385" y="264" on="0"/>
        <pt x="466" y="365" on="1"/>
        <pt x="578" y="505" on="0"/>
        <pt x="578" y="555" on="1"/>
        <pt x="578" y="579" on="0"/>
        <pt x="552" y="581" on="1"/>
        <pt x="546" y="581" on="0"/>
        <pt x="546" y="584" on="1"/>
        <pt x="546" y="590" on="0"/>
        <pt x="557" y="590" on="1"/>
        <pt x="607" y="588" on="0"/>
        <pt x="607" y="548" on="1"/>
        <pt x="607" y="523" on="0"/>
        <pt x="585" y="479" on="1"/>
        <pt x="589" y="473" on="0"/>
        <pt x="586" y="465" on="1"/>
        <pt x="564" y="377" on="0"/>
        <pt x="530" y="214" on="1"/>
        <pt x="576" y="245" on="0"/>
        <pt x="645" y="268" on="1"/>
        <pt x="740" y="288" on="1"/>
        <pt x="689" y="288" on="0"/>
        <pt x="650" y="312" on="1"/>
        <pt x="612" y="338" on="0"/>
        <pt x="615" y="372" on="1"/>
        <pt x="621" y="418" on="0"/>
        <pt x="724" y="491" on="0"/>
        <pt x="848" y="525" on="0"/>
        <pt x="946" y="525" on="0"/>
        <pt x="1006" y="485" on="0"/>
        <pt x="1006" y="436" on="0"/>
        <pt x="972" y="401" on="0"/>
        <pt x="943" y="397" on="1"/>
        <pt x="931" y="397" on="0"/>
        <pt x="931" y="401" on="1"/>
        <pt x="931" y="408" on="0"/>
        <pt x="955" y="405" on="0"/>
        <pt x="975" y="433" on="0"/>
        <pt x="975" y="474" on="0"/>
        <pt x="936" y="509" on="0"/>
        <pt x="849" y="509" on="0"/>
        <pt x="736" y="474" on="0"/>
        <pt x="660" y="406" on="0"/>
        <pt x="657" y="368" on="1"/>
        <pt x="652" y="330" on="0"/>
        <pt x="717" y="308" on="1"/>
        <pt x="764" y="292" on="0"/>
        <pt x="821" y="292" on="1"/>
        <pt x="831" y="292" on="0"/>
        <pt x="840" y="292" on="1"/>
        <pt x="862" y="293" on="0"/>
        <pt x="862" y="266" on="0"/>
      </contour>
      <contour>
        <pt x="196" y="387" on="1"/>
        <pt x="174" y="328" on="0"/>
        <pt x="174" y="215" on="0"/>
        <pt x="185" y="176" on="1"/>
        <pt x="221" y="183" on="0"/>
        <pt x="258" y="187" on="1"/>
        <pt x="366" y="295" on="0"/>
        <pt x="418" y="406" on="1"/>
        <pt x="440" y="451" on="0"/>
        <pt x="440" y="527" on="0"/>
        <pt x="402" y="570" on="0"/>
        <pt x="371" y="570" on="1"/>
        <pt x="325" y="570" on="0"/>
        <pt x="281" y="527" on="1"/>
        <pt x="230" y="480" on="0"/>
      </contour>
      <contour>
        <pt x="16" y="10" on="1"/>
        <pt x="16" y="-19" on="0"/>
        <pt x="48" y="-43" on="1"/>
        <pt x="96" y="-12" on="0"/>
        <pt x="171" y="57" on="1"/>
        <pt x="216" y="99" on="1"/>
        <pt x="208" y="107" on="0"/>
        <pt x="202" y="116" on="1"/>
        <pt x="131" y="46" on="0"/>
        <pt x="98" y="46" on="1"/>
        <pt x="95" y="46" on="0"/>
        <pt x="95" y="49" on="1"/>
        <pt x="94" y="52" on="0"/>
        <pt x="96" y="53" on="1"/>
        <pt x="150" y="91" on="0"/>
        <pt x="194" y="128" on="1"/>
        <pt x="187" y="138" on="0"/>
        <pt x="183" y="148" on="1"/>
        <pt x="153" y="138" on="0"/>
        <pt x="127" y="125" on="1"/>
        <pt x="16" y="70" on="0"/>
      </contour>
      <contour>
        <pt x="566" y="445" on="1"/>
        <pt x="521" y="374" on="0"/>
        <pt x="434" y="281" on="0"/>
        <pt x="345" y="197" on="1"/>
        <pt x="366" y="199" on="0"/>
        <pt x="471" y="201" on="0"/>
        <pt x="495" y="203" on="1"/>
        <pt x="508" y="259" on="0"/>
        <pt x="531" y="329" on="1"/>
        <pt x="545" y="377" on="0"/>
      </contour>
      <contour>
        <pt x="294" y="175" on="1"/>
        <pt x="250" y="166" on="1"/>
        <pt x="209" y="123" on="1"/>
        <pt x="210" y="123" on="1"/>
        <pt x="218" y="111" on="0"/>
        <pt x="223" y="106" on="1"/>
      </contour>
      <contour>
        <pt x="194" y="151" on="1"/>
        <pt x="202" y="135" on="1"/>
        <pt x="232" y="162" on="1"/>
        <pt x="197" y="152" on="0"/>
      </contour>
    </TTGlyph>
    <TTGlyph name="Aacute" xMin="5" yMin="-58" xMax="821" yMax="678">
      <contour>
        <pt x="666" y="566" on="1"/>
        <pt x="703" y="566" on="0"/>
        <pt x="703" y="519" on="1"/>
        <pt x="703" y="494" on="0"/>
        <pt x="678" y="275" on="0"/>
        <pt x="675" y="212" on="1"/>
        <pt x="725" y="215" on="0"/>
        <pt x="749" y="231" on="0"/>
        <pt x="750" y="219" on="0"/>
        <pt x="715" y="198" on="0"/>
        <pt x="675" y="192" on="1"/>
        <pt x="675" y="174" on="0"/>
        <pt x="675" y="130" on="1"/>
        <pt x="675" y="33" on="0"/>
        <pt x="708" y="1" on="1"/>
        <pt x="720" y="-11" on="0"/>
        <pt x="737" y="-11" on="0"/>
        <pt x="760" y="-4" on="0"/>
        <pt x="796" y="35" on="0"/>
        <pt x="809" y="65" on="1"/>
        <pt x="813" y="74" on="0"/>
        <pt x="820" y="71" on="0"/>
        <pt x="820" y="65" on="0"/>
        <pt x="819" y="61" on="1"/>
        <pt x="806" y="24" on="0"/>
        <pt x="778" y="-1" on="1"/>
        <pt x="717" y="-57" on="0"/>
        <pt x="669" y="-14" on="1"/>
        <pt x="644" y="8" on="0"/>
        <pt x="631" y="92" on="0"/>
        <pt x="631" y="161" on="0"/>
        <pt x="632" y="187" on="1"/>
        <pt x="617" y="186" on="0"/>
        <pt x="507" y="186" on="1"/>
        <pt x="454" y="128" on="0"/>
        <pt x="393" y="77" on="1"/>
        <pt x="400" y="76" on="0"/>
        <pt x="408" y="76" on="1"/>
        <pt x="480" y="76" on="0"/>
        <pt x="536" y="150" on="1"/>
        <pt x="540" y="155" on="0"/>
        <pt x="542" y="149" on="1"/>
        <pt x="542" y="145" on="1"/>
        <pt x="482" y="66" on="0"/>
        <pt x="408" y="66" on="1"/>
        <pt x="395" y="66" on="0"/>
        <pt x="383" y="68" on="1"/>
        <pt x="227" y="-57" on="0"/>
        <pt x="117" y="-57" on="1"/>
        <pt x="58" y="-57" on="0"/>
        <pt x="26" y="-24" on="1"/>
        <pt x="6" y="-2" on="0"/>
        <pt x="6" y="30" on="1"/>
        <pt x="6" y="77" on="0"/>
        <pt x="73" y="143" on="0"/>
        <pt x="166" y="174" on="0"/>
        <pt x="241" y="186" on="1"/>
        <pt x="216" y="243" on="0"/>
        <pt x="216" y="299" on="1"/>
        <pt x="216" y="451" on="0"/>
        <pt x="302" y="522" on="1"/>
        <pt x="348" y="559" on="0"/>
        <pt x="396" y="559" on="1"/>
        <pt x="413" y="559" on="0"/>
        <pt x="431" y="554" on="1"/>
        <pt x="494" y="538" on="0"/>
        <pt x="514" y="472" on="1"/>
        <pt x="522" y="447" on="0"/>
        <pt x="522" y="418" on="1"/>
        <pt x="522" y="322" on="0"/>
        <pt x="442" y="203" on="1"/>
        <pt x="487" y="203" on="1"/>
        <pt x="507" y="223" on="0"/>
        <pt x="625" y="388" on="0"/>
        <pt x="655" y="426" on="1"/>
        <pt x="665" y="491" on="0"/>
        <pt x="665" y="510" on="1"/>
        <pt x="665" y="545" on="0"/>
        <pt x="647" y="545" on="1"/>
        <pt x="626" y="545" on="0"/>
        <pt x="591" y="504" on="1"/>
        <pt x="572" y="482" on="0"/>
        <pt x="564" y="464" on="0"/>
        <pt x="558" y="468" on="1"/>
        <pt x="552" y="476" on="0"/>
        <pt x="576" y="506" on="1"/>
        <pt x="626" y="566" on="0"/>
      </contour>
      <contour>
        <pt x="453" y="237" on="0"/>
        <pt x="470" y="272" on="1"/>
        <pt x="508" y="350" on="0"/>
        <pt x="508" y="454" on="0"/>
        <pt x="489" y="488" on="1"/>
        <pt x="457" y="546" on="0"/>
        <pt x="326" y="546" on="0"/>
        <pt x="231" y="414" on="0"/>
        <pt x="231" y="299" on="1"/>
        <pt x="231" y="239" on="0"/>
        <pt x="255" y="188" on="1"/>
        <pt x="346" y="201" on="0"/>
        <pt x="429" y="202" on="1"/>
      </contour>
      <contour>
        <pt x="19" y="42" on="1"/>
        <pt x="19" y="14" on="0"/>
        <pt x="47" y="-6" on="1"/>
        <pt x="82" y="-32" on="0"/>
        <pt x="140" y="-32" on="1"/>
        <pt x="245" y="-32" on="0"/>
        <pt x="361" y="73" on="1"/>
        <pt x="338" y="82" on="1"/>
        <pt x="235" y="-8" on="0"/>
        <pt x="138" y="-8" on="1"/>
        <pt x="109" y="-8" on="0"/>
        <pt x="81" y="0" on="1"/>
        <pt x="76" y="1" on="0"/>
        <pt x="80" y="9" on="0"/>
        <pt x="83" y="8" on="1"/>
        <pt x="200" y="-23" on="0"/>
        <pt x="328" y="88" on="1"/>
        <pt x="282" y="115" on="0"/>
        <pt x="253" y="165" on="1"/>
        <pt x="157" y="146" on="0"/>
        <pt x="109" y="131" on="1"/>
        <pt x="19" y="100" on="0"/>
      </contour>
      <contour>
        <pt x="525" y="208" on="1"/>
        <pt x="539" y="207" on="0"/>
        <pt x="590" y="207" on="0"/>
        <pt x="634" y="209" on="1"/>
        <pt x="637" y="287" on="0"/>
        <pt x="653" y="392" on="1"/>
        <pt x="628" y="348" on="0"/>
        <pt x="583" y="287" on="0"/>
        <pt x="536" y="222" on="0"/>
      </contour>
      <contour>
        <pt x="418" y="187" on="1"/>
        <pt x="344" y="180" on="0"/>
        <pt x="266" y="167" on="1"/>
        <pt x="296" y="118" on="0"/>
        <pt x="337" y="96" on="1"/>
        <pt x="380" y="135" on="0"/>
      </contour>
      <contour>
        <pt x="466" y="189" on="0"/>
        <pt x="444" y="189" on="0"/>
        <pt x="432" y="188" on="1"/>
        <pt x="393" y="131" on="0"/>
        <pt x="347" y="90" on="1"/>
        <pt x="360" y="85" on="0"/>
        <pt x="370" y="82" on="1"/>
        <pt x="391" y="102" on="0"/>
        <pt x="461" y="175" on="0"/>
        <pt x="475" y="188" on="1"/>
      </contour>
      <contour>
        <pt x="644" y="617" on="0"/>
        <pt x="705" y="663" on="0"/>
        <pt x="726" y="678" on="0"/>
        <pt x="759" y="678" on="0"/>
        <pt x="759" y="665" on="1"/>
        <pt x="759" y="662" on="0"/>
        <pt x="752" y="650" on="0"/>
        <pt x="641" y="598" on="0"/>
        <pt x="629" y="598" on="0"/>
        <pt x="629" y="605" on="0"/>
        <pt x="630" y="607" on="1"/>
      </contour>
    </TTGlyph>
    <TTGlyph name="Acircumflex" xMin="5" yMin="-58" xMax="821" yMax="690">
      <contour>
        <pt x="666" y="566" on="1"/>
        <pt x="703" y="566" on="0"/>
        <pt x="703" y="519" on="1"/>
        <pt x="703" y="494" on="0"/>
        <pt x="678" y="275" on="0"/>
        <pt x="675" y="212" on="1"/>
        <pt x="725" y="215" on="0"/>
        <pt x="749" y="231" on="0"/>
        <pt x="750" y="219" on="0"/>
        <pt x="715" y="198" on="0"/>
        <pt x="675" y="192" on="1"/>
        <pt x="675" y="174" on="0"/>
        <pt x="675" y="130" on="1"/>
        <pt x="675" y="33" on="0"/>
        <pt x="708" y="1" on="1"/>
        <pt x="720" y="-11" on="0"/>
        <pt x="737" y="-11" on="0"/>
        <pt x="760" y="-4" on="0"/>
        <pt x="796" y="35" on="0"/>
        <pt x="809" y="65" on="1"/>
        <pt x="813" y="74" on="0"/>
        <pt x="820" y="71" on="0"/>
        <pt x="820" y="65" on="0"/>
        <pt x="819" y="61" on="1"/>
        <pt x="806" y="24" on="0"/>
        <pt x="778" y="-1" on="1"/>
        <pt x="717" y="-57" on="0"/>
        <pt x="669" y="-14" on="1"/>
        <pt x="644" y="8" on="0"/>
        <pt x="631" y="92" on="0"/>
        <pt x="631" y="161" on="0"/>
        <pt x="632" y="187" on="1"/>
        <pt x="617" y="186" on="0"/>
        <pt x="507" y="186" on="1"/>
        <pt x="454" y="128" on="0"/>
        <pt x="393" y="77" on="1"/>
        <pt x="400" y="76" on="0"/>
        <pt x="408" y="76" on="1"/>
        <pt x="480" y="76" on="0"/>
        <pt x="536" y="150" on="1"/>
        <pt x="540" y="155" on="0"/>
        <pt x="542" y="149" on="1"/>
        <pt x="542" y="145" on="1"/>
        <pt x="482" y="66" on="0"/>
        <pt x="408" y="66" on="1"/>
        <pt x="395" y="66" on="0"/>
        <pt x="383" y="68" on="1"/>
        <pt x="227" y="-57" on="0"/>
        <pt x="117" y="-57" on="1"/>
        <pt x="58" y="-57" on="0"/>
        <pt x="26" y="-24" on="1"/>
        <pt x="6" y="-2" on="0"/>
        <pt x="6" y="30" on="1"/>
        <pt x="6" y="77" on="0"/>
        <pt x="73" y="143" on="0"/>
        <pt x="166" y="174" on="0"/>
        <pt x="241" y="186" on="1"/>
        <pt x="216" y="243" on="0"/>
        <pt x="216" y="299" on="1"/>
        <pt x="216" y="451" on="0"/>
        <pt x="302" y="522" on="1"/>
        <pt x="348" y="559" on="0"/>
        <pt x="396" y="559" on="1"/>
        <pt x="413" y="559" on="0"/>
        <pt x="431" y="554" on="1"/>
        <pt x="494" y="538" on="0"/>
        <pt x="514" y="472" on="1"/>
        <pt x="522" y="447" on="0"/>
        <pt x="522" y="418" on="1"/>
        <pt x="522" y="322" on="0"/>
        <pt x="442" y="203" on="1"/>
        <pt x="487" y="203" on="1"/>
        <pt x="507" y="223" on="0"/>
        <pt x="625" y="388" on="0"/>
        <pt x="655" y="426" on="1"/>
        <pt x="665" y="491" on="0"/>
        <pt x="665" y="510" on="1"/>
        <pt x="665" y="545" on="0"/>
        <pt x="647" y="545" on="1"/>
        <pt x="626" y="545" on="0"/>
        <pt x="591" y="504" on="1"/>
        <pt x="572" y="482" on="0"/>
        <pt x="564" y="464" on="0"/>
        <pt x="558" y="468" on="1"/>
        <pt x="552" y="476" on="0"/>
        <pt x="576" y="506" on="1"/>
        <pt x="626" y="566" on="0"/>
      </contour>
      <contour>
        <pt x="453" y="237" on="0"/>
        <pt x="470" y="272" on="1"/>
        <pt x="508" y="350" on="0"/>
        <pt x="508" y="454" on="0"/>
        <pt x="489" y="488" on="1"/>
        <pt x="457" y="546" on="0"/>
        <pt x="326" y="546" on="0"/>
        <pt x="231" y="414" on="0"/>
        <pt x="231" y="299" on="1"/>
        <pt x="231" y="239" on="0"/>
        <pt x="255" y="188" on="1"/>
        <pt x="346" y="201" on="0"/>
        <pt x="429" y="202" on="1"/>
      </contour>
      <contour>
        <pt x="19" y="42" on="1"/>
        <pt x="19" y="14" on="0"/>
        <pt x="47" y="-6" on="1"/>
        <pt x="82" y="-32" on="0"/>
        <pt x="140" y="-32" on="1"/>
        <pt x="245" y="-32" on="0"/>
        <pt x="361" y="73" on="1"/>
        <pt x="338" y="82" on="1"/>
        <pt x="235" y="-8" on="0"/>
        <pt x="138" y="-8" on="1"/>
        <pt x="109" y="-8" on="0"/>
        <pt x="81" y="0" on="1"/>
        <pt x="76" y="1" on="0"/>
        <pt x="80" y="9" on="0"/>
        <pt x="83" y="8" on="1"/>
        <pt x="200" y="-23" on="0"/>
        <pt x="328" y="88" on="1"/>
        <pt x="282" y="115" on="0"/>
        <pt x="253" y="165" on="1"/>
        <pt x="157" y="146" on="0"/>
        <pt x="109" y="131" on="1"/>
        <pt x="19" y="100" on="0"/>
      </contour>
      <contour>
        <pt x="525" y="208" on="1"/>
        <pt x="539" y="207" on="0"/>
        <pt x="590" y="207" on="0"/>
        <pt x="634" y="209" on="1"/>
        <pt x="637" y="287" on="0"/>
        <pt x="653" y="392" on="1"/>
        <pt x="628" y="348" on="0"/>
        <pt x="583" y="287" on="0"/>
        <pt x="536" y="222" on="0"/>
      </contour>
      <contour>
        <pt x="418" y="187" on="1"/>
        <pt x="344" y="180" on="0"/>
        <pt x="266" y="167" on="1"/>
        <pt x="296" y="118" on="0"/>
        <pt x="337" y="96" on="1"/>
        <pt x="380" y="135" on="0"/>
      </contour>
      <contour>
        <pt x="701" y="690" on="0"/>
        <pt x="716" y="690" on="0"/>
        <pt x="717" y="688" on="1"/>
        <pt x="747" y="602" on="1"/>
        <pt x="747" y="598" on="0"/>
        <pt x="745" y="597" on="1"/>
        <pt x="732" y="597" on="0"/>
        <pt x="730" y="602" on="1"/>
        <pt x="693" y="660" on="1"/>
        <pt x="585" y="602" on="1"/>
        <pt x="581" y="598" on="0"/>
        <pt x="571" y="598" on="1"/>
        <pt x="563" y="596" on="0"/>
        <pt x="563" y="600" on="1"/>
        <pt x="564" y="602" on="1"/>
        <pt x="686" y="688" on="1"/>
      </contour>
      <contour>
        <pt x="466" y="189" on="0"/>
        <pt x="444" y="189" on="0"/>
        <pt x="432" y="188" on="1"/>
        <pt x="393" y="131" on="0"/>
        <pt x="347" y="90" on="1"/>
        <pt x="360" y="85" on="0"/>
        <pt x="370" y="82" on="1"/>
        <pt x="391" y="102" on="0"/>
        <pt x="461" y="175" on="0"/>
        <pt x="475" y="188" on="1"/>
      </contour>
    </TTGlyph>
    <TTGlyph name="Adieresis" xMin="5" yMin="-58" xMax="821" yMax="641">
      <contour>
        <pt x="666" y="566" on="1"/>
        <pt x="703" y="566" on="0"/>
        <pt x="703" y="519" on="1"/>
        <pt x="703" y="494" on="0"/>
        <pt x="678" y="275" on="0"/>
        <pt x="675" y="212" on="1"/>
        <pt x="725" y="215" on="0"/>
        <pt x="749" y="231" on="0"/>
        <pt x="750" y="219" on="0"/>
        <pt x="715" y="198" on="0"/>
        <pt x="675" y="192" on="1"/>
        <pt x="675" y="174" on="0"/>
        <pt x="675" y="130" on="1"/>
        <pt x="675" y="33" on="0"/>
        <pt x="708" y="1" on="1"/>
        <pt x="720" y="-11" on="0"/>
        <pt x="737" y="-11" on="0"/>
        <pt x="760" y="-4" on="0"/>
        <pt x="796" y="35" on="0"/>
        <pt x="809" y="65" on="1"/>
        <pt x="813" y="74" on="0"/>
        <pt x="820" y="71" on="0"/>
        <pt x="820" y="65" on="0"/>
        <pt x="819" y="61" on="1"/>
        <pt x="806" y="24" on="0"/>
        <pt x="778" y="-1" on="1"/>
        <pt x="717" y="-57" on="0"/>
        <pt x="669" y="-14" on="1"/>
        <pt x="644" y="8" on="0"/>
        <pt x="631" y="92" on="0"/>
        <pt x="631" y="161" on="0"/>
        <pt x="632" y="187" on="1"/>
        <pt x="617" y="186" on="0"/>
        <pt x="507" y="186" on="1"/>
        <pt x="454" y="128" on="0"/>
        <pt x="393" y="77" on="1"/>
        <pt x="400" y="76" on="0"/>
        <pt x="408" y="76" on="1"/>
        <pt x="480" y="76" on="0"/>
        <pt x="536" y="150" on="1"/>
        <pt x="540" y="155" on="0"/>
        <pt x="542" y="149" on="1"/>
        <pt x="542" y="145" on="1"/>
        <pt x="482" y="66" on="0"/>
        <pt x="408" y="66" on="1"/>
        <pt x="395" y="66" on="0"/>
        <pt x="383" y="68" on="1"/>
        <pt x="227" y="-57" on="0"/>
        <pt x="117" y="-57" on="1"/>
        <pt x="58" y="-57" on="0"/>
        <pt x="26" y="-24" on="1"/>
        <pt x="6" y="-2" on="0"/>
        <pt x="6" y="30" on="1"/>
        <pt x="6" y="77" on="0"/>
        <pt x="73" y="143" on="0"/>
        <pt x="166" y="174" on="0"/>
        <pt x="241" y="186" on="1"/>
        <pt x="216" y="243" on="0"/>
        <pt x="216" y="299" on="1"/>
        <pt x="216" y="451" on="0"/>
        <pt x="302" y="522" on="1"/>
        <pt x="348" y="559" on="0"/>
        <pt x="396" y="559" on="1"/>
        <pt x="413" y="559" on="0"/>
        <pt x="431" y="554" on="1"/>
        <pt x="494" y="538" on="0"/>
        <pt x="514" y="472" on="1"/>
        <pt x="522" y="447" on="0"/>
        <pt x="522" y="418" on="1"/>
        <pt x="522" y="322" on="0"/>
        <pt x="442" y="203" on="1"/>
        <pt x="487" y="203" on="1"/>
        <pt x="507" y="223" on="0"/>
        <pt x="625" y="388" on="0"/>
        <pt x="655" y="426" on="1"/>
        <pt x="665" y="491" on="0"/>
        <pt x="665" y="510" on="1"/>
        <pt x="665" y="545" on="0"/>
        <pt x="647" y="545" on="1"/>
        <pt x="626" y="545" on="0"/>
        <pt x="591" y="504" on="1"/>
        <pt x="572" y="482" on="0"/>
        <pt x="564" y="464" on="0"/>
        <pt x="558" y="468" on="1"/>
        <pt x="552" y="476" on="0"/>
        <pt x="576" y="506" on="1"/>
        <pt x="626" y="566" on="0"/>
      </contour>
      <contour>
        <pt x="453" y="237" on="0"/>
        <pt x="470" y="272" on="1"/>
        <pt x="508" y="350" on="0"/>
        <pt x="508" y="454" on="0"/>
        <pt x="489" y="488" on="1"/>
        <pt x="457" y="546" on="0"/>
        <pt x="326" y="546" on="0"/>
        <pt x="231" y="414" on="0"/>
        <pt x="231" y="299" on="1"/>
        <pt x="231" y="239" on="0"/>
        <pt x="255" y="188" on="1"/>
        <pt x="346" y="201" on="0"/>
        <pt x="429" y="202" on="1"/>
      </contour>
      <contour>
        <pt x="19" y="42" on="1"/>
        <pt x="19" y="14" on="0"/>
        <pt x="47" y="-6" on="1"/>
        <pt x="82" y="-32" on="0"/>
        <pt x="140" y="-32" on="1"/>
        <pt x="245" y="-32" on="0"/>
        <pt x="361" y="73" on="1"/>
        <pt x="338" y="82" on="1"/>
        <pt x="235" y="-8" on="0"/>
        <pt x="138" y="-8" on="1"/>
        <pt x="109" y="-8" on="0"/>
        <pt x="81" y="0" on="1"/>
        <pt x="76" y="1" on="0"/>
        <pt x="80" y="9" on="0"/>
        <pt x="83" y="8" on="1"/>
        <pt x="200" y="-23" on="0"/>
        <pt x="328" y="88" on="1"/>
        <pt x="282" y="115" on="0"/>
        <pt x="253" y="165" on="1"/>
        <pt x="157" y="146" on="0"/>
        <pt x="109" y="131" on="1"/>
        <pt x="19" y="100" on="0"/>
      </contour>
      <contour>
        <pt x="525" y="208" on="1"/>
        <pt x="539" y="207" on="0"/>
        <pt x="590" y="207" on="0"/>
        <pt x="634" y="209" on="1"/>
        <pt x="637" y="287" on="0"/>
        <pt x="653" y="392" on="1"/>
        <pt x="628" y="348" on="0"/>
        <pt x="583" y="287" on="0"/>
        <pt x="536" y="222" on="0"/>
      </contour>
      <contour>
        <pt x="418" y="187" on="1"/>
        <pt x="344" y="180" on="0"/>
        <pt x="266" y="167" on="1"/>
        <pt x="296" y="118" on="0"/>
        <pt x="337" y="96" on="1"/>
        <pt x="380" y="135" on="0"/>
      </contour>
      <contour>
        <pt x="466" y="189" on="0"/>
        <pt x="444" y="189" on="0"/>
        <pt x="432" y="188" on="1"/>
        <pt x="393" y="131" on="0"/>
        <pt x="347" y="90" on="1"/>
        <pt x="360" y="85" on="0"/>
        <pt x="370" y="82" on="1"/>
        <pt x="391" y="102" on="0"/>
        <pt x="461" y="175" on="0"/>
        <pt x="475" y="188" on="1"/>
      </contour>
      <contour>
        <pt x="651" y="641" on="0"/>
        <pt x="651" y="597" on="0"/>
        <pt x="630" y="597" on="1"/>
        <pt x="607" y="597" on="0"/>
        <pt x="607" y="641" on="0"/>
      </contour>
      <contour>
        <pt x="737" y="641" on="0"/>
        <pt x="737" y="597" on="0"/>
        <pt x="716" y="597" on="1"/>
        <pt x="693" y="597" on="0"/>
        <pt x="693" y="641" on="0"/>
      </contour>
    </TTGlyph>
    <TTGlyph name="Agrave" xMin="5" yMin="-58" xMax="821" yMax="678">
      <contour>
        <pt x="666" y="566" on="1"/>
        <pt x="703" y="566" on="0"/>
        <pt x="703" y="519" on="1"/>
        <pt x="703" y="494" on="0"/>
        <pt x="678" y="275" on="0"/>
        <pt x="675" y="212" on="1"/>
        <pt x="725" y="215" on="0"/>
        <pt x="749" y="231" on="0"/>
        <pt x="750" y="219" on="0"/>
        <pt x="715" y="198" on="0"/>
        <pt x="675" y="192" on="1"/>
        <pt x="675" y="174" on="0"/>
        <pt x="675" y="130" on="1"/>
        <pt x="675" y="33" on="0"/>
        <pt x="708" y="1" on="1"/>
        <pt x="720" y="-11" on="0"/>
        <pt x="737" y="-11" on="0"/>
        <pt x="760" y="-4" on="0"/>
        <pt x="796" y="35" on="0"/>
        <pt x="809" y="65" on="1"/>
        <pt x="813" y="74" on="0"/>
        <pt x="820" y="71" on="0"/>
        <pt x="820" y="65" on="0"/>
        <pt x="819" y="61" on="1"/>
        <pt x="806" y="24" on="0"/>
        <pt x="778" y="-1" on="1"/>
        <pt x="717" y="-57" on="0"/>
        <pt x="669" y="-14" on="1"/>
        <pt x="644" y="8" on="0"/>
        <pt x="631" y="92" on="0"/>
        <pt x="631" y="161" on="0"/>
        <pt x="632" y="187" on="1"/>
        <pt x="617" y="186" on="0"/>
        <pt x="507" y="186" on="1"/>
        <pt x="454" y="128" on="0"/>
        <pt x="393" y="77" on="1"/>
        <pt x="400" y="76" on="0"/>
        <pt x="408" y="76" on="1"/>
        <pt x="480" y="76" on="0"/>
        <pt x="536" y="150" on="1"/>
        <pt x="540" y="155" on="0"/>
        <pt x="542" y="149" on="1"/>
        <pt x="542" y="145" on="1"/>
        <pt x="482" y="66" on="0"/>
        <pt x="408" y="66" on="1"/>
        <pt x="395" y="66" on="0"/>
        <pt x="383" y="68" on="1"/>
        <pt x="227" y="-57" on="0"/>
        <pt x="117" y="-57" on="1"/>
        <pt x="58" y="-57" on="0"/>
        <pt x="26" y="-24" on="1"/>
        <pt x="6" y="-2" on="0"/>
        <pt x="6" y="30" on="1"/>
        <pt x="6" y="77" on="0"/>
        <pt x="73" y="143" on="0"/>
        <pt x="166" y="174" on="0"/>
        <pt x="241" y="186" on="1"/>
        <pt x="216" y="243" on="0"/>
        <pt x="216" y="299" on="1"/>
        <pt x="216" y="451" on="0"/>
        <pt x="302" y="522" on="1"/>
        <pt x="348" y="559" on="0"/>
        <pt x="396" y="559" on="1"/>
        <pt x="413" y="559" on="0"/>
        <pt x="431" y="554" on="1"/>
        <pt x="494" y="538" on="0"/>
        <pt x="514" y="472" on="1"/>
        <pt x="522" y="447" on="0"/>
        <pt x="522" y="418" on="1"/>
        <pt x="522" y="322" on="0"/>
        <pt x="442" y="203" on="1"/>
        <pt x="487" y="203" on="1"/>
        <pt x="507" y="223" on="0"/>
        <pt x="625" y="388" on="0"/>
        <pt x="655" y="426" on="1"/>
        <pt x="665" y="491" on="0"/>
        <pt x="665" y="510" on="1"/>
        <pt x="665" y="545" on="0"/>
        <pt x="647" y="545" on="1"/>
        <pt x="626" y="545" on="0"/>
        <pt x="591" y="504" on="1"/>
        <pt x="572" y="482" on="0"/>
        <pt x="564" y="464" on="0"/>
        <pt x="558" y="468" on="1"/>
        <pt x="552" y="476" on="0"/>
        <pt x="576" y="506" on="1"/>
        <pt x="626" y="566" on="0"/>
      </contour>
      <contour>
        <pt x="453" y="237" on="0"/>
        <pt x="470" y="272" on="1"/>
        <pt x="508" y="350" on="0"/>
        <pt x="508" y="454" on="0"/>
        <pt x="489" y="488" on="1"/>
        <pt x="457" y="546" on="0"/>
        <pt x="326" y="546" on="0"/>
        <pt x="231" y="414" on="0"/>
        <pt x="231" y="299" on="1"/>
        <pt x="231" y="239" on="0"/>
        <pt x="255" y="188" on="1"/>
        <pt x="346" y="201" on="0"/>
        <pt x="429" y="202" on="1"/>
      </contour>
      <contour>
        <pt x="19" y="42" on="1"/>
        <pt x="19" y="14" on="0"/>
        <pt x="47" y="-6" on="1"/>
        <pt x="82" y="-32" on="0"/>
        <pt x="140" y="-32" on="1"/>
        <pt x="245" y="-32" on="0"/>
        <pt x="361" y="73" on="1"/>
        <pt x="338" y="82" on="1"/>
        <pt x="235" y="-8" on="0"/>
        <pt x="138" y="-8" on="1"/>
        <pt x="109" y="-8" on="0"/>
        <pt x="81" y="0" on="1"/>
        <pt x="76" y="1" on="0"/>
        <pt x="80" y="9" on="0"/>
        <pt x="83" y="8" on="1"/>
        <pt x="200" y="-23" on="0"/>
        <pt x="328" y="88" on="1"/>
        <pt x="282" y="115" on="0"/>
        <pt x="253" y="165" on="1"/>
        <pt x="157" y="146" on="0"/>
        <pt x="109" y="131" on="1"/>
        <pt x="19" y="100" on="0"/>
      </contour>
      <contour>
        <pt x="525" y="208" on="1"/>
        <pt x="539" y="207" on="0"/>
        <pt x="590" y="207" on="0"/>
        <pt x="634" y="209" on="1"/>
        <pt x="637" y="287" on="0"/>
        <pt x="653" y="392" on="1"/>
        <pt x="628" y="348" on="0"/>
        <pt x="583" y="287" on="0"/>
        <pt x="536" y="222" on="0"/>
      </contour>
      <contour>
        <pt x="418" y="187" on="1"/>
        <pt x="344" y="180" on="0"/>
        <pt x="266" y="167" on="1"/>
        <pt x="296" y="118" on="0"/>
        <pt x="337" y="96" on="1"/>
        <pt x="380" y="135" on="0"/>
      </contour>
      <contour>
        <pt x="466" y="189" on="0"/>
        <pt x="444" y="189" on="0"/>
        <pt x="432" y="188" on="1"/>
        <pt x="393" y="131" on="0"/>
        <pt x="347" y="90" on="1"/>
        <pt x="360" y="85" on="0"/>
        <pt x="370" y="82" on="1"/>
        <pt x="391" y="102" on="0"/>
        <pt x="461" y="175" on="0"/>
        <pt x="475" y="188" on="1"/>
      </contour>
      <contour>
        <pt x="599" y="648" on="1"/>
        <pt x="593" y="654" on="0"/>
        <pt x="593" y="678" on="0"/>
        <pt x="602" y="678" on="1"/>
        <pt x="607" y="678" on="0"/>
        <pt x="617" y="670" on="1"/>
        <pt x="701" y="606" on="1"/>
        <pt x="705" y="603" on="0"/>
        <pt x="705" y="599" on="1"/>
        <pt x="705" y="592" on="0"/>
        <pt x="697" y="592" on="1"/>
        <pt x="685" y="592" on="0"/>
      </contour>
    </TTGlyph>
    <TTGlyph name="Aring" xMin="5" yMin="-58" xMax="821" yMax="644">
      <contour>
        <pt x="522" y="418" on="1"/>
        <pt x="522" y="322" on="0"/>
        <pt x="442" y="203" on="1"/>
        <pt x="487" y="203" on="1"/>
        <pt x="507" y="223" on="0"/>
        <pt x="625" y="388" on="0"/>
        <pt x="655" y="426" on="1"/>
        <pt x="665" y="491" on="0"/>
        <pt x="665" y="510" on="1"/>
        <pt x="665" y="545" on="0"/>
        <pt x="647" y="545" on="1"/>
        <pt x="626" y="545" on="0"/>
        <pt x="591" y="504" on="1"/>
        <pt x="572" y="482" on="0"/>
        <pt x="564" y="464" on="0"/>
        <pt x="558" y="468" on="1"/>
        <pt x="552" y="476" on="0"/>
        <pt x="576" y="506" on="1"/>
        <pt x="619" y="558" on="0"/>
        <pt x="657" y="565" on="1"/>
        <pt x="655" y="566" on="0"/>
        <pt x="638" y="583" on="0"/>
        <pt x="638" y="619" on="0"/>
        <pt x="665" y="644" on="0"/>
        <pt x="697" y="644" on="0"/>
        <pt x="723" y="619" on="0"/>
        <pt x="723" y="583" on="0"/>
        <pt x="701" y="562" on="0"/>
        <pt x="688" y="559" on="1"/>
        <pt x="703" y="546" on="0"/>
        <pt x="703" y="494" on="0"/>
        <pt x="678" y="275" on="0"/>
        <pt x="675" y="212" on="1"/>
        <pt x="725" y="215" on="0"/>
        <pt x="749" y="231" on="0"/>
        <pt x="750" y="219" on="0"/>
        <pt x="715" y="198" on="0"/>
        <pt x="675" y="192" on="1"/>
        <pt x="675" y="174" on="0"/>
        <pt x="675" y="130" on="1"/>
        <pt x="675" y="33" on="0"/>
        <pt x="708" y="1" on="1"/>
        <pt x="720" y="-11" on="0"/>
        <pt x="737" y="-11" on="0"/>
        <pt x="760" y="-4" on="0"/>
        <pt x="796" y="35" on="0"/>
        <pt x="809" y="65" on="1"/>
        <pt x="813" y="74" on="0"/>
        <pt x="820" y="71" on="0"/>
        <pt x="820" y="65" on="0"/>
        <pt x="819" y="61" on="1"/>
        <pt x="806" y="24" on="0"/>
        <pt x="778" y="-1" on="1"/>
        <pt x="717" y="-57" on="0"/>
        <pt x="669" y="-14" on="1"/>
        <pt x="644" y="8" on="0"/>
        <pt x="631" y="92" on="0"/>
        <pt x="631" y="161" on="0"/>
        <pt x="632" y="187" on="1"/>
        <pt x="617" y="186" on="0"/>
        <pt x="507" y="186" on="1"/>
        <pt x="454" y="128" on="0"/>
        <pt x="393" y="77" on="1"/>
        <pt x="400" y="76" on="0"/>
        <pt x="408" y="76" on="1"/>
        <pt x="480" y="76" on="0"/>
        <pt x="536" y="150" on="1"/>
        <pt x="540" y="155" on="0"/>
        <pt x="542" y="149" on="1"/>
        <pt x="542" y="145" on="1"/>
        <pt x="482" y="66" on="0"/>
        <pt x="408" y="66" on="1"/>
        <pt x="395" y="66" on="0"/>
        <pt x="383" y="68" on="1"/>
        <pt x="227" y="-57" on="0"/>
        <pt x="117" y="-57" on="1"/>
        <pt x="58" y="-57" on="0"/>
        <pt x="26" y="-24" on="1"/>
        <pt x="6" y="-2" on="0"/>
        <pt x="6" y="30" on="1"/>
        <pt x="6" y="77" on="0"/>
        <pt x="73" y="143" on="0"/>
        <pt x="166" y="174" on="0"/>
        <pt x="241" y="186" on="1"/>
        <pt x="216" y="243" on="0"/>
        <pt x="216" y="299" on="1"/>
        <pt x="216" y="451" on="0"/>
        <pt x="302" y="522" on="1"/>
        <pt x="348" y="559" on="0"/>
        <pt x="396" y="559" on="1"/>
        <pt x="413" y="559" on="0"/>
        <pt x="431" y="554" on="1"/>
        <pt x="494" y="538" on="0"/>
        <pt x="514" y="472" on="1"/>
        <pt x="522" y="447" on="0"/>
      </contour>
      <contour>
        <pt x="470" y="272" on="1"/>
        <pt x="508" y="350" on="0"/>
        <pt x="508" y="454" on="0"/>
        <pt x="489" y="488" on="1"/>
        <pt x="457" y="546" on="0"/>
        <pt x="326" y="546" on="0"/>
        <pt x="231" y="414" on="0"/>
        <pt x="231" y="299" on="1"/>
        <pt x="231" y="239" on="0"/>
        <pt x="255" y="188" on="1"/>
        <pt x="346" y="201" on="0"/>
        <pt x="429" y="202" on="1"/>
        <pt x="453" y="237" on="0"/>
      </contour>
      <contour>
        <pt x="19" y="42" on="1"/>
        <pt x="19" y="14" on="0"/>
        <pt x="47" y="-6" on="1"/>
        <pt x="82" y="-32" on="0"/>
        <pt x="140" y="-32" on="1"/>
        <pt x="245" y="-32" on="0"/>
        <pt x="361" y="73" on="1"/>
        <pt x="338" y="82" on="1"/>
        <pt x="235" y="-8" on="0"/>
        <pt x="138" y="-8" on="1"/>
        <pt x="109" y="-8" on="0"/>
        <pt x="81" y="0" on="1"/>
        <pt x="76" y="1" on="0"/>
        <pt x="80" y="9" on="0"/>
        <pt x="83" y="8" on="1"/>
        <pt x="200" y="-23" on="0"/>
        <pt x="328" y="88" on="1"/>
        <pt x="282" y="115" on="0"/>
        <pt x="253" y="165" on="1"/>
        <pt x="157" y="146" on="0"/>
        <pt x="109" y="131" on="1"/>
        <pt x="19" y="100" on="0"/>
      </contour>
      <contour>
        <pt x="525" y="208" on="1"/>
        <pt x="539" y="207" on="0"/>
        <pt x="590" y="207" on="0"/>
        <pt x="634" y="209" on="1"/>
        <pt x="637" y="287" on="0"/>
        <pt x="653" y="392" on="1"/>
        <pt x="628" y="348" on="0"/>
        <pt x="583" y="287" on="0"/>
        <pt x="536" y="222" on="0"/>
      </contour>
      <contour>
        <pt x="418" y="187" on="1"/>
        <pt x="344" y="180" on="0"/>
        <pt x="266" y="167" on="1"/>
        <pt x="296" y="118" on="0"/>
        <pt x="337" y="96" on="1"/>
        <pt x="380" y="135" on="0"/>
      </contour>
      <contour>
        <pt x="466" y="189" on="0"/>
        <pt x="444" y="189" on="0"/>
        <pt x="432" y="188" on="1"/>
        <pt x="393" y="131" on="0"/>
        <pt x="347" y="90" on="1"/>
        <pt x="360" y="85" on="0"/>
        <pt x="370" y="82" on="1"/>
        <pt x="391" y="102" on="0"/>
        <pt x="461" y="175" on="0"/>
        <pt x="475" y="188" on="1"/>
      </contour>
      <contour>
        <pt x="711" y="588" on="0"/>
        <pt x="711" y="614" on="0"/>
        <pt x="693" y="632" on="0"/>
        <pt x="667" y="632" on="0"/>
        <pt x="649" y="614" on="0"/>
        <pt x="649" y="588" on="0"/>
        <pt x="667" y="570" on="0"/>
        <pt x="693" y="570" on="0"/>
      </contour>
    </TTGlyph>
    <TTGlyph name="Atilde" xMin="5" yMin="-58" xMax="821" yMax="652">
      <contour>
        <pt x="666" y="566" on="1"/>
        <pt x="703" y="566" on="0"/>
        <pt x="703" y="519" on="1"/>
        <pt x="703" y="494" on="0"/>
        <pt x="678" y="275" on="0"/>
        <pt x="675" y="212" on="1"/>
        <pt x="725" y="215" on="0"/>
        <pt x="749" y="231" on="0"/>
        <pt x="750" y="219" on="0"/>
        <pt x="715" y="198" on="0"/>
        <pt x="675" y="192" on="1"/>
        <pt x="675" y="174" on="0"/>
        <pt x="675" y="130" on="1"/>
        <pt x="675" y="33" on="0"/>
        <pt x="708" y="1" on="1"/>
        <pt x="720" y="-11" on="0"/>
        <pt x="737" y="-11" on="0"/>
        <pt x="760" y="-4" on="0"/>
        <pt x="796" y="35" on="0"/>
        <pt x="809" y="65" on="1"/>
        <pt x="813" y="74" on="0"/>
        <pt x="820" y="71" on="0"/>
        <pt x="820" y="65" on="0"/>
        <pt x="819" y="61" on="1"/>
        <pt x="806" y="24" on="0"/>
        <pt x="778" y="-1" on="1"/>
        <pt x="717" y="-57" on="0"/>
        <pt x="669" y="-14" on="1"/>
        <pt x="644" y="8" on="0"/>
        <pt x="631" y="92" on="0"/>
        <pt x="631" y="161" on="0"/>
        <pt x="632" y="187" on="1"/>
        <pt x="617" y="186" on="0"/>
        <pt x="507" y="186" on="1"/>
        <pt x="454" y="128" on="0"/>
        <pt x="393" y="77" on="1"/>
        <pt x="400" y="76" on="0"/>
        <pt x="408" y="76" on="1"/>
        <pt x="480" y="76" on="0"/>
        <pt x="536" y="150" on="1"/>
        <pt x="540" y="155" on="0"/>
        <pt x="542" y="149" on="1"/>
        <pt x="542" y="145" on="1"/>
        <pt x="482" y="66" on="0"/>
        <pt x="408" y="66" on="1"/>
        <pt x="395" y="66" on="0"/>
        <pt x="383" y="68" on="1"/>
        <pt x="227" y="-57" on="0"/>
        <pt x="117" y="-57" on="1"/>
        <pt x="58" y="-57" on="0"/>
        <pt x="26" y="-24" on="1"/>
        <pt x="6" y="-2" on="0"/>
        <pt x="6" y="30" on="1"/>
        <pt x="6" y="77" on="0"/>
        <pt x="73" y="143" on="0"/>
        <pt x="166" y="174" on="0"/>
        <pt x="241" y="186" on="1"/>
        <pt x="216" y="243" on="0"/>
        <pt x="216" y="299" on="1"/>
        <pt x="216" y="451" on="0"/>
        <pt x="302" y="522" on="1"/>
        <pt x="348" y="559" on="0"/>
        <pt x="396" y="559" on="1"/>
        <pt x="413" y="559" on="0"/>
        <pt x="431" y="554" on="1"/>
        <pt x="494" y="538" on="0"/>
        <pt x="514" y="472" on="1"/>
        <pt x="522" y="447" on="0"/>
        <pt x="522" y="418" on="1"/>
        <pt x="522" y="322" on="0"/>
        <pt x="442" y="203" on="1"/>
        <pt x="487" y="203" on="1"/>
        <pt x="507" y="223" on="0"/>
        <pt x="625" y="388" on="0"/>
        <pt x="655" y="426" on="1"/>
        <pt x="665" y="491" on="0"/>
        <pt x="665" y="510" on="1"/>
        <pt x="665" y="545" on="0"/>
        <pt x="647" y="545" on="1"/>
        <pt x="626" y="545" on="0"/>
        <pt x="591" y="504" on="1"/>
        <pt x="572" y="482" on="0"/>
        <pt x="564" y="464" on="0"/>
        <pt x="558" y="468" on="1"/>
        <pt x="552" y="476" on="0"/>
        <pt x="576" y="506" on="1"/>
        <pt x="626" y="566" on="0"/>
      </contour>
      <contour>
        <pt x="453" y="237" on="0"/>
        <pt x="470" y="272" on="1"/>
        <pt x="508" y="350" on="0"/>
        <pt x="508" y="454" on="0"/>
        <pt x="489" y="488" on="1"/>
        <pt x="457" y="546" on="0"/>
        <pt x="326" y="546" on="0"/>
        <pt x="231" y="414" on="0"/>
        <pt x="231" y="299" on="1"/>
        <pt x="231" y="239" on="0"/>
        <pt x="255" y="188" on="1"/>
        <pt x="346" y="201" on="0"/>
        <pt x="429" y="202" on="1"/>
      </contour>
      <contour>
        <pt x="19" y="42" on="1"/>
        <pt x="19" y="14" on="0"/>
        <pt x="47" y="-6" on="1"/>
        <pt x="82" y="-32" on="0"/>
        <pt x="140" y="-32" on="1"/>
        <pt x="245" y="-32" on="0"/>
        <pt x="361" y="73" on="1"/>
        <pt x="338" y="82" on="1"/>
        <pt x="235" y="-8" on="0"/>
        <pt x="138" y="-8" on="1"/>
        <pt x="109" y="-8" on="0"/>
        <pt x="81" y="0" on="1"/>
        <pt x="76" y="1" on="0"/>
        <pt x="80" y="9" on="0"/>
        <pt x="83" y="8" on="1"/>
        <pt x="200" y="-23" on="0"/>
        <pt x="328" y="88" on="1"/>
        <pt x="282" y="115" on="0"/>
        <pt x="253" y="165" on="1"/>
        <pt x="157" y="146" on="0"/>
        <pt x="109" y="131" on="1"/>
        <pt x="19" y="100" on="0"/>
      </contour>
      <contour>
        <pt x="525" y="208" on="1"/>
        <pt x="539" y="207" on="0"/>
        <pt x="590" y="207" on="0"/>
        <pt x="634" y="209" on="1"/>
        <pt x="637" y="287" on="0"/>
        <pt x="653" y="392" on="1"/>
        <pt x="628" y="348" on="0"/>
        <pt x="583" y="287" on="0"/>
        <pt x="536" y="222" on="0"/>
      </contour>
      <contour>
        <pt x="418" y="187" on="1"/>
        <pt x="344" y="180" on="0"/>
        <pt x="266" y="167" on="1"/>
        <pt x="296" y="118" on="0"/>
        <pt x="337" y="96" on="1"/>
        <pt x="380" y="135" on="0"/>
      </contour>
      <contour>
        <pt x="715" y="604" on="1"/>
        <pt x="701" y="604" on="0"/>
        <pt x="677" y="615" on="1"/>
        <pt x="653" y="626" on="0"/>
        <pt x="623" y="626" on="0"/>
        <pt x="614" y="607" on="1"/>
        <pt x="612" y="605" on="0"/>
        <pt x="601" y="607" on="0"/>
        <pt x="601" y="608" on="1"/>
        <pt x="624" y="651" on="0"/>
        <pt x="652" y="651" on="1"/>
        <pt x="667" y="651" on="0"/>
        <pt x="691" y="640" on="1"/>
        <pt x="718" y="630" on="0"/>
        <pt x="747" y="630" on="0"/>
        <pt x="755" y="650" on="1"/>
        <pt x="756" y="652" on="0"/>
        <pt x="767" y="651" on="0"/>
        <pt x="767" y="650" on="1"/>
        <pt x="767" y="604" on="0"/>
      </contour>
      <contour>
        <pt x="466" y="189" on="0"/>
        <pt x="444" y="189" on="0"/>
        <pt x="432" y="188" on="1"/>
        <pt x="393" y="131" on="0"/>
        <pt x="347" y="90" on="1"/>
        <pt x="360" y="85" on="0"/>
        <pt x="370" y="82" on="1"/>
        <pt x="391" y="102" on="0"/>
        <pt x="461" y="175" on="0"/>
        <pt x="475" y="188" on="1"/>
      </contour>
    </TTGlyph>
    <TTGlyph name="B" xMin="-138" yMin="-92" xMax="617" yMax="594">
      <contour>
        <pt x="169" y="283" on="1"/>
        <pt x="123" y="279" on="1"/>
        <pt x="53" y="279" on="0"/>
        <pt x="30" y="319" on="1"/>
        <pt x="21" y="334" on="0"/>
        <pt x="21" y="379" on="0"/>
        <pt x="50" y="413" on="1"/>
        <pt x="115" y="490" on="0"/>
        <pt x="267" y="512" on="1"/>
        <pt x="302" y="576" on="0"/>
        <pt x="333" y="592" on="1"/>
        <pt x="334" y="593" on="0"/>
        <pt x="337" y="593" on="0"/>
        <pt x="339" y="587" on="0"/>
        <pt x="336" y="585" on="1"/>
        <pt x="311" y="571" on="0"/>
        <pt x="277" y="513" on="1"/>
        <pt x="305" y="517" on="0"/>
        <pt x="326" y="518" on="1"/>
        <pt x="357" y="564" on="0"/>
        <pt x="382" y="575" on="1"/>
        <pt x="396" y="582" on="0"/>
        <pt x="435" y="582" on="0"/>
        <pt x="483" y="547" on="0"/>
        <pt x="483" y="539" on="1"/>
        <pt x="483" y="534" on="0"/>
        <pt x="475" y="534" on="0"/>
        <pt x="472" y="538" on="0"/>
        <pt x="466" y="547" on="0"/>
        <pt x="461" y="551" on="1"/>
        <pt x="440" y="564" on="0"/>
        <pt x="417" y="564" on="0"/>
        <pt x="412" y="563" on="1"/>
        <pt x="396" y="559" on="0"/>
        <pt x="368" y="519" on="1"/>
        <pt x="375" y="519" on="1"/>
        <pt x="477" y="518" on="0"/>
        <pt x="616" y="455" on="0"/>
        <pt x="616" y="402" on="1"/>
        <pt x="616" y="336" on="0"/>
        <pt x="449" y="239" on="0"/>
        <pt x="383" y="232" on="1"/>
        <pt x="445" y="232" on="0"/>
        <pt x="491" y="216" on="1"/>
        <pt x="579" y="185" on="0"/>
        <pt x="579" y="121" on="1"/>
        <pt x="579" y="85" on="0"/>
        <pt x="509" y="6" on="0"/>
        <pt x="376" y="-53" on="0"/>
        <pt x="321" y="-53" on="1"/>
        <pt x="299" y="-53" on="0"/>
        <pt x="245" y="-43" on="0"/>
        <pt x="226" y="-11" on="1"/>
        <pt x="215" y="8" on="0"/>
        <pt x="215" y="40" on="0"/>
        <pt x="220" y="53" on="1"/>
        <pt x="221" y="56" on="0"/>
        <pt x="184" y="8" on="0"/>
        <pt x="165" y="-29" on="1"/>
        <pt x="162" y="-32" on="0"/>
        <pt x="146" y="-27" on="0"/>
        <pt x="131" y="-8" on="0"/>
        <pt x="132" y="0" on="1"/>
        <pt x="139" y="54" on="0"/>
        <pt x="162" y="132" on="1"/>
        <pt x="149" y="131" on="0"/>
        <pt x="123" y="127" on="1"/>
        <pt x="94" y="47" on="0"/>
        <pt x="70" y="8" on="1"/>
        <pt x="10" y="-91" on="0"/>
        <pt x="-66" y="-91" on="1"/>
        <pt x="-108" y="-91" on="0"/>
        <pt x="-128" y="-57" on="1"/>
        <pt x="-138" y="-40" on="0"/>
        <pt x="-138" y="5" on="0"/>
        <pt x="-86" y="67" on="0"/>
        <pt x="33" y="119" on="0"/>
        <pt x="115" y="134" on="1"/>
        <pt x="136" y="188" on="0"/>
      </contour>
      <contour>
        <pt x="220" y="144" on="1"/>
        <pt x="363" y="144" on="0"/>
        <pt x="375" y="50" on="1"/>
        <pt x="376" y="45" on="0"/>
        <pt x="369" y="45" on="0"/>
        <pt x="368" y="48" on="1"/>
        <pt x="354" y="135" on="0"/>
        <pt x="218" y="135" on="1"/>
        <pt x="212" y="135" on="0"/>
        <pt x="206" y="135" on="1"/>
        <pt x="180" y="46" on="0"/>
        <pt x="171" y="1" on="1"/>
        <pt x="178" y="8" on="0"/>
        <pt x="194" y="34" on="1"/>
        <pt x="228" y="91" on="0"/>
        <pt x="268" y="120" on="0"/>
        <pt x="274" y="114" on="1"/>
        <pt x="277" y="112" on="0"/>
        <pt x="273" y="109" on="1"/>
        <pt x="230" y="72" on="0"/>
        <pt x="230" y="25" on="1"/>
        <pt x="230" y="-7" on="0"/>
        <pt x="258" y="-22" on="1"/>
        <pt x="271" y="-30" on="0"/>
        <pt x="324" y="-30" on="0"/>
        <pt x="370" y="-16" on="1"/>
        <pt x="438" y="8" on="0"/>
        <pt x="537" y="91" on="0"/>
        <pt x="537" y="127" on="1"/>
        <pt x="537" y="147" on="0"/>
        <pt x="523" y="165" on="1"/>
        <pt x="480" y="219" on="0"/>
        <pt x="349" y="219" on="1"/>
        <pt x="290" y="219" on="0"/>
        <pt x="227" y="205" on="1"/>
        <pt x="219" y="179" on="0"/>
        <pt x="208" y="144" on="1"/>
        <pt x="214" y="144" on="0"/>
      </contour>
      <contour>
        <pt x="579" y="446" on="0"/>
        <pt x="461" y="508" on="0"/>
        <pt x="373" y="509" on="1"/>
        <pt x="362" y="509" on="1"/>
        <pt x="319" y="441" on="0"/>
        <pt x="274" y="330" on="1"/>
        <pt x="362" y="358" on="0"/>
        <pt x="431" y="408" on="1"/>
        <pt x="443" y="417" on="0"/>
        <pt x="444" y="401" on="0"/>
        <pt x="434" y="395" on="1"/>
        <pt x="337" y="330" on="0"/>
        <pt x="264" y="306" on="1"/>
        <pt x="243" y="255" on="0"/>
        <pt x="233" y="222" on="1"/>
        <pt x="301" y="222" on="0"/>
        <pt x="341" y="232" on="1"/>
        <pt x="455" y="256" on="0"/>
        <pt x="515" y="302" on="1"/>
        <pt x="579" y="351" on="0"/>
      </contour>
      <contour>
        <pt x="-123" y="-28" on="1"/>
        <pt x="-123" y="-58" on="0"/>
        <pt x="-97" y="-73" on="1"/>
        <pt x="-82" y="-82" on="0"/>
        <pt x="-36" y="-82" on="0"/>
        <pt x="31" y="-31" on="0"/>
        <pt x="81" y="50" on="0"/>
        <pt x="111" y="125" on="1"/>
        <pt x="-102" y="84" on="0"/>
        <pt x="-121" y="-12" on="1"/>
        <pt x="-123" y="-21" on="0"/>
      </contour>
      <contour>
        <pt x="39" y="342" on="1"/>
        <pt x="39" y="331" on="0"/>
        <pt x="46" y="322" on="1"/>
        <pt x="61" y="301" on="0"/>
        <pt x="110" y="301" on="1"/>
        <pt x="149" y="301" on="0"/>
        <pt x="177" y="307" on="1"/>
        <pt x="219" y="422" on="0"/>
        <pt x="258" y="495" on="1"/>
        <pt x="139" y="468" on="0"/>
        <pt x="73" y="401" on="1"/>
        <pt x="39" y="367" on="0"/>
      </contour>
      <contour>
        <pt x="268" y="498" on="1"/>
        <pt x="228" y="424" on="0"/>
        <pt x="187" y="309" on="1"/>
        <pt x="213" y="313" on="0"/>
        <pt x="226" y="317" on="1"/>
        <pt x="272" y="433" on="0"/>
        <pt x="318" y="506" on="1"/>
        <pt x="298" y="504" on="0"/>
      </contour>
      <contour>
        <pt x="179" y="285" on="1"/>
        <pt x="134" y="154" on="0"/>
        <pt x="127" y="136" on="1"/>
        <pt x="150" y="140" on="0"/>
        <pt x="165" y="141" on="1"/>
        <pt x="191" y="228" on="0"/>
        <pt x="216" y="292" on="1"/>
        <pt x="202" y="289" on="0"/>
      </contour>
    </TTGlyph>
    <TTGlyph name="C" xMin="23" yMin="-94" xMax="590" yMax="534">
      <contour>
        <pt x="569" y="396" on="1"/>
        <pt x="590" y="391" on="0"/>
        <pt x="590" y="380" on="1"/>
        <pt x="590" y="373" on="0"/>
        <pt x="579" y="379" on="1"/>
        <pt x="568" y="384" on="1"/>
        <pt x="561" y="325" on="0"/>
        <pt x="507" y="266" on="1"/>
        <pt x="415" y="167" on="0"/>
        <pt x="305" y="167" on="1"/>
        <pt x="242" y="167" on="0"/>
        <pt x="211" y="202" on="1"/>
        <pt x="192" y="223" on="0"/>
        <pt x="192" y="246" on="1"/>
        <pt x="192" y="299" on="0"/>
        <pt x="253" y="349" on="1"/>
        <pt x="292" y="382" on="0"/>
        <pt x="412" y="415" on="0"/>
        <pt x="465" y="415" on="1"/>
        <pt x="476" y="415" on="0"/>
        <pt x="488" y="414" on="1"/>
        <pt x="488" y="464" on="0"/>
        <pt x="434" y="480" on="1"/>
        <pt x="415" y="485" on="0"/>
        <pt x="394" y="485" on="1"/>
        <pt x="341" y="485" on="0"/>
        <pt x="279" y="450" on="1"/>
        <pt x="192" y="401" on="0"/>
        <pt x="137" y="301" on="1"/>
        <pt x="94" y="221" on="0"/>
        <pt x="85" y="130" on="1"/>
        <pt x="110" y="63" on="0"/>
        <pt x="222" y="-9" on="0"/>
        <pt x="291" y="-9" on="1"/>
        <pt x="318" y="-9" on="0"/>
        <pt x="361" y="-1" on="1"/>
        <pt x="379" y="32" on="0"/>
        <pt x="379" y="66" on="1"/>
        <pt x="379" y="119" on="0"/>
        <pt x="346" y="137" on="1"/>
        <pt x="344" y="138" on="0"/>
        <pt x="344" y="140" on="1"/>
        <pt x="346" y="146" on="0"/>
        <pt x="350" y="144" on="1"/>
        <pt x="391" y="122" on="0"/>
        <pt x="391" y="65" on="1"/>
        <pt x="391" y="34" on="0"/>
        <pt x="375" y="3" on="1"/>
        <pt x="477" y="34" on="0"/>
        <pt x="527" y="114" on="1"/>
        <pt x="550" y="152" on="0"/>
        <pt x="557" y="152" on="1"/>
        <pt x="561" y="152" on="0"/>
        <pt x="561" y="146" on="1"/>
        <pt x="561" y="135" on="0"/>
        <pt x="516" y="69" on="0"/>
        <pt x="419" y="-5" on="0"/>
        <pt x="359" y="-24" on="1"/>
        <pt x="309" y="-94" on="0"/>
        <pt x="227" y="-94" on="1"/>
        <pt x="166" y="-94" on="0"/>
        <pt x="120" y="-44" on="1"/>
        <pt x="86" y="-8" on="0"/>
        <pt x="76" y="47" on="1"/>
        <pt x="23" y="112" on="0"/>
        <pt x="23" y="295" on="0"/>
        <pt x="141" y="468" on="0"/>
        <pt x="250" y="509" on="1"/>
        <pt x="314" y="533" on="0"/>
        <pt x="416" y="533" on="0"/>
        <pt x="503" y="509" on="0"/>
        <pt x="570" y="443" on="0"/>
      </contour>
      <contour>
        <pt x="295" y="255" on="1"/>
        <pt x="272" y="255" on="0"/>
        <pt x="271" y="265" on="0"/>
        <pt x="290" y="264" on="0"/>
        <pt x="293" y="264" on="1"/>
        <pt x="345" y="264" on="0"/>
        <pt x="441" y="309" on="0"/>
        <pt x="481" y="375" on="0"/>
        <pt x="486" y="398" on="1"/>
        <pt x="426" y="398" on="0"/>
        <pt x="301" y="359" on="0"/>
        <pt x="270" y="332" on="1"/>
        <pt x="222" y="290" on="0"/>
        <pt x="222" y="249" on="1"/>
        <pt x="222" y="220" on="0"/>
        <pt x="254" y="196" on="1"/>
        <pt x="275" y="182" on="0"/>
        <pt x="341" y="182" on="0"/>
        <pt x="381" y="194" on="1"/>
        <pt x="447" y="217" on="0"/>
        <pt x="552" y="333" on="0"/>
        <pt x="551" y="390" on="1"/>
        <pt x="523" y="397" on="0"/>
        <pt x="496" y="398" on="1"/>
        <pt x="491" y="371" on="0"/>
        <pt x="473" y="346" on="1"/>
        <pt x="442" y="300" on="0"/>
        <pt x="346" y="255" on="0"/>
      </contour>
      <contour>
        <pt x="314" y="480" on="1"/>
        <pt x="357" y="495" on="0"/>
        <pt x="429" y="495" on="0"/>
        <pt x="458" y="480" on="1"/>
        <pt x="500" y="457" on="0"/>
        <pt x="498" y="413" on="1"/>
        <pt x="525" y="412" on="0"/>
        <pt x="549" y="404" on="1"/>
        <pt x="539" y="469" on="0"/>
        <pt x="455" y="500" on="1"/>
        <pt x="423" y="513" on="0"/>
        <pt x="336" y="513" on="0"/>
        <pt x="237" y="486" on="0"/>
        <pt x="138" y="404" on="0"/>
        <pt x="72" y="275" on="0"/>
        <pt x="72" y="211" on="1"/>
        <pt x="72" y="186" on="0"/>
        <pt x="77" y="160" on="1"/>
        <pt x="88" y="240" on="0"/>
        <pt x="128" y="312" on="1"/>
        <pt x="198" y="439" on="0"/>
      </contour>
      <contour>
        <pt x="341" y="-29" on="1"/>
        <pt x="301" y="-38" on="0"/>
        <pt x="261" y="-38" on="1"/>
        <pt x="159" y="-38" on="0"/>
        <pt x="91" y="30" on="1"/>
        <pt x="107" y="-32" on="0"/>
        <pt x="152" y="-62" on="1"/>
        <pt x="187" y="-85" on="0"/>
        <pt x="226" y="-85" on="1"/>
        <pt x="293" y="-85" on="0"/>
      </contour>
    </TTGlyph>
    <TTGlyph name="Ccedilla" xMin="23" yMin="-238" xMax="590" yMax="534">
      <contour>
        <pt x="557" y="152" on="1"/>
        <pt x="561" y="152" on="0"/>
        <pt x="561" y="146" on="1"/>
        <pt x="561" y="135" on="0"/>
        <pt x="516" y="69" on="0"/>
        <pt x="419" y="-5" on="0"/>
        <pt x="359" y="-24" on="1"/>
        <pt x="325" y="-69" on="0"/>
        <pt x="278" y="-85" on="1"/>
        <pt x="311" y="-108" on="0"/>
        <pt x="311" y="-185" on="0"/>
        <pt x="265" y="-220" on="1"/>
        <pt x="242" y="-238" on="0"/>
        <pt x="173" y="-238" on="0"/>
        <pt x="87" y="-214" on="0"/>
        <pt x="87" y="-191" on="1"/>
        <pt x="87" y="-184" on="0"/>
        <pt x="97" y="-184" on="0"/>
        <pt x="106" y="-195" on="1"/>
        <pt x="127" y="-220" on="0"/>
        <pt x="245" y="-220" on="0"/>
        <pt x="266" y="-184" on="1"/>
        <pt x="278" y="-162" on="0"/>
        <pt x="278" y="-114" on="0"/>
        <pt x="256" y="-98" on="1"/>
        <pt x="249" y="-93" on="1"/>
        <pt x="239" y="-94" on="0"/>
        <pt x="207" y="-94" on="0"/>
        <pt x="188" y="-88" on="1"/>
        <pt x="149" y="-108" on="1"/>
        <pt x="132" y="-108" on="0"/>
        <pt x="132" y="-93" on="1"/>
        <pt x="132" y="-85" on="0"/>
        <pt x="149" y="-70" on="1"/>
        <pt x="91" y="-32" on="0"/>
        <pt x="76" y="47" on="1"/>
        <pt x="23" y="112" on="0"/>
        <pt x="23" y="295" on="0"/>
        <pt x="141" y="468" on="0"/>
        <pt x="250" y="509" on="1"/>
        <pt x="314" y="533" on="0"/>
        <pt x="416" y="533" on="0"/>
        <pt x="503" y="509" on="0"/>
        <pt x="570" y="443" on="0"/>
        <pt x="569" y="396" on="1"/>
        <pt x="590" y="391" on="0"/>
        <pt x="590" y="380" on="1"/>
        <pt x="590" y="373" on="0"/>
        <pt x="579" y="379" on="1"/>
        <pt x="568" y="384" on="1"/>
        <pt x="561" y="325" on="0"/>
        <pt x="507" y="266" on="1"/>
        <pt x="415" y="167" on="0"/>
        <pt x="305" y="167" on="1"/>
        <pt x="242" y="167" on="0"/>
        <pt x="211" y="202" on="1"/>
        <pt x="192" y="223" on="0"/>
        <pt x="192" y="246" on="1"/>
        <pt x="192" y="299" on="0"/>
        <pt x="253" y="349" on="1"/>
        <pt x="292" y="382" on="0"/>
        <pt x="412" y="415" on="0"/>
        <pt x="465" y="415" on="1"/>
        <pt x="476" y="415" on="0"/>
        <pt x="488" y="414" on="1"/>
        <pt x="488" y="464" on="0"/>
        <pt x="434" y="480" on="1"/>
        <pt x="415" y="485" on="0"/>
        <pt x="394" y="485" on="1"/>
        <pt x="341" y="485" on="0"/>
        <pt x="279" y="450" on="1"/>
        <pt x="192" y="401" on="0"/>
        <pt x="137" y="301" on="1"/>
        <pt x="94" y="221" on="0"/>
        <pt x="85" y="130" on="1"/>
        <pt x="110" y="63" on="0"/>
        <pt x="222" y="-9" on="0"/>
        <pt x="291" y="-9" on="1"/>
        <pt x="318" y="-9" on="0"/>
        <pt x="361" y="-1" on="1"/>
        <pt x="379" y="32" on="0"/>
        <pt x="379" y="66" on="1"/>
        <pt x="379" y="119" on="0"/>
        <pt x="346" y="137" on="1"/>
        <pt x="344" y="138" on="0"/>
        <pt x="344" y="140" on="1"/>
        <pt x="346" y="146" on="0"/>
        <pt x="350" y="144" on="1"/>
        <pt x="391" y="122" on="0"/>
        <pt x="391" y="65" on="1"/>
        <pt x="391" y="34" on="0"/>
        <pt x="375" y="3" on="1"/>
        <pt x="477" y="34" on="0"/>
        <pt x="527" y="114" on="1"/>
        <pt x="550" y="152" on="0"/>
      </contour>
      <contour>
        <pt x="295" y="255" on="1"/>
        <pt x="272" y="255" on="0"/>
        <pt x="271" y="265" on="0"/>
        <pt x="290" y="264" on="0"/>
        <pt x="293" y="264" on="1"/>
        <pt x="345" y="264" on="0"/>
        <pt x="441" y="309" on="0"/>
        <pt x="481" y="375" on="0"/>
        <pt x="486" y="398" on="1"/>
        <pt x="426" y="398" on="0"/>
        <pt x="301" y="359" on="0"/>
        <pt x="270" y="332" on="1"/>
        <pt x="222" y="290" on="0"/>
        <pt x="222" y="249" on="1"/>
        <pt x="222" y="220" on="0"/>
        <pt x="254" y="196" on="1"/>
        <pt x="275" y="182" on="0"/>
        <pt x="341" y="182" on="0"/>
        <pt x="381" y="194" on="1"/>
        <pt x="447" y="217" on="0"/>
        <pt x="552" y="333" on="0"/>
        <pt x="551" y="390" on="1"/>
        <pt x="523" y="397" on="0"/>
        <pt x="496" y="398" on="1"/>
        <pt x="491" y="371" on="0"/>
        <pt x="473" y="346" on="1"/>
        <pt x="442" y="300" on="0"/>
        <pt x="346" y="255" on="0"/>
      </contour>
      <contour>
        <pt x="314" y="480" on="1"/>
        <pt x="357" y="495" on="0"/>
        <pt x="429" y="495" on="0"/>
        <pt x="458" y="480" on="1"/>
        <pt x="500" y="457" on="0"/>
        <pt x="498" y="413" on="1"/>
        <pt x="525" y="412" on="0"/>
        <pt x="549" y="404" on="1"/>
        <pt x="539" y="469" on="0"/>
        <pt x="455" y="500" on="1"/>
        <pt x="423" y="513" on="0"/>
        <pt x="336" y="513" on="0"/>
        <pt x="237" y="486" on="0"/>
        <pt x="138" y="404" on="0"/>
        <pt x="72" y="275" on="0"/>
        <pt x="72" y="211" on="1"/>
        <pt x="72" y="186" on="0"/>
        <pt x="77" y="160" on="1"/>
        <pt x="88" y="240" on="0"/>
        <pt x="128" y="312" on="1"/>
        <pt x="198" y="439" on="0"/>
      </contour>
      <contour>
        <pt x="341" y="-29" on="1"/>
        <pt x="302" y="-38" on="0"/>
        <pt x="235" y="-38" on="0"/>
        <pt x="210" y="-33" on="1"/>
        <pt x="172" y="-65" on="0"/>
        <pt x="172" y="-68" on="1"/>
        <pt x="190" y="-65" on="0"/>
        <pt x="240" y="-65" on="0"/>
        <pt x="266" y="-78" on="1"/>
        <pt x="309" y="-65" on="0"/>
      </contour>
      <contour>
        <pt x="91" y="30" on="1"/>
        <pt x="107" y="-33" on="0"/>
        <pt x="156" y="-64" on="1"/>
        <pt x="195" y="-29" on="1"/>
        <pt x="131" y="-12" on="0"/>
      </contour>
    </TTGlyph>
    <TTGlyph name="D" xMin="19" yMin="-170" xMax="748" yMax="592">
      <contour>
        <pt x="455" y="568" on="1"/>
        <pt x="481" y="568" on="0"/>
        <pt x="529" y="533" on="0"/>
        <pt x="529" y="520" on="0"/>
        <pt x="520" y="520" on="0"/>
        <pt x="517" y="524" on="0"/>
        <pt x="511" y="533" on="0"/>
        <pt x="506" y="536" on="1"/>
        <pt x="488" y="550" on="0"/>
        <pt x="463" y="550" on="0"/>
        <pt x="457" y="548" on="1"/>
        <pt x="440" y="545" on="0"/>
        <pt x="420" y="517" on="1"/>
        <pt x="516" y="509" on="0"/>
        <pt x="589" y="477" on="1"/>
        <pt x="727" y="417" on="0"/>
        <pt x="746" y="290" on="1"/>
        <pt x="747" y="277" on="0"/>
        <pt x="747" y="264" on="1"/>
        <pt x="747" y="218" on="0"/>
        <pt x="693" y="105" on="0"/>
        <pt x="561" y="-9" on="0"/>
        <pt x="458" y="-28" on="1"/>
        <pt x="431" y="-81" on="0"/>
        <pt x="353" y="-152" on="0"/>
        <pt x="294" y="-169" on="0"/>
        <pt x="275" y="-169" on="1"/>
        <pt x="213" y="-169" on="0"/>
        <pt x="182" y="-124" on="1"/>
        <pt x="148" y="-72" on="0"/>
        <pt x="148" y="6" on="1"/>
        <pt x="148" y="108" on="0"/>
        <pt x="212" y="272" on="1"/>
        <pt x="167" y="261" on="0"/>
        <pt x="91" y="261" on="0"/>
        <pt x="58" y="280" on="1"/>
        <pt x="19" y="302" on="0"/>
        <pt x="19" y="345" on="1"/>
        <pt x="19" y="375" on="0"/>
        <pt x="65" y="448" on="0"/>
        <pt x="118" y="474" on="1"/>
        <pt x="192" y="511" on="0"/>
        <pt x="319" y="519" on="1"/>
        <pt x="336" y="556" on="0"/>
        <pt x="341" y="591" on="0"/>
        <pt x="344" y="591" on="0"/>
        <pt x="348" y="585" on="0"/>
        <pt x="348" y="563" on="0"/>
        <pt x="331" y="519" on="1"/>
        <pt x="344" y="520" on="0"/>
        <pt x="370" y="520" on="0"/>
        <pt x="383" y="519" on="1"/>
        <pt x="417" y="568" on="0"/>
      </contour>
      <contour>
        <pt x="440" y="377" on="1"/>
        <pt x="506" y="296" on="0"/>
        <pt x="506" y="163" on="1"/>
        <pt x="506" y="99" on="0"/>
        <pt x="486" y="40" on="1"/>
        <pt x="475" y="9" on="1"/>
        <pt x="552" y="33" on="0"/>
        <pt x="664" y="135" on="0"/>
        <pt x="705" y="234" on="0"/>
        <pt x="705" y="261" on="1"/>
        <pt x="705" y="338" on="0"/>
        <pt x="656" y="400" on="1"/>
        <pt x="620" y="443" on="0"/>
        <pt x="493" y="500" on="0"/>
        <pt x="413" y="506" on="1"/>
        <pt x="392" y="475" on="0"/>
        <pt x="373" y="433" on="1"/>
        <pt x="404" y="417" on="0"/>
        <pt x="432" y="387" on="1"/>
        <pt x="476" y="414" on="0"/>
        <pt x="515" y="455" on="0"/>
        <pt x="515" y="442" on="0"/>
        <pt x="511" y="438" on="1"/>
        <pt x="482" y="408" on="0"/>
      </contour>
      <contour>
        <pt x="457" y="4" on="1"/>
        <pt x="489" y="74" on="0"/>
        <pt x="489" y="146" on="1"/>
        <pt x="489" y="289" on="0"/>
        <pt x="428" y="369" on="1"/>
        <pt x="377" y="335" on="0"/>
        <pt x="323" y="311" on="1"/>
        <pt x="291" y="221" on="0"/>
        <pt x="241" y="40" on="0"/>
        <pt x="237" y="1" on="1"/>
        <pt x="242" y="6" on="0"/>
        <pt x="272" y="58" on="0"/>
        <pt x="280" y="71" on="0"/>
        <pt x="304" y="100" on="0"/>
        <pt x="311" y="105" on="1"/>
        <pt x="330" y="120" on="0"/>
        <pt x="337" y="114" on="1"/>
        <pt x="340" y="112" on="0"/>
        <pt x="336" y="109" on="1"/>
        <pt x="290" y="69" on="0"/>
        <pt x="290" y="41" on="1"/>
        <pt x="290" y="26" on="0"/>
        <pt x="304" y="14" on="1"/>
        <pt x="328" y="-7" on="0"/>
        <pt x="376" y="-7" on="1"/>
        <pt x="415" y="-7" on="0"/>
      </contour>
      <contour>
        <pt x="226" y="275" on="1"/>
        <pt x="188" y="171" on="0"/>
        <pt x="165" y="47" on="0"/>
        <pt x="165" y="11" on="1"/>
        <pt x="165" y="-97" on="0"/>
        <pt x="212" y="-132" on="1"/>
        <pt x="243" y="-154" on="0"/>
        <pt x="279" y="-154" on="1"/>
        <pt x="322" y="-154" on="0"/>
        <pt x="411" y="-86" on="0"/>
        <pt x="441" y="-31" on="1"/>
        <pt x="416" y="-34" on="0"/>
        <pt x="348" y="-34" on="0"/>
        <pt x="280" y="-4" on="0"/>
        <pt x="280" y="28" on="1"/>
        <pt x="280" y="40" on="0"/>
        <pt x="284" y="53" on="1"/>
        <pt x="263" y="33" on="0"/>
        <pt x="231" y="-29" on="1"/>
        <pt x="228" y="-32" on="0"/>
        <pt x="212" y="-27" on="0"/>
        <pt x="197" y="-8" on="0"/>
        <pt x="198" y="0" on="1"/>
        <pt x="207" y="105" on="0"/>
        <pt x="273" y="291" on="1"/>
        <pt x="241" y="279" on="0"/>
      </contour>
      <contour>
        <pt x="264" y="449" on="1"/>
        <pt x="210" y="449" on="0"/>
        <pt x="142" y="378" on="0"/>
        <pt x="142" y="351" on="1"/>
        <pt x="142" y="344" on="0"/>
        <pt x="145" y="333" on="0"/>
        <pt x="141" y="332" on="1"/>
        <pt x="134" y="330" on="0"/>
        <pt x="134" y="382" on="0"/>
        <pt x="203" y="457" on="0"/>
        <pt x="269" y="457" on="1"/>
        <pt x="286" y="457" on="0"/>
        <pt x="291" y="456" on="1"/>
        <pt x="314" y="506" on="1"/>
        <pt x="201" y="495" on="0"/>
        <pt x="75" y="421" on="0"/>
        <pt x="50" y="377" on="1"/>
        <pt x="37" y="355" on="0"/>
        <pt x="37" y="318" on="0"/>
        <pt x="49" y="304" on="1"/>
        <pt x="68" y="281" on="0"/>
        <pt x="117" y="281" on="1"/>
        <pt x="165" y="281" on="0"/>
        <pt x="222" y="298" on="1"/>
        <pt x="250" y="369" on="0"/>
        <pt x="287" y="448" on="1"/>
        <pt x="282" y="449" on="0"/>
      </contour>
      <contour>
        <pt x="297" y="447" on="1"/>
        <pt x="263" y="378" on="0"/>
        <pt x="235" y="302" on="1"/>
        <pt x="259" y="308" on="0"/>
        <pt x="283" y="317" on="1"/>
        <pt x="306" y="380" on="0"/>
        <pt x="335" y="437" on="1"/>
        <pt x="319" y="444" on="0"/>
      </contour>
      <contour>
        <pt x="420" y="379" on="1"/>
        <pt x="395" y="407" on="0"/>
        <pt x="368" y="422" on="1"/>
        <pt x="351" y="385" on="0"/>
        <pt x="333" y="336" on="1"/>
        <pt x="382" y="357" on="0"/>
      </contour>
      <contour>
        <pt x="325" y="507" on="1"/>
        <pt x="323" y="501" on="0"/>
        <pt x="301" y="455" on="1"/>
        <pt x="319" y="454" on="0"/>
        <pt x="339" y="447" on="1"/>
        <pt x="359" y="485" on="0"/>
        <pt x="375" y="508" on="1"/>
        <pt x="342" y="508" on="0"/>
      </contour>
    </TTGlyph>
    <TTGlyph name="E" xMin="35" yMin="-171" xMax="595" yMax="553">
      <contour>
        <pt x="422" y="12" on="1"/>
        <pt x="423" y="-6" on="1"/>
        <pt x="423" y="-55" on="0"/>
        <pt x="405" y="-92" on="1"/>
        <pt x="368" y="-170" on="0"/>
        <pt x="288" y="-170" on="1"/>
        <pt x="218" y="-170" on="0"/>
        <pt x="168" y="-106" on="1"/>
        <pt x="140" y="-70" on="0"/>
        <pt x="126" y="-18" on="1"/>
        <pt x="35" y="29" on="0"/>
        <pt x="35" y="141" on="1"/>
        <pt x="35" y="195" on="0"/>
        <pt x="60" y="258" on="1"/>
        <pt x="54" y="257" on="0"/>
        <pt x="35" y="252" on="0"/>
        <pt x="35" y="259" on="1"/>
        <pt x="35" y="274" on="0"/>
        <pt x="50" y="284" on="1"/>
        <pt x="53" y="285" on="0"/>
        <pt x="55" y="286" on="1"/>
        <pt x="75" y="290" on="1"/>
        <pt x="81" y="302" on="1"/>
        <pt x="139" y="412" on="0"/>
        <pt x="254" y="481" on="1"/>
        <pt x="343" y="534" on="0"/>
        <pt x="507" y="534" on="0"/>
        <pt x="538" y="504" on="1"/>
        <pt x="578" y="553" on="0"/>
        <pt x="589" y="553" on="1"/>
        <pt x="594" y="553" on="0"/>
        <pt x="594" y="545" on="0"/>
        <pt x="591" y="542" on="1"/>
        <pt x="568" y="524" on="0"/>
        <pt x="546" y="496" on="1"/>
        <pt x="562" y="475" on="0"/>
        <pt x="562" y="457" on="1"/>
        <pt x="562" y="404" on="0"/>
        <pt x="519" y="392" on="1"/>
        <pt x="512" y="390" on="0"/>
        <pt x="507" y="390" on="1"/>
        <pt x="490" y="390" on="0"/>
        <pt x="487" y="408" on="1"/>
        <pt x="483" y="429" on="0"/>
        <pt x="516" y="478" on="0"/>
        <pt x="526" y="488" on="1"/>
        <pt x="505" y="512" on="0"/>
        <pt x="351" y="512" on="0"/>
        <pt x="277" y="464" on="1"/>
        <pt x="185" y="404" on="0"/>
        <pt x="125" y="299" on="1"/>
        <pt x="141" y="301" on="0"/>
        <pt x="169" y="303" on="1"/>
        <pt x="248" y="442" on="0"/>
        <pt x="403" y="487" on="1"/>
        <pt x="407" y="488" on="0"/>
        <pt x="410" y="480" on="0"/>
        <pt x="406" y="479" on="1"/>
        <pt x="272" y="443" on="0"/>
        <pt x="190" y="304" on="1"/>
        <pt x="225" y="306" on="0"/>
        <pt x="444" y="306" on="1"/>
        <pt x="455" y="306" on="0"/>
        <pt x="456" y="293" on="0"/>
        <pt x="438" y="293" on="1"/>
        <pt x="299" y="293" on="0"/>
        <pt x="176" y="278" on="1"/>
        <pt x="128" y="182" on="0"/>
        <pt x="128" y="84" on="1"/>
        <pt x="128" y="47" on="0"/>
        <pt x="132" y="22" on="1"/>
        <pt x="144" y="10" on="0"/>
        <pt x="206" y="-21" on="0"/>
        <pt x="255" y="-21" on="1"/>
        <pt x="332" y="-21" on="0"/>
        <pt x="405" y="24" on="1"/>
        <pt x="393" y="75" on="0"/>
        <pt x="353" y="122" on="1"/>
        <pt x="292" y="86" on="0"/>
        <pt x="248" y="33" on="1"/>
        <pt x="241" y="25" on="0"/>
        <pt x="241" y="30" on="1"/>
        <pt x="241" y="38" on="0"/>
        <pt x="245" y="42" on="1"/>
        <pt x="281" y="82" on="0"/>
        <pt x="320" y="115" on="1"/>
        <pt x="341" y="131" on="0"/>
        <pt x="343" y="132" on="1"/>
        <pt x="285" y="190" on="0"/>
        <pt x="220" y="191" on="1"/>
        <pt x="217" y="191" on="0"/>
        <pt x="215" y="195" on="0"/>
        <pt x="218" y="199" on="0"/>
        <pt x="220" y="199" on="1"/>
        <pt x="289" y="197" on="0"/>
        <pt x="352" y="138" on="1"/>
        <pt x="418" y="179" on="0"/>
        <pt x="523" y="179" on="0"/>
        <pt x="523" y="132" on="1"/>
        <pt x="523" y="75" on="0"/>
      </contour>
      <contour>
        <pt x="407" y="4" on="1"/>
        <pt x="323" y="-42" on="0"/>
        <pt x="234" y="-42" on="1"/>
        <pt x="175" y="-42" on="0"/>
        <pt x="142" y="-25" on="1"/>
        <pt x="162" y="-96" on="0"/>
        <pt x="248" y="-162" on="0"/>
        <pt x="287" y="-162" on="1"/>
        <pt x="337" y="-162" on="0"/>
        <pt x="408" y="-74" on="0"/>
        <pt x="408" y="-6" on="1"/>
        <pt x="408" y="1" on="0"/>
      </contour>
      <contour>
        <pt x="418" y="32" on="1"/>
        <pt x="463" y="64" on="0"/>
        <pt x="504" y="126" on="0"/>
        <pt x="504" y="140" on="1"/>
        <pt x="504" y="168" on="0"/>
        <pt x="473" y="168" on="1"/>
        <pt x="435" y="168" on="0"/>
        <pt x="363" y="127" on="1"/>
        <pt x="405" y="82" on="0"/>
      </contour>
      <contour>
        <pt x="113" y="88" on="1"/>
        <pt x="113" y="184" on="0"/>
        <pt x="155" y="275" on="1"/>
        <pt x="109" y="268" on="1"/>
        <pt x="106" y="261" on="1"/>
        <pt x="79" y="206" on="0"/>
        <pt x="79" y="151" on="1"/>
        <pt x="79" y="85" on="0"/>
        <pt x="115" y="40" on="1"/>
        <pt x="113" y="70" on="0"/>
      </contour>
      <contour>
        <pt x="535" y="417" on="1"/>
        <pt x="541" y="431" on="0"/>
        <pt x="541" y="461" on="0"/>
        <pt x="533" y="478" on="1"/>
        <pt x="506" y="438" on="0"/>
        <pt x="506" y="410" on="1"/>
        <pt x="506" y="401" on="0"/>
        <pt x="526" y="401" on="0"/>
      </contour>
    </TTGlyph>
    <TTGlyph name="Eacute" xMin="35" yMin="-171" xMax="595" yMax="644">
      <contour>
        <pt x="422" y="12" on="1"/>
        <pt x="423" y="-6" on="1"/>
        <pt x="423" y="-55" on="0"/>
        <pt x="405" y="-92" on="1"/>
        <pt x="368" y="-170" on="0"/>
        <pt x="288" y="-170" on="1"/>
        <pt x="218" y="-170" on="0"/>
        <pt x="168" y="-106" on="1"/>
        <pt x="140" y="-70" on="0"/>
        <pt x="126" y="-18" on="1"/>
        <pt x="35" y="29" on="0"/>
        <pt x="35" y="141" on="1"/>
        <pt x="35" y="195" on="0"/>
        <pt x="60" y="258" on="1"/>
        <pt x="54" y="257" on="0"/>
        <pt x="35" y="252" on="0"/>
        <pt x="35" y="259" on="1"/>
        <pt x="35" y="274" on="0"/>
        <pt x="50" y="284" on="1"/>
        <pt x="53" y="285" on="0"/>
        <pt x="55" y="286" on="1"/>
        <pt x="75" y="290" on="1"/>
        <pt x="81" y="302" on="1"/>
        <pt x="139" y="412" on="0"/>
        <pt x="254" y="481" on="1"/>
        <pt x="343" y="534" on="0"/>
        <pt x="507" y="534" on="0"/>
        <pt x="538" y="504" on="1"/>
        <pt x="586" y="562" on="0"/>
        <pt x="594" y="550" on="1"/>
        <pt x="594" y="549" on="0"/>
        <pt x="594" y="545" on="0"/>
        <pt x="591" y="542" on="1"/>
        <pt x="568" y="524" on="0"/>
        <pt x="546" y="496" on="1"/>
        <pt x="562" y="475" on="0"/>
        <pt x="562" y="457" on="1"/>
        <pt x="562" y="404" on="0"/>
        <pt x="519" y="392" on="1"/>
        <pt x="512" y="390" on="0"/>
        <pt x="507" y="390" on="1"/>
        <pt x="490" y="390" on="0"/>
        <pt x="487" y="408" on="1"/>
        <pt x="483" y="429" on="0"/>
        <pt x="516" y="478" on="0"/>
        <pt x="526" y="488" on="1"/>
        <pt x="505" y="512" on="0"/>
        <pt x="351" y="512" on="0"/>
        <pt x="277" y="464" on="1"/>
        <pt x="185" y="404" on="0"/>
        <pt x="125" y="299" on="1"/>
        <pt x="141" y="301" on="0"/>
        <pt x="169" y="303" on="1"/>
        <pt x="248" y="442" on="0"/>
        <pt x="403" y="487" on="1"/>
        <pt x="407" y="488" on="0"/>
        <pt x="410" y="480" on="0"/>
        <pt x="406" y="479" on="1"/>
        <pt x="272" y="443" on="0"/>
        <pt x="190" y="304" on="1"/>
        <pt x="225" y="306" on="0"/>
        <pt x="444" y="306" on="1"/>
        <pt x="455" y="306" on="0"/>
        <pt x="456" y="293" on="0"/>
        <pt x="438" y="293" on="1"/>
        <pt x="299" y="293" on="0"/>
        <pt x="176" y="278" on="1"/>
        <pt x="128" y="182" on="0"/>
        <pt x="128" y="84" on="1"/>
        <pt x="128" y="47" on="0"/>
        <pt x="132" y="22" on="1"/>
        <pt x="144" y="10" on="0"/>
        <pt x="206" y="-21" on="0"/>
        <pt x="255" y="-21" on="1"/>
        <pt x="332" y="-21" on="0"/>
        <pt x="405" y="24" on="1"/>
        <pt x="393" y="75" on="0"/>
        <pt x="353" y="122" on="1"/>
        <pt x="292" y="86" on="0"/>
        <pt x="248" y="33" on="1"/>
        <pt x="241" y="25" on="0"/>
        <pt x="241" y="30" on="1"/>
        <pt x="241" y="38" on="0"/>
        <pt x="245" y="42" on="1"/>
        <pt x="281" y="82" on="0"/>
        <pt x="320" y="115" on="1"/>
        <pt x="341" y="131" on="0"/>
        <pt x="343" y="132" on="1"/>
        <pt x="285" y="190" on="0"/>
        <pt x="220" y="191" on="1"/>
        <pt x="217" y="191" on="0"/>
        <pt x="215" y="195" on="0"/>
        <pt x="218" y="199" on="0"/>
        <pt x="220" y="199" on="1"/>
        <pt x="289" y="197" on="0"/>
        <pt x="352" y="138" on="1"/>
        <pt x="418" y="179" on="0"/>
        <pt x="523" y="179" on="0"/>
        <pt x="523" y="132" on="1"/>
        <pt x="523" y="75" on="0"/>
      </contour>
      <contour>
        <pt x="407" y="4" on="1"/>
        <pt x="323" y="-42" on="0"/>
        <pt x="234" y="-42" on="1"/>
        <pt x="175" y="-42" on="0"/>
        <pt x="142" y="-25" on="1"/>
        <pt x="162" y="-96" on="0"/>
        <pt x="248" y="-162" on="0"/>
        <pt x="287" y="-162" on="1"/>
        <pt x="337" y="-162" on="0"/>
        <pt x="408" y="-74" on="0"/>
        <pt x="408" y="-6" on="1"/>
        <pt x="408" y="1" on="0"/>
      </contour>
      <contour>
        <pt x="418" y="32" on="1"/>
        <pt x="463" y="64" on="0"/>
        <pt x="504" y="126" on="0"/>
        <pt x="504" y="140" on="1"/>
        <pt x="504" y="168" on="0"/>
        <pt x="473" y="168" on="1"/>
        <pt x="435" y="168" on="0"/>
        <pt x="363" y="127" on="1"/>
        <pt x="405" y="82" on="0"/>
      </contour>
      <contour>
        <pt x="113" y="88" on="1"/>
        <pt x="113" y="184" on="0"/>
        <pt x="155" y="275" on="1"/>
        <pt x="109" y="268" on="1"/>
        <pt x="106" y="261" on="1"/>
        <pt x="79" y="206" on="0"/>
        <pt x="79" y="151" on="1"/>
        <pt x="79" y="85" on="0"/>
        <pt x="115" y="40" on="1"/>
        <pt x="113" y="70" on="0"/>
      </contour>
      <contour>
        <pt x="426" y="583" on="0"/>
        <pt x="487" y="629" on="0"/>
        <pt x="508" y="644" on="0"/>
        <pt x="541" y="644" on="0"/>
        <pt x="541" y="631" on="1"/>
        <pt x="541" y="628" on="0"/>
        <pt x="534" y="616" on="0"/>
        <pt x="423" y="564" on="0"/>
        <pt x="411" y="564" on="0"/>
        <pt x="411" y="571" on="0"/>
        <pt x="412" y="573" on="1"/>
      </contour>
      <contour>
        <pt x="535" y="417" on="1"/>
        <pt x="541" y="431" on="0"/>
        <pt x="541" y="461" on="0"/>
        <pt x="533" y="478" on="1"/>
        <pt x="506" y="438" on="0"/>
        <pt x="506" y="410" on="1"/>
        <pt x="506" y="401" on="0"/>
        <pt x="526" y="401" on="0"/>
      </contour>
    </TTGlyph>
    <TTGlyph name="Ecircumflex" xMin="35" yMin="-171" xMax="595" yMax="674">
      <contour>
        <pt x="422" y="12" on="1"/>
        <pt x="423" y="-6" on="1"/>
        <pt x="423" y="-55" on="0"/>
        <pt x="405" y="-92" on="1"/>
        <pt x="368" y="-170" on="0"/>
        <pt x="288" y="-170" on="1"/>
        <pt x="218" y="-170" on="0"/>
        <pt x="168" y="-106" on="1"/>
        <pt x="140" y="-70" on="0"/>
        <pt x="126" y="-18" on="1"/>
        <pt x="35" y="29" on="0"/>
        <pt x="35" y="141" on="1"/>
        <pt x="35" y="195" on="0"/>
        <pt x="60" y="258" on="1"/>
        <pt x="54" y="257" on="0"/>
        <pt x="35" y="252" on="0"/>
        <pt x="35" y="259" on="1"/>
        <pt x="35" y="274" on="0"/>
        <pt x="50" y="284" on="1"/>
        <pt x="53" y="285" on="0"/>
        <pt x="55" y="286" on="1"/>
        <pt x="75" y="290" on="1"/>
        <pt x="81" y="302" on="1"/>
        <pt x="139" y="412" on="0"/>
        <pt x="254" y="481" on="1"/>
        <pt x="343" y="534" on="0"/>
        <pt x="507" y="534" on="0"/>
        <pt x="538" y="504" on="1"/>
        <pt x="586" y="562" on="0"/>
        <pt x="594" y="550" on="1"/>
        <pt x="594" y="549" on="0"/>
        <pt x="594" y="545" on="0"/>
        <pt x="591" y="542" on="1"/>
        <pt x="568" y="524" on="0"/>
        <pt x="546" y="496" on="1"/>
        <pt x="562" y="475" on="0"/>
        <pt x="562" y="457" on="1"/>
        <pt x="562" y="404" on="0"/>
        <pt x="519" y="392" on="1"/>
        <pt x="512" y="390" on="0"/>
        <pt x="507" y="390" on="1"/>
        <pt x="490" y="390" on="0"/>
        <pt x="487" y="408" on="1"/>
        <pt x="483" y="429" on="0"/>
        <pt x="516" y="478" on="0"/>
        <pt x="526" y="488" on="1"/>
        <pt x="505" y="512" on="0"/>
        <pt x="351" y="512" on="0"/>
        <pt x="277" y="464" on="1"/>
        <pt x="185" y="404" on="0"/>
        <pt x="125" y="299" on="1"/>
        <pt x="141" y="301" on="0"/>
        <pt x="169" y="303" on="1"/>
        <pt x="248" y="442" on="0"/>
        <pt x="403" y="487" on="1"/>
        <pt x="407" y="488" on="0"/>
        <pt x="410" y="480" on="0"/>
        <pt x="406" y="479" on="1"/>
        <pt x="272" y="443" on="0"/>
        <pt x="190" y="304" on="1"/>
        <pt x="225" y="306" on="0"/>
        <pt x="444" y="306" on="1"/>
        <pt x="455" y="306" on="0"/>
        <pt x="456" y="293" on="0"/>
        <pt x="438" y="293" on="1"/>
        <pt x="299" y="293" on="0"/>
        <pt x="176" y="278" on="1"/>
        <pt x="128" y="182" on="0"/>
        <pt x="128" y="84" on="1"/>
        <pt x="128" y="47" on="0"/>
        <pt x="132" y="22" on="1"/>
        <pt x="144" y="10" on="0"/>
        <pt x="206" y="-21" on="0"/>
        <pt x="255" y="-21" on="1"/>
        <pt x="332" y="-21" on="0"/>
        <pt x="405" y="24" on="1"/>
        <pt x="393" y="75" on="0"/>
        <pt x="353" y="122" on="1"/>
        <pt x="292" y="86" on="0"/>
        <pt x="248" y="33" on="1"/>
        <pt x="241" y="25" on="0"/>
        <pt x="241" y="30" on="1"/>
        <pt x="241" y="38" on="0"/>
        <pt x="245" y="42" on="1"/>
        <pt x="281" y="82" on="0"/>
        <pt x="320" y="115" on="1"/>
        <pt x="341" y="131" on="0"/>
        <pt x="343" y="132" on="1"/>
        <pt x="285" y="190" on="0"/>
        <pt x="220" y="191" on="1"/>
        <pt x="217" y="191" on="0"/>
        <pt x="215" y="195" on="0"/>
        <pt x="218" y="199" on="0"/>
        <pt x="220" y="199" on="1"/>
        <pt x="289" y="197" on="0"/>
        <pt x="352" y="138" on="1"/>
        <pt x="418" y="179" on="0"/>
        <pt x="523" y="179" on="0"/>
        <pt x="523" y="132" on="1"/>
        <pt x="523" y="75" on="0"/>
      </contour>
      <contour>
        <pt x="407" y="4" on="1"/>
        <pt x="323" y="-42" on="0"/>
        <pt x="234" y="-42" on="1"/>
        <pt x="175" y="-42" on="0"/>
        <pt x="142" y="-25" on="1"/>
        <pt x="162" y="-96" on="0"/>
        <pt x="248" y="-162" on="0"/>
        <pt x="287" y="-162" on="1"/>
        <pt x="337" y="-162" on="0"/>
        <pt x="408" y="-74" on="0"/>
        <pt x="408" y="-6" on="1"/>
        <pt x="408" y="1" on="0"/>
      </contour>
      <contour>
        <pt x="418" y="32" on="1"/>
        <pt x="463" y="64" on="0"/>
        <pt x="504" y="126" on="0"/>
        <pt x="504" y="140" on="1"/>
        <pt x="504" y="168" on="0"/>
        <pt x="473" y="168" on="1"/>
        <pt x="435" y="168" on="0"/>
        <pt x="363" y="127" on="1"/>
        <pt x="405" y="82" on="0"/>
      </contour>
      <contour>
        <pt x="113" y="88" on="1"/>
        <pt x="113" y="184" on="0"/>
        <pt x="155" y="275" on="1"/>
        <pt x="109" y="268" on="1"/>
        <pt x="106" y="261" on="1"/>
        <pt x="79" y="206" on="0"/>
        <pt x="79" y="151" on="1"/>
        <pt x="79" y="85" on="0"/>
        <pt x="115" y="40" on="1"/>
        <pt x="113" y="70" on="0"/>
      </contour>
      <contour>
        <pt x="488" y="674" on="0"/>
        <pt x="504" y="674" on="0"/>
        <pt x="504" y="672" on="1"/>
        <pt x="534" y="586" on="1"/>
        <pt x="534" y="582" on="0"/>
        <pt x="532" y="581" on="1"/>
        <pt x="520" y="581" on="0"/>
        <pt x="517" y="586" on="1"/>
        <pt x="480" y="644" on="1"/>
        <pt x="372" y="586" on="1"/>
        <pt x="368" y="582" on="0"/>
        <pt x="358" y="582" on="1"/>
        <pt x="350" y="580" on="0"/>
        <pt x="350" y="584" on="1"/>
        <pt x="351" y="586" on="1"/>
        <pt x="473" y="672" on="1"/>
      </contour>
      <contour>
        <pt x="535" y="417" on="1"/>
        <pt x="541" y="431" on="0"/>
        <pt x="541" y="461" on="0"/>
        <pt x="533" y="478" on="1"/>
        <pt x="506" y="438" on="0"/>
        <pt x="506" y="410" on="1"/>
        <pt x="506" y="401" on="0"/>
        <pt x="526" y="401" on="0"/>
      </contour>
    </TTGlyph>
    <TTGlyph name="Edieresis" xMin="35" yMin="-171" xMax="595" yMax="621">
      <contour>
        <pt x="422" y="12" on="1"/>
        <pt x="423" y="-6" on="1"/>
        <pt x="423" y="-55" on="0"/>
        <pt x="405" y="-92" on="1"/>
        <pt x="368" y="-170" on="0"/>
        <pt x="288" y="-170" on="1"/>
        <pt x="218" y="-170" on="0"/>
        <pt x="168" y="-106" on="1"/>
        <pt x="140" y="-70" on="0"/>
        <pt x="126" y="-18" on="1"/>
        <pt x="35" y="29" on="0"/>
        <pt x="35" y="141" on="1"/>
        <pt x="35" y="195" on="0"/>
        <pt x="60" y="258" on="1"/>
        <pt x="54" y="257" on="0"/>
        <pt x="35" y="252" on="0"/>
        <pt x="35" y="259" on="1"/>
        <pt x="35" y="274" on="0"/>
        <pt x="50" y="284" on="1"/>
        <pt x="53" y="285" on="0"/>
        <pt x="55" y="286" on="1"/>
        <pt x="75" y="290" on="1"/>
        <pt x="81" y="302" on="1"/>
        <pt x="139" y="412" on="0"/>
        <pt x="254" y="481" on="1"/>
        <pt x="343" y="534" on="0"/>
        <pt x="507" y="534" on="0"/>
        <pt x="538" y="504" on="1"/>
        <pt x="586" y="562" on="0"/>
        <pt x="594" y="550" on="1"/>
        <pt x="594" y="549" on="0"/>
        <pt x="594" y="545" on="0"/>
        <pt x="591" y="542" on="1"/>
        <pt x="568" y="524" on="0"/>
        <pt x="546" y="496" on="1"/>
        <pt x="562" y="475" on="0"/>
        <pt x="562" y="457" on="1"/>
        <pt x="562" y="404" on="0"/>
        <pt x="519" y="392" on="1"/>
        <pt x="512" y="390" on="0"/>
        <pt x="507" y="390" on="1"/>
        <pt x="490" y="390" on="0"/>
        <pt x="487" y="408" on="1"/>
        <pt x="483" y="429" on="0"/>
        <pt x="516" y="478" on="0"/>
        <pt x="526" y="488" on="1"/>
        <pt x="505" y="512" on="0"/>
        <pt x="351" y="512" on="0"/>
        <pt x="277" y="464" on="1"/>
        <pt x="185" y="404" on="0"/>
        <pt x="125" y="299" on="1"/>
        <pt x="141" y="301" on="0"/>
        <pt x="169" y="303" on="1"/>
        <pt x="248" y="442" on="0"/>
        <pt x="403" y="487" on="1"/>
        <pt x="407" y="488" on="0"/>
        <pt x="410" y="480" on="0"/>
        <pt x="406" y="479" on="1"/>
        <pt x="272" y="443" on="0"/>
        <pt x="190" y="304" on="1"/>
        <pt x="225" y="306" on="0"/>
        <pt x="444" y="306" on="1"/>
        <pt x="455" y="306" on="0"/>
        <pt x="456" y="293" on="0"/>
        <pt x="438" y="293" on="1"/>
        <pt x="299" y="293" on="0"/>
        <pt x="176" y="278" on="1"/>
        <pt x="128" y="182" on="0"/>
        <pt x="128" y="84" on="1"/>
        <pt x="128" y="47" on="0"/>
        <pt x="132" y="22" on="1"/>
        <pt x="144" y="10" on="0"/>
        <pt x="206" y="-21" on="0"/>
        <pt x="255" y="-21" on="1"/>
        <pt x="332" y="-21" on="0"/>
        <pt x="405" y="24" on="1"/>
        <pt x="393" y="75" on="0"/>
        <pt x="353" y="122" on="1"/>
        <pt x="292" y="86" on="0"/>
        <pt x="248" y="33" on="1"/>
        <pt x="241" y="25" on="0"/>
        <pt x="241" y="30" on="1"/>
        <pt x="241" y="38" on="0"/>
        <pt x="245" y="42" on="1"/>
        <pt x="281" y="82" on="0"/>
        <pt x="320" y="115" on="1"/>
        <pt x="341" y="131" on="0"/>
        <pt x="343" y="132" on="1"/>
        <pt x="285" y="190" on="0"/>
        <pt x="220" y="191" on="1"/>
        <pt x="217" y="191" on="0"/>
        <pt x="215" y="195" on="0"/>
        <pt x="218" y="199" on="0"/>
        <pt x="220" y="199" on="1"/>
        <pt x="289" y="197" on="0"/>
        <pt x="352" y="138" on="1"/>
        <pt x="418" y="179" on="0"/>
        <pt x="523" y="179" on="0"/>
        <pt x="523" y="132" on="1"/>
        <pt x="523" y="75" on="0"/>
      </contour>
      <contour>
        <pt x="407" y="4" on="1"/>
        <pt x="323" y="-42" on="0"/>
        <pt x="234" y="-42" on="1"/>
        <pt x="175" y="-42" on="0"/>
        <pt x="142" y="-25" on="1"/>
        <pt x="162" y="-96" on="0"/>
        <pt x="248" y="-162" on="0"/>
        <pt x="287" y="-162" on="1"/>
        <pt x="337" y="-162" on="0"/>
        <pt x="408" y="-74" on="0"/>
        <pt x="408" y="-6" on="1"/>
        <pt x="408" y="1" on="0"/>
      </contour>
      <contour>
        <pt x="418" y="32" on="1"/>
        <pt x="463" y="64" on="0"/>
        <pt x="504" y="126" on="0"/>
        <pt x="504" y="140" on="1"/>
        <pt x="504" y="168" on="0"/>
        <pt x="473" y="168" on="1"/>
        <pt x="435" y="168" on="0"/>
        <pt x="363" y="127" on="1"/>
        <pt x="405" y="82" on="0"/>
      </contour>
      <contour>
        <pt x="113" y="88" on="1"/>
        <pt x="113" y="184" on="0"/>
        <pt x="155" y="275" on="1"/>
        <pt x="109" y="268" on="1"/>
        <pt x="106" y="261" on="1"/>
        <pt x="79" y="206" on="0"/>
        <pt x="79" y="151" on="1"/>
        <pt x="79" y="85" on="0"/>
        <pt x="115" y="40" on="1"/>
        <pt x="113" y="70" on="0"/>
      </contour>
      <contour>
        <pt x="535" y="417" on="1"/>
        <pt x="541" y="431" on="0"/>
        <pt x="541" y="461" on="0"/>
        <pt x="533" y="478" on="1"/>
        <pt x="508" y="441" on="0"/>
        <pt x="506" y="414" on="1"/>
        <pt x="504" y="401" on="0"/>
        <pt x="513" y="401" on="1"/>
        <pt x="526" y="401" on="0"/>
      </contour>
      <contour>
        <pt x="529" y="621" on="0"/>
        <pt x="529" y="577" on="0"/>
        <pt x="508" y="577" on="1"/>
        <pt x="485" y="577" on="0"/>
        <pt x="485" y="621" on="0"/>
      </contour>
      <contour>
        <pt x="443" y="621" on="0"/>
        <pt x="443" y="577" on="0"/>
        <pt x="422" y="577" on="1"/>
        <pt x="399" y="577" on="0"/>
        <pt x="399" y="621" on="0"/>
      </contour>
    </TTGlyph>
    <TTGlyph name="Egrave" xMin="35" yMin="-171" xMax="595" yMax="653">
      <contour>
        <pt x="422" y="12" on="1"/>
        <pt x="423" y="-6" on="1"/>
        <pt x="423" y="-55" on="0"/>
        <pt x="405" y="-92" on="1"/>
        <pt x="368" y="-170" on="0"/>
        <pt x="288" y="-170" on="1"/>
        <pt x="218" y="-170" on="0"/>
        <pt x="168" y="-106" on="1"/>
        <pt x="140" y="-70" on="0"/>
        <pt x="126" y="-18" on="1"/>
        <pt x="35" y="29" on="0"/>
        <pt x="35" y="141" on="1"/>
        <pt x="35" y="195" on="0"/>
        <pt x="60" y="258" on="1"/>
        <pt x="54" y="257" on="0"/>
        <pt x="35" y="252" on="0"/>
        <pt x="35" y="259" on="1"/>
        <pt x="35" y="274" on="0"/>
        <pt x="50" y="284" on="1"/>
        <pt x="53" y="285" on="0"/>
        <pt x="55" y="286" on="1"/>
        <pt x="75" y="290" on="1"/>
        <pt x="81" y="302" on="1"/>
        <pt x="139" y="412" on="0"/>
        <pt x="254" y="481" on="1"/>
        <pt x="343" y="534" on="0"/>
        <pt x="507" y="534" on="0"/>
        <pt x="538" y="504" on="1"/>
        <pt x="586" y="562" on="0"/>
        <pt x="594" y="550" on="1"/>
        <pt x="594" y="549" on="0"/>
        <pt x="594" y="545" on="0"/>
        <pt x="591" y="542" on="1"/>
        <pt x="568" y="524" on="0"/>
        <pt x="546" y="496" on="1"/>
        <pt x="562" y="475" on="0"/>
        <pt x="562" y="457" on="1"/>
        <pt x="562" y="404" on="0"/>
        <pt x="519" y="392" on="1"/>
        <pt x="512" y="390" on="0"/>
        <pt x="507" y="390" on="1"/>
        <pt x="490" y="390" on="0"/>
        <pt x="487" y="408" on="1"/>
        <pt x="483" y="429" on="0"/>
        <pt x="516" y="478" on="0"/>
        <pt x="526" y="488" on="1"/>
        <pt x="505" y="512" on="0"/>
        <pt x="351" y="512" on="0"/>
        <pt x="277" y="464" on="1"/>
        <pt x="185" y="404" on="0"/>
        <pt x="125" y="299" on="1"/>
        <pt x="141" y="301" on="0"/>
        <pt x="169" y="303" on="1"/>
        <pt x="248" y="442" on="0"/>
        <pt x="403" y="487" on="1"/>
        <pt x="407" y="488" on="0"/>
        <pt x="410" y="480" on="0"/>
        <pt x="406" y="479" on="1"/>
        <pt x="272" y="443" on="0"/>
        <pt x="190" y="304" on="1"/>
        <pt x="225" y="306" on="0"/>
        <pt x="444" y="306" on="1"/>
        <pt x="455" y="306" on="0"/>
        <pt x="456" y="293" on="0"/>
        <pt x="438" y="293" on="1"/>
        <pt x="299" y="293" on="0"/>
        <pt x="176" y="278" on="1"/>
        <pt x="128" y="182" on="0"/>
        <pt x="128" y="84" on="1"/>
        <pt x="128" y="47" on="0"/>
        <pt x="132" y="22" on="1"/>
        <pt x="144" y="10" on="0"/>
        <pt x="206" y="-21" on="0"/>
        <pt x="255" y="-21" on="1"/>
        <pt x="332" y="-21" on="0"/>
        <pt x="405" y="24" on="1"/>
        <pt x="393" y="75" on="0"/>
        <pt x="353" y="122" on="1"/>
        <pt x="292" y="86" on="0"/>
        <pt x="248" y="33" on="1"/>
        <pt x="241" y="25" on="0"/>
        <pt x="241" y="30" on="1"/>
        <pt x="241" y="38" on="0"/>
        <pt x="245" y="42" on="1"/>
        <pt x="281" y="82" on="0"/>
        <pt x="320" y="115" on="1"/>
        <pt x="341" y="131" on="0"/>
        <pt x="343" y="132" on="1"/>
        <pt x="285" y="190" on="0"/>
        <pt x="220" y="191" on="1"/>
        <pt x="217" y="191" on="0"/>
        <pt x="215" y="195" on="0"/>
        <pt x="218" y="199" on="0"/>
        <pt x="220" y="199" on="1"/>
        <pt x="289" y="197" on="0"/>
        <pt x="352" y="138" on="1"/>
        <pt x="418" y="179" on="0"/>
        <pt x="523" y="179" on="0"/>
        <pt x="523" y="132" on="1"/>
        <pt x="523" y="75" on="0"/>
      </contour>
      <contour>
        <pt x="407" y="4" on="1"/>
        <pt x="323" y="-42" on="0"/>
        <pt x="234" y="-42" on="1"/>
        <pt x="175" y="-42" on="0"/>
        <pt x="142" y="-25" on="1"/>
        <pt x="162" y="-96" on="0"/>
        <pt x="248" y="-162" on="0"/>
        <pt x="287" y="-162" on="1"/>
        <pt x="337" y="-162" on="0"/>
        <pt x="408" y="-74" on="0"/>
        <pt x="408" y="-6" on="1"/>
        <pt x="408" y="1" on="0"/>
      </contour>
      <contour>
        <pt x="418" y="32" on="1"/>
        <pt x="463" y="64" on="0"/>
        <pt x="504" y="126" on="0"/>
        <pt x="504" y="140" on="1"/>
        <pt x="504" y="168" on="0"/>
        <pt x="473" y="168" on="1"/>
        <pt x="435" y="168" on="0"/>
        <pt x="363" y="127" on="1"/>
        <pt x="405" y="82" on="0"/>
      </contour>
      <contour>
        <pt x="113" y="88" on="1"/>
        <pt x="113" y="184" on="0"/>
        <pt x="155" y="275" on="1"/>
        <pt x="109" y="268" on="1"/>
        <pt x="106" y="261" on="1"/>
        <pt x="79" y="206" on="0"/>
        <pt x="79" y="151" on="1"/>
        <pt x="79" y="85" on="0"/>
        <pt x="115" y="40" on="1"/>
        <pt x="113" y="70" on="0"/>
      </contour>
      <contour>
        <pt x="401" y="623" on="1"/>
        <pt x="395" y="629" on="0"/>
        <pt x="395" y="653" on="0"/>
        <pt x="404" y="653" on="1"/>
        <pt x="409" y="653" on="0"/>
        <pt x="425" y="640" on="0"/>
        <pt x="441" y="628" on="1"/>
        <pt x="467" y="610" on="0"/>
        <pt x="503" y="581" on="1"/>
        <pt x="507" y="578" on="0"/>
        <pt x="507" y="574" on="1"/>
        <pt x="507" y="567" on="0"/>
        <pt x="499" y="567" on="1"/>
        <pt x="487" y="567" on="0"/>
      </contour>
      <contour>
        <pt x="535" y="417" on="1"/>
        <pt x="541" y="431" on="0"/>
        <pt x="541" y="461" on="0"/>
        <pt x="533" y="478" on="1"/>
        <pt x="506" y="438" on="0"/>
        <pt x="506" y="410" on="1"/>
        <pt x="506" y="401" on="0"/>
        <pt x="526" y="401" on="0"/>
      </contour>
    </TTGlyph>
    <TTGlyph name="Eth" xMin="19" yMin="-170" xMax="748" yMax="592">
      <contour>
        <pt x="455" y="568" on="1"/>
        <pt x="481" y="568" on="0"/>
        <pt x="529" y="533" on="0"/>
        <pt x="529" y="520" on="0"/>
        <pt x="520" y="520" on="0"/>
        <pt x="517" y="524" on="0"/>
        <pt x="511" y="533" on="0"/>
        <pt x="506" y="536" on="1"/>
        <pt x="488" y="550" on="0"/>
        <pt x="463" y="550" on="0"/>
        <pt x="457" y="548" on="1"/>
        <pt x="440" y="545" on="0"/>
        <pt x="420" y="517" on="1"/>
        <pt x="516" y="509" on="0"/>
        <pt x="589" y="477" on="1"/>
        <pt x="727" y="417" on="0"/>
        <pt x="746" y="290" on="1"/>
        <pt x="747" y="277" on="0"/>
        <pt x="747" y="264" on="1"/>
        <pt x="747" y="218" on="0"/>
        <pt x="693" y="105" on="0"/>
        <pt x="561" y="-9" on="0"/>
        <pt x="458" y="-28" on="1"/>
        <pt x="431" y="-81" on="0"/>
        <pt x="353" y="-152" on="0"/>
        <pt x="294" y="-169" on="0"/>
        <pt x="275" y="-169" on="1"/>
        <pt x="213" y="-169" on="0"/>
        <pt x="182" y="-124" on="1"/>
        <pt x="148" y="-72" on="0"/>
        <pt x="148" y="6" on="1"/>
        <pt x="148" y="108" on="0"/>
        <pt x="212" y="272" on="1"/>
        <pt x="167" y="261" on="0"/>
        <pt x="91" y="261" on="0"/>
        <pt x="58" y="280" on="1"/>
        <pt x="19" y="302" on="0"/>
        <pt x="19" y="345" on="1"/>
        <pt x="19" y="375" on="0"/>
        <pt x="65" y="448" on="0"/>
        <pt x="118" y="474" on="1"/>
        <pt x="192" y="511" on="0"/>
        <pt x="319" y="519" on="1"/>
        <pt x="336" y="556" on="0"/>
        <pt x="341" y="591" on="0"/>
        <pt x="344" y="591" on="0"/>
        <pt x="348" y="585" on="0"/>
        <pt x="348" y="563" on="0"/>
        <pt x="331" y="519" on="1"/>
        <pt x="344" y="520" on="0"/>
        <pt x="370" y="520" on="0"/>
        <pt x="383" y="519" on="1"/>
        <pt x="417" y="568" on="0"/>
      </contour>
      <contour>
        <pt x="440" y="377" on="1"/>
        <pt x="506" y="296" on="0"/>
        <pt x="506" y="163" on="1"/>
        <pt x="506" y="99" on="0"/>
        <pt x="486" y="40" on="1"/>
        <pt x="475" y="9" on="1"/>
        <pt x="552" y="33" on="0"/>
        <pt x="664" y="135" on="0"/>
        <pt x="705" y="234" on="0"/>
        <pt x="705" y="261" on="1"/>
        <pt x="705" y="338" on="0"/>
        <pt x="656" y="400" on="1"/>
        <pt x="620" y="443" on="0"/>
        <pt x="493" y="500" on="0"/>
        <pt x="413" y="506" on="1"/>
        <pt x="392" y="475" on="0"/>
        <pt x="373" y="433" on="1"/>
        <pt x="404" y="417" on="0"/>
        <pt x="432" y="387" on="1"/>
        <pt x="476" y="414" on="0"/>
        <pt x="515" y="455" on="0"/>
        <pt x="515" y="442" on="0"/>
        <pt x="511" y="438" on="1"/>
        <pt x="482" y="408" on="0"/>
      </contour>
      <contour>
        <pt x="267" y="137" on="1"/>
        <pt x="296" y="154" on="0"/>
        <pt x="371" y="154" on="0"/>
        <pt x="473" y="142" on="0"/>
        <pt x="473" y="126" on="0"/>
        <pt x="391" y="124" on="0"/>
        <pt x="316" y="113" on="0"/>
        <pt x="267" y="110" on="0"/>
        <pt x="261" y="112" on="1"/>
        <pt x="240" y="32" on="0"/>
        <pt x="237" y="1" on="1"/>
        <pt x="242" y="6" on="0"/>
        <pt x="272" y="58" on="0"/>
        <pt x="280" y="71" on="0"/>
        <pt x="304" y="100" on="0"/>
        <pt x="311" y="105" on="1"/>
        <pt x="330" y="120" on="0"/>
        <pt x="337" y="114" on="1"/>
        <pt x="340" y="112" on="0"/>
        <pt x="336" y="109" on="1"/>
        <pt x="290" y="69" on="0"/>
        <pt x="290" y="41" on="1"/>
        <pt x="290" y="26" on="0"/>
        <pt x="304" y="14" on="1"/>
        <pt x="328" y="-7" on="0"/>
        <pt x="376" y="-7" on="1"/>
        <pt x="415" y="-7" on="0"/>
        <pt x="457" y="4" on="1"/>
        <pt x="489" y="74" on="0"/>
        <pt x="489" y="162" on="1"/>
        <pt x="489" y="289" on="0"/>
        <pt x="428" y="369" on="1"/>
        <pt x="377" y="335" on="0"/>
        <pt x="323" y="311" on="1"/>
        <pt x="288" y="213" on="0"/>
      </contour>
      <contour>
        <pt x="226" y="275" on="1"/>
        <pt x="188" y="171" on="0"/>
        <pt x="165" y="47" on="0"/>
        <pt x="165" y="11" on="1"/>
        <pt x="165" y="-97" on="0"/>
        <pt x="212" y="-132" on="1"/>
        <pt x="243" y="-154" on="0"/>
        <pt x="279" y="-154" on="1"/>
        <pt x="322" y="-154" on="0"/>
        <pt x="411" y="-86" on="0"/>
        <pt x="441" y="-31" on="1"/>
        <pt x="416" y="-34" on="0"/>
        <pt x="348" y="-34" on="0"/>
        <pt x="280" y="-4" on="0"/>
        <pt x="280" y="28" on="1"/>
        <pt x="280" y="40" on="0"/>
        <pt x="284" y="53" on="1"/>
        <pt x="263" y="33" on="0"/>
        <pt x="231" y="-29" on="1"/>
        <pt x="228" y="-32" on="0"/>
        <pt x="212" y="-27" on="0"/>
        <pt x="197" y="-8" on="0"/>
        <pt x="198" y="0" on="1"/>
        <pt x="207" y="105" on="0"/>
        <pt x="273" y="291" on="1"/>
        <pt x="241" y="279" on="0"/>
      </contour>
      <contour>
        <pt x="264" y="449" on="1"/>
        <pt x="210" y="449" on="0"/>
        <pt x="142" y="378" on="0"/>
        <pt x="142" y="351" on="1"/>
        <pt x="142" y="344" on="0"/>
        <pt x="145" y="333" on="0"/>
        <pt x="141" y="332" on="1"/>
        <pt x="134" y="330" on="0"/>
        <pt x="134" y="382" on="0"/>
        <pt x="203" y="457" on="0"/>
        <pt x="269" y="457" on="1"/>
        <pt x="286" y="457" on="0"/>
        <pt x="291" y="456" on="1"/>
        <pt x="314" y="506" on="1"/>
        <pt x="201" y="495" on="0"/>
        <pt x="75" y="421" on="0"/>
        <pt x="50" y="377" on="1"/>
        <pt x="37" y="355" on="0"/>
        <pt x="37" y="318" on="0"/>
        <pt x="49" y="304" on="1"/>
        <pt x="68" y="281" on="0"/>
        <pt x="117" y="281" on="1"/>
        <pt x="165" y="281" on="0"/>
        <pt x="222" y="298" on="1"/>
        <pt x="250" y="369" on="0"/>
        <pt x="287" y="448" on="1"/>
        <pt x="282" y="449" on="0"/>
      </contour>
      <contour>
        <pt x="297" y="447" on="1"/>
        <pt x="263" y="378" on="0"/>
        <pt x="235" y="302" on="1"/>
        <pt x="259" y="308" on="0"/>
        <pt x="283" y="317" on="1"/>
        <pt x="306" y="380" on="0"/>
        <pt x="335" y="437" on="1"/>
        <pt x="319" y="444" on="0"/>
      </contour>
      <contour>
        <pt x="420" y="379" on="1"/>
        <pt x="395" y="407" on="0"/>
        <pt x="368" y="422" on="1"/>
        <pt x="351" y="385" on="0"/>
        <pt x="333" y="336" on="1"/>
        <pt x="382" y="357" on="0"/>
      </contour>
      <contour>
        <pt x="325" y="507" on="1"/>
        <pt x="323" y="501" on="0"/>
        <pt x="301" y="455" on="1"/>
        <pt x="319" y="454" on="0"/>
        <pt x="339" y="447" on="1"/>
        <pt x="359" y="485" on="0"/>
        <pt x="375" y="508" on="1"/>
        <pt x="342" y="508" on="0"/>
      </contour>
    </TTGlyph>
    <TTGlyph name="Euro" xMin="70" yMin="-40" xMax="906" yMax="591">
      <contour>
        <pt x="99" y="236" on="1"/>
        <pt x="71" y="236" on="0"/>
        <pt x="71" y="246" on="1"/>
        <pt x="71" y="250" on="0"/>
        <pt x="88" y="263" on="0"/>
        <pt x="120" y="273" on="0"/>
        <pt x="178" y="275" on="1"/>
        <pt x="200" y="320" on="0"/>
        <pt x="224" y="351" on="1"/>
        <pt x="172" y="349" on="1"/>
        <pt x="168" y="349" on="0"/>
        <pt x="143" y="349" on="0"/>
        <pt x="132" y="360" on="0"/>
        <pt x="153" y="376" on="0"/>
        <pt x="191" y="387" on="0"/>
        <pt x="256" y="389" on="1"/>
        <pt x="344" y="479" on="0"/>
        <pt x="608" y="591" on="0"/>
        <pt x="748" y="591" on="1"/>
        <pt x="881" y="591" on="0"/>
        <pt x="902" y="509" on="1"/>
        <pt x="906" y="495" on="0"/>
        <pt x="906" y="484" on="1"/>
        <pt x="906" y="454" on="0"/>
        <pt x="879" y="403" on="0"/>
        <pt x="864" y="398" on="1"/>
        <pt x="852" y="394" on="0"/>
        <pt x="863" y="419" on="1"/>
        <pt x="875" y="446" on="0"/>
        <pt x="875" y="468" on="1"/>
        <pt x="875" y="514" on="0"/>
        <pt x="822" y="537" on="1"/>
        <pt x="780" y="556" on="0"/>
        <pt x="723" y="556" on="1"/>
        <pt x="630" y="556" on="0"/>
        <pt x="397" y="471" on="0"/>
        <pt x="307" y="389" on="1"/>
        <pt x="330" y="389" on="0"/>
        <pt x="438" y="389" on="0"/>
        <pt x="515" y="380" on="0"/>
        <pt x="529" y="369" on="0"/>
        <pt x="511" y="361" on="0"/>
        <pt x="419" y="359" on="0"/>
        <pt x="270" y="353" on="1"/>
        <pt x="235" y="313" on="0"/>
        <pt x="214" y="276" on="1"/>
        <pt x="244" y="276" on="0"/>
        <pt x="378" y="276" on="0"/>
        <pt x="450" y="267" on="0"/>
        <pt x="464" y="256" on="0"/>
        <pt x="446" y="248" on="0"/>
        <pt x="353" y="246" on="0"/>
        <pt x="196" y="240" on="1"/>
        <pt x="177" y="195" on="0"/>
        <pt x="177" y="111" on="0"/>
        <pt x="203" y="75" on="1"/>
        <pt x="239" y="27" on="0"/>
        <pt x="317" y="6" on="1"/>
        <pt x="370" y="-9" on="0"/>
        <pt x="467" y="-9" on="0"/>
        <pt x="501" y="-6" on="1"/>
        <pt x="715" y="12" on="0"/>
        <pt x="807" y="96" on="1"/>
        <pt x="819" y="108" on="0"/>
        <pt x="819" y="96" on="1"/>
        <pt x="818" y="89" on="0"/>
        <pt x="813" y="84" on="1"/>
        <pt x="715" y="-9" on="0"/>
        <pt x="503" y="-34" on="1"/>
        <pt x="464" y="-39" on="0"/>
        <pt x="364" y="-39" on="0"/>
        <pt x="310" y="-23" on="1"/>
        <pt x="225" y="2" on="0"/>
        <pt x="183" y="55" on="1"/>
        <pt x="151" y="97" on="0"/>
        <pt x="151" y="156" on="1"/>
        <pt x="151" y="193" on="0"/>
        <pt x="164" y="238" on="1"/>
        <pt x="107" y="236" on="1"/>
        <pt x="103" y="236" on="0"/>
      </contour>
    </TTGlyph>
    <TTGlyph name="F" xMin="24" yMin="-147" xMax="559" yMax="582">
      <contour>
        <pt x="280" y="336" on="1"/>
        <pt x="169" y="347" on="0"/>
        <pt x="98" y="396" on="1"/>
        <pt x="57" y="338" on="0"/>
        <pt x="57" y="294" on="1"/>
        <pt x="57" y="274" on="0"/>
        <pt x="65" y="257" on="1"/>
        <pt x="82" y="220" on="0"/>
        <pt x="125" y="220" on="1"/>
        <pt x="195" y="220" on="0"/>
        <pt x="258" y="303" on="1"/>
        <pt x="268" y="316" on="0"/>
      </contour>
      <contour>
        <pt x="310" y="562" on="1"/>
        <pt x="274" y="573" on="0"/>
        <pt x="189" y="573" on="0"/>
        <pt x="140" y="554" on="1"/>
        <pt x="61" y="524" on="0"/>
        <pt x="61" y="474" on="1"/>
        <pt x="61" y="451" on="0"/>
        <pt x="81" y="429" on="1"/>
        <pt x="164" y="529" on="0"/>
      </contour>
      <contour>
        <pt x="431" y="229" on="0"/>
        <pt x="454" y="229" on="1"/>
        <pt x="520" y="365" on="0"/>
        <pt x="520" y="444" on="1"/>
        <pt x="520" y="497" on="0"/>
        <pt x="454" y="557" on="0"/>
        <pt x="395" y="557" on="1"/>
        <pt x="377" y="557" on="0"/>
        <pt x="357" y="554" on="1"/>
        <pt x="449" y="504" on="0"/>
        <pt x="449" y="384" on="1"/>
        <pt x="449" y="302" on="0"/>
        <pt x="420" y="228" on="1"/>
      </contour>
      <contour>
        <pt x="493" y="228" on="1"/>
        <pt x="559" y="223" on="0"/>
        <pt x="559" y="214" on="1"/>
        <pt x="559" y="212" on="0"/>
        <pt x="550" y="203" on="0"/>
        <pt x="519" y="212" on="0"/>
        <pt x="484" y="212" on="1"/>
        <pt x="416" y="87" on="0"/>
        <pt x="222" y="-121" on="0"/>
        <pt x="142" y="-146" on="1"/>
        <pt x="140" y="-147" on="0"/>
        <pt x="136" y="-147" on="0"/>
        <pt x="131" y="-141" on="0"/>
        <pt x="132" y="-132" on="0"/>
        <pt x="137" y="-130" on="1"/>
        <pt x="211" y="-106" on="0"/>
        <pt x="383" y="89" on="0"/>
        <pt x="445" y="211" on="1"/>
        <pt x="423" y="209" on="0"/>
        <pt x="411" y="207" on="1"/>
        <pt x="388" y="154" on="0"/>
        <pt x="333" y="85" on="0"/>
        <pt x="305" y="51" on="0"/>
        <pt x="256" y="3" on="0"/>
        <pt x="244" y="-8" on="1"/>
        <pt x="182" y="-65" on="0"/>
        <pt x="167" y="-78" on="0"/>
        <pt x="167" y="-71" on="1"/>
        <pt x="167" y="-68" on="0"/>
        <pt x="173" y="-62" on="0"/>
        <pt x="218" y="-21" on="0"/>
        <pt x="239" y="0" on="0"/>
        <pt x="283" y="45" on="0"/>
        <pt x="312" y="80" on="0"/>
        <pt x="330" y="104" on="1"/>
        <pt x="366" y="152" on="0"/>
        <pt x="390" y="204" on="1"/>
        <pt x="297" y="186" on="0"/>
        <pt x="128" y="105" on="0"/>
        <pt x="94" y="55" on="1"/>
        <pt x="91" y="50" on="0"/>
        <pt x="85" y="73" on="0"/>
        <pt x="85" y="90" on="0"/>
        <pt x="88" y="95" on="1"/>
        <pt x="123" y="148" on="0"/>
        <pt x="300" y="217" on="0"/>
        <pt x="400" y="226" on="1"/>
        <pt x="432" y="304" on="0"/>
        <pt x="432" y="386" on="1"/>
        <pt x="432" y="506" on="0"/>
        <pt x="338" y="551" on="1"/>
        <pt x="273" y="537" on="0"/>
        <pt x="146" y="460" on="0"/>
        <pt x="106" y="407" on="1"/>
        <pt x="180" y="357" on="0"/>
        <pt x="285" y="344" on="1"/>
        <pt x="316" y="397" on="0"/>
        <pt x="338" y="468" on="1"/>
        <pt x="340" y="476" on="0"/>
        <pt x="351" y="467" on="0"/>
        <pt x="348" y="459" on="1"/>
        <pt x="328" y="392" on="0"/>
        <pt x="303" y="342" on="1"/>
        <pt x="339" y="340" on="0"/>
        <pt x="359" y="340" on="0"/>
        <pt x="360" y="338" on="1"/>
        <pt x="363" y="332" on="0"/>
        <pt x="356" y="332" on="1"/>
        <pt x="319" y="332" on="0"/>
        <pt x="299" y="334" on="1"/>
        <pt x="287" y="311" on="0"/>
        <pt x="270" y="289" on="1"/>
        <pt x="204" y="198" on="0"/>
        <pt x="122" y="198" on="1"/>
        <pt x="66" y="198" on="0"/>
        <pt x="39" y="244" on="1"/>
        <pt x="24" y="269" on="0"/>
        <pt x="24" y="305" on="1"/>
        <pt x="24" y="357" on="0"/>
        <pt x="72" y="417" on="1"/>
        <pt x="42" y="445" on="0"/>
        <pt x="42" y="498" on="0"/>
        <pt x="66" y="523" on="1"/>
        <pt x="113" y="570" on="0"/>
        <pt x="206" y="580" on="1"/>
        <pt x="224" y="582" on="0"/>
        <pt x="289" y="582" on="0"/>
        <pt x="332" y="566" on="1"/>
        <pt x="361" y="571" on="0"/>
        <pt x="394" y="571" on="1"/>
        <pt x="499" y="571" on="0"/>
        <pt x="541" y="497" on="1"/>
        <pt x="557" y="468" on="0"/>
        <pt x="557" y="430" on="1"/>
        <pt x="557" y="355" on="0"/>
      </contour>
    </TTGlyph>
    <TTGlyph name="G" xMin="25" yMin="-326" xMax="619" yMax="562">
      <contour>
        <pt x="102" y="86" on="1"/>
        <pt x="127" y="13" on="0"/>
        <pt x="280" y="13" on="0"/>
        <pt x="363" y="76" on="1"/>
        <pt x="336" y="136" on="0"/>
        <pt x="279" y="136" on="1"/>
        <pt x="265" y="136" on="0"/>
        <pt x="240" y="131" on="0"/>
        <pt x="212" y="102" on="0"/>
        <pt x="212" y="84" on="0"/>
        <pt x="210" y="82" on="1"/>
        <pt x="204" y="78" on="0"/>
        <pt x="204" y="87" on="1"/>
        <pt x="204" y="105" on="0"/>
        <pt x="237" y="139" on="0"/>
        <pt x="266" y="145" on="0"/>
        <pt x="282" y="145" on="1"/>
        <pt x="343" y="145" on="0"/>
        <pt x="374" y="84" on="1"/>
        <pt x="480" y="169" on="0"/>
        <pt x="551" y="306" on="1"/>
        <pt x="561" y="321" on="0"/>
        <pt x="567" y="316" on="1"/>
        <pt x="576" y="317" on="0"/>
        <pt x="591" y="310" on="0"/>
        <pt x="590" y="304" on="1"/>
        <pt x="574" y="175" on="0"/>
        <pt x="525" y="34" on="1"/>
        <pt x="547" y="36" on="0"/>
        <pt x="572" y="36" on="0"/>
        <pt x="574" y="26" on="0"/>
        <pt x="568" y="24" on="1"/>
        <pt x="561" y="23" on="1"/>
        <pt x="541" y="23" on="0"/>
        <pt x="520" y="20" on="1"/>
        <pt x="492" y="-60" on="0"/>
        <pt x="457" y="-128" on="1"/>
        <pt x="398" y="-240" on="0"/>
        <pt x="301" y="-296" on="1"/>
        <pt x="251" y="-325" on="0"/>
        <pt x="217" y="-325" on="1"/>
        <pt x="202" y="-325" on="0"/>
        <pt x="190" y="-319" on="1"/>
        <pt x="169" y="-309" on="0"/>
        <pt x="169" y="-254" on="0"/>
        <pt x="199" y="-204" on="1"/>
        <pt x="140" y="-197" on="0"/>
        <pt x="73" y="-100" on="0"/>
        <pt x="73" y="-30" on="1"/>
        <pt x="73" y="-15" on="0"/>
        <pt x="74" y="1" on="1"/>
        <pt x="78" y="32" on="1"/>
        <pt x="47" y="71" on="0"/>
        <pt x="47" y="211" on="0"/>
        <pt x="87" y="280" on="1"/>
        <pt x="26" y="320" on="0"/>
        <pt x="26" y="394" on="1"/>
        <pt x="26" y="424" on="0"/>
        <pt x="57" y="496" on="0"/>
        <pt x="143" y="561" on="0"/>
        <pt x="195" y="562" on="1"/>
        <pt x="207" y="562" on="0"/>
        <pt x="208" y="556" on="1"/>
        <pt x="210" y="550" on="0"/>
        <pt x="201" y="549" on="1"/>
        <pt x="156" y="549" on="0"/>
        <pt x="117" y="520" on="1"/>
        <pt x="46" y="467" on="0"/>
        <pt x="46" y="398" on="1"/>
        <pt x="46" y="334" on="0"/>
        <pt x="100" y="301" on="1"/>
        <pt x="148" y="374" on="0"/>
        <pt x="303" y="496" on="0"/>
        <pt x="389" y="528" on="1"/>
        <pt x="444" y="549" on="0"/>
        <pt x="492" y="549" on="1"/>
        <pt x="584" y="549" on="0"/>
        <pt x="612" y="496" on="1"/>
        <pt x="618" y="485" on="0"/>
        <pt x="618" y="453" on="0"/>
        <pt x="608" y="430" on="1"/>
        <pt x="590" y="391" on="0"/>
        <pt x="487" y="302" on="0"/>
        <pt x="326" y="240" on="0"/>
        <pt x="253" y="240" on="1"/>
        <pt x="213" y="240" on="0"/>
        <pt x="173" y="247" on="1"/>
        <pt x="126" y="169" on="0"/>
      </contour>
      <contour>
        <pt x="521" y="497" on="1"/>
        <pt x="425" y="497" on="0"/>
        <pt x="253" y="372" on="0"/>
        <pt x="188" y="272" on="1"/>
        <pt x="213" y="268" on="0"/>
        <pt x="249" y="268" on="1"/>
        <pt x="387" y="268" on="0"/>
        <pt x="509" y="354" on="1"/>
        <pt x="560" y="390" on="0"/>
        <pt x="595" y="449" on="0"/>
        <pt x="595" y="462" on="1"/>
        <pt x="595" y="500" on="0"/>
        <pt x="556" y="522" on="1"/>
        <pt x="532" y="534" on="0"/>
        <pt x="495" y="534" on="1"/>
        <pt x="446" y="534" on="0"/>
        <pt x="313" y="482" on="0"/>
        <pt x="170" y="358" on="0"/>
        <pt x="130" y="286" on="1"/>
        <pt x="151" y="278" on="0"/>
        <pt x="176" y="274" on="1"/>
        <pt x="242" y="377" on="0"/>
        <pt x="420" y="505" on="0"/>
        <pt x="521" y="505" on="1"/>
        <pt x="525" y="505" on="0"/>
        <pt x="525" y="497" on="0"/>
      </contour>
      <contour>
        <pt x="367" y="65" on="1"/>
        <pt x="266" y="-13" on="0"/>
        <pt x="183" y="-13" on="1"/>
        <pt x="122" y="-13" on="0"/>
        <pt x="87" y="22" on="1"/>
        <pt x="83" y="-9" on="0"/>
        <pt x="83" y="-35" on="1"/>
        <pt x="83" y="-100" on="0"/>
        <pt x="112" y="-141" on="1"/>
        <pt x="147" y="-192" on="0"/>
        <pt x="204" y="-196" on="1"/>
        <pt x="221" y="-169" on="0"/>
        <pt x="250" y="-134" on="1"/>
        <pt x="309" y="-63" on="0"/>
        <pt x="376" y="-20" on="1"/>
        <pt x="377" y="-8" on="0"/>
        <pt x="377" y="37" on="0"/>
      </contour>
      <contour>
        <pt x="227" y="-204" on="1"/>
        <pt x="197" y="-258" on="0"/>
        <pt x="197" y="-314" on="0"/>
        <pt x="256" y="-314" on="0"/>
        <pt x="304" y="-278" on="1"/>
        <pt x="376" y="-223" on="0"/>
        <pt x="452" y="-69" on="0"/>
        <pt x="477" y="10" on="1"/>
        <pt x="432" y="-4" on="0"/>
        <pt x="389" y="-31" on="1"/>
        <pt x="388" y="-36" on="1"/>
        <pt x="375" y="-111" on="0"/>
        <pt x="283" y="-199" on="0"/>
      </contour>
      <contour>
        <pt x="475" y="152" on="0"/>
        <pt x="379" y="74" on="1"/>
        <pt x="392" y="42" on="0"/>
        <pt x="392" y="-2" on="0"/>
        <pt x="391" y="-10" on="1"/>
        <pt x="436" y="16" on="0"/>
        <pt x="483" y="27" on="1"/>
        <pt x="520" y="147" on="0"/>
        <pt x="545" y="267" on="1"/>
      </contour>
      <contour>
        <pt x="372" y="-42" on="1"/>
        <pt x="299" y="-93" on="0"/>
        <pt x="248" y="-169" on="1"/>
        <pt x="232" y="-195" on="1"/>
        <pt x="280" y="-187" on="0"/>
        <pt x="358" y="-109" on="0"/>
        <pt x="372" y="-46" on="1"/>
      </contour>
      <contour>
        <pt x="118" y="263" on="1"/>
        <pt x="92" y="208" on="0"/>
        <pt x="92" y="125" on="0"/>
        <pt x="96" y="105" on="1"/>
        <pt x="120" y="180" on="0"/>
        <pt x="161" y="250" on="1"/>
        <pt x="143" y="253" on="0"/>
      </contour>
    </TTGlyph>
    <TTGlyph name="H" xMin="11" yMin="-46" xMax="882" yMax="610">
      <contour>
        <pt x="660" y="32" on="1"/>
        <pt x="650" y="54" on="0"/>
        <pt x="650" y="137" on="0"/>
        <pt x="656" y="191" on="1"/>
        <pt x="586" y="186" on="0"/>
        <pt x="495" y="186" on="1"/>
        <pt x="448" y="114" on="0"/>
        <pt x="289" y="-5" on="0"/>
        <pt x="209" y="-31" on="1"/>
        <pt x="167" y="-45" on="0"/>
        <pt x="119" y="-45" on="0"/>
        <pt x="108" y="-44" on="1"/>
        <pt x="65" y="-39" on="0"/>
        <pt x="12" y="13" on="0"/>
        <pt x="12" y="51" on="1"/>
        <pt x="12" y="94" on="0"/>
        <pt x="69" y="155" on="0"/>
        <pt x="112" y="170" on="1"/>
        <pt x="194" y="197" on="0"/>
        <pt x="417" y="205" on="1"/>
        <pt x="438" y="247" on="1"/>
        <pt x="414" y="244" on="0"/>
        <pt x="390" y="244" on="1"/>
        <pt x="319" y="247" on="0"/>
        <pt x="268" y="290" on="1"/>
        <pt x="191" y="356" on="0"/>
        <pt x="191" y="452" on="1"/>
        <pt x="191" y="545" on="0"/>
        <pt x="253" y="586" on="1"/>
        <pt x="289" y="610" on="0"/>
        <pt x="346" y="610" on="0"/>
        <pt x="408" y="588" on="0"/>
        <pt x="436" y="550" on="1"/>
        <pt x="442" y="541" on="1"/>
        <pt x="457" y="549" on="0"/>
        <pt x="492" y="549" on="0"/>
        <pt x="511" y="535" on="1"/>
        <pt x="545" y="510" on="0"/>
        <pt x="553" y="450" on="1"/>
        <pt x="556" y="429" on="0"/>
        <pt x="556" y="355" on="0"/>
        <pt x="539" y="296" on="1"/>
        <pt x="594" y="335" on="0"/>
        <pt x="620" y="391" on="1"/>
        <pt x="622" y="396" on="0"/>
        <pt x="629" y="390" on="0"/>
        <pt x="627" y="387" on="1"/>
        <pt x="597" y="323" on="0"/>
        <pt x="536" y="284" on="1"/>
        <pt x="525" y="250" on="0"/>
        <pt x="505" y="207" on="1"/>
        <pt x="614" y="209" on="0"/>
        <pt x="659" y="211" on="1"/>
        <pt x="676" y="305" on="0"/>
        <pt x="732" y="424" on="1"/>
        <pt x="759" y="483" on="0"/>
        <pt x="829" y="558" on="0"/>
        <pt x="882" y="558" on="0"/>
        <pt x="882" y="550" on="1"/>
        <pt x="882" y="546" on="0"/>
        <pt x="865" y="548" on="0"/>
        <pt x="863" y="548" on="1"/>
        <pt x="828" y="548" on="0"/>
        <pt x="751" y="417" on="0"/>
        <pt x="703" y="264" on="0"/>
        <pt x="695" y="213" on="1"/>
        <pt x="741" y="218" on="0"/>
        <pt x="766" y="234" on="0"/>
        <pt x="765" y="227" on="1"/>
        <pt x="764" y="207" on="0"/>
        <pt x="692" y="195" on="1"/>
        <pt x="686" y="151" on="0"/>
        <pt x="686" y="118" on="1"/>
        <pt x="686" y="39" on="0"/>
        <pt x="718" y="19" on="1"/>
        <pt x="726" y="13" on="0"/>
        <pt x="754" y="13" on="0"/>
        <pt x="815" y="46" on="0"/>
        <pt x="834" y="78" on="1"/>
        <pt x="847" y="98" on="0"/>
        <pt x="847" y="86" on="1"/>
        <pt x="847" y="55" on="0"/>
        <pt x="781" y="14" on="1"/>
        <pt x="744" y="-10" on="0"/>
        <pt x="718" y="-10" on="1"/>
        <pt x="681" y="-10" on="0"/>
      </contour>
      <contour>
        <pt x="441" y="256" on="1"/>
        <pt x="470" y="327" on="0"/>
        <pt x="470" y="458" on="0"/>
        <pt x="440" y="517" on="1"/>
        <pt x="400" y="470" on="0"/>
        <pt x="400" y="336" on="1"/>
        <pt x="400" y="329" on="0"/>
        <pt x="396" y="329" on="1"/>
        <pt x="390" y="330" on="0"/>
        <pt x="388" y="338" on="1"/>
        <pt x="383" y="372" on="0"/>
        <pt x="383" y="401" on="1"/>
        <pt x="383" y="493" on="0"/>
        <pt x="430" y="533" on="1"/>
        <pt x="423" y="542" on="1"/>
        <pt x="379" y="600" on="0"/>
        <pt x="320" y="600" on="1"/>
        <pt x="290" y="600" on="0"/>
        <pt x="254" y="577" on="1"/>
        <pt x="205" y="544" on="0"/>
        <pt x="205" y="459" on="1"/>
        <pt x="205" y="363" on="0"/>
        <pt x="279" y="297" on="1"/>
        <pt x="326" y="255" on="0"/>
        <pt x="391" y="252" on="1"/>
        <pt x="420" y="252" on="0"/>
      </contour>
      <contour>
        <pt x="453" y="189" on="0"/>
        <pt x="431" y="189" on="0"/>
        <pt x="418" y="188" on="1"/>
        <pt x="363" y="100" on="0"/>
        <pt x="280" y="49" on="1"/>
        <pt x="213" y="8" on="0"/>
        <pt x="144" y="8" on="1"/>
        <pt x="110" y="8" on="0"/>
        <pt x="108" y="11" on="1"/>
        <pt x="106" y="18" on="0"/>
        <pt x="112" y="18" on="1"/>
        <pt x="128" y="16" on="0"/>
        <pt x="145" y="16" on="1"/>
        <pt x="211" y="16" on="0"/>
        <pt x="274" y="54" on="1"/>
        <pt x="353" y="103" on="0"/>
        <pt x="406" y="188" on="1"/>
        <pt x="331" y="185" on="0"/>
        <pt x="156" y="159" on="0"/>
        <pt x="107" y="143" on="1"/>
        <pt x="24" y="116" on="0"/>
        <pt x="24" y="60" on="1"/>
        <pt x="24" y="28" on="0"/>
        <pt x="84" y="-13" on="0"/>
        <pt x="140" y="-20" on="0"/>
        <pt x="155" y="-20" on="1"/>
        <pt x="316" y="-20" on="0"/>
        <pt x="463" y="188" on="1"/>
      </contour>
      <contour>
        <pt x="451" y="527" on="1"/>
        <pt x="485" y="469" on="0"/>
        <pt x="485" y="334" on="0"/>
        <pt x="454" y="258" on="1"/>
        <pt x="482" y="265" on="0"/>
        <pt x="496" y="272" on="1"/>
        <pt x="522" y="352" on="0"/>
        <pt x="522" y="421" on="1"/>
        <pt x="522" y="495" on="0"/>
        <pt x="495" y="522" on="1"/>
        <pt x="483" y="534" on="0"/>
        <pt x="461" y="534" on="0"/>
      </contour>
      <contour>
        <pt x="493" y="262" on="1"/>
        <pt x="465" y="252" on="0"/>
        <pt x="450" y="249" on="1"/>
        <pt x="441" y="227" on="0"/>
        <pt x="428" y="205" on="1"/>
        <pt x="443" y="206" on="0"/>
        <pt x="471" y="206" on="1"/>
        <pt x="484" y="234" on="0"/>
      </contour>
    </TTGlyph>
    <TTGlyph name="I" xMin="-30" yMin="-128" xMax="516" yMax="596">
      <contour>
        <pt x="265" y="502" on="1"/>
        <pt x="233" y="588" on="0"/>
        <pt x="158" y="588" on="1"/>
        <pt x="107" y="588" on="0"/>
        <pt x="19" y="480" on="0"/>
        <pt x="19" y="389" on="1"/>
        <pt x="19" y="362" on="0"/>
        <pt x="23" y="331" on="1"/>
        <pt x="38" y="227" on="0"/>
        <pt x="151" y="139" on="0"/>
        <pt x="216" y="139" on="1"/>
        <pt x="225" y="139" on="0"/>
        <pt x="235" y="140" on="1"/>
        <pt x="282" y="276" on="0"/>
        <pt x="282" y="386" on="1"/>
        <pt x="282" y="433" on="0"/>
        <pt x="272" y="480" on="1"/>
        <pt x="147" y="467" on="0"/>
        <pt x="105" y="409" on="1"/>
        <pt x="90" y="389" on="0"/>
        <pt x="90" y="347" on="0"/>
        <pt x="141" y="296" on="0"/>
        <pt x="203" y="285" on="1"/>
        <pt x="210" y="283" on="0"/>
        <pt x="200" y="274" on="0"/>
        <pt x="193" y="276" on="1"/>
        <pt x="127" y="296" on="0"/>
        <pt x="56" y="351" on="0"/>
        <pt x="56" y="406" on="0"/>
        <pt x="101" y="457" on="0"/>
        <pt x="200" y="495" on="0"/>
      </contour>
      <contour>
        <pt x="295" y="482" on="1"/>
        <pt x="306" y="443" on="0"/>
        <pt x="306" y="393" on="1"/>
        <pt x="306" y="284" on="0"/>
        <pt x="254" y="143" on="1"/>
        <pt x="274" y="147" on="0"/>
        <pt x="288" y="153" on="1"/>
        <pt x="316" y="238" on="0"/>
        <pt x="353" y="430" on="0"/>
        <pt x="354" y="482" on="1"/>
        <pt x="338" y="483" on="0"/>
        <pt x="308" y="483" on="0"/>
      </contour>
      <contour>
        <pt x="197" y="23" on="1"/>
        <pt x="207" y="23" on="0"/>
        <pt x="229" y="21" on="1"/>
        <pt x="259" y="67" on="0"/>
        <pt x="284" y="140" on="1"/>
        <pt x="271" y="136" on="0"/>
        <pt x="249" y="132" on="1"/>
        <pt x="230" y="79" on="0"/>
      </contour>
      <contour>
        <pt x="183" y="0" on="1"/>
        <pt x="182" y="0" on="1"/>
        <pt x="171" y="-18" on="0"/>
        <pt x="155" y="-37" on="1"/>
        <pt x="183" y="-37" on="0"/>
        <pt x="214" y="-1" on="1"/>
        <pt x="203" y="0" on="0"/>
      </contour>
      <contour>
        <pt x="261" y="18" on="1"/>
        <pt x="329" y="10" on="0"/>
        <pt x="410" y="-9" on="0"/>
        <pt x="433" y="-9" on="0"/>
        <pt x="433" y="-4" on="1"/>
        <pt x="433" y="4" on="0"/>
        <pt x="404" y="22" on="1"/>
        <pt x="400" y="25" on="0"/>
        <pt x="406" y="28" on="0"/>
        <pt x="409" y="27" on="1"/>
        <pt x="436" y="16" on="0"/>
        <pt x="443" y="-3" on="1"/>
        <pt x="444" y="-7" on="0"/>
        <pt x="444" y="-10" on="1"/>
        <pt x="444" y="-24" on="0"/>
        <pt x="417" y="-24" on="1"/>
        <pt x="404" y="-24" on="0"/>
        <pt x="312" y="-6" on="0"/>
        <pt x="247" y="-2" on="1"/>
        <pt x="205" y="-55" on="0"/>
        <pt x="170" y="-55" on="1"/>
        <pt x="158" y="-55" on="0"/>
        <pt x="144" y="-50" on="1"/>
        <pt x="74" y="-127" on="0"/>
        <pt x="12" y="-127" on="1"/>
        <pt x="-12" y="-127" on="0"/>
        <pt x="-28" y="-109" on="1"/>
        <pt x="-29" y="-107" on="0"/>
        <pt x="-29" y="-103" on="0"/>
        <pt x="-23" y="-101" on="0"/>
        <pt x="-22" y="-103" on="1"/>
        <pt x="-9" y="-120" on="0"/>
        <pt x="36" y="-120" on="0"/>
        <pt x="104" y="-83" on="0"/>
        <pt x="135" y="-46" on="1"/>
        <pt x="103" y="-32" on="0"/>
        <pt x="96" y="-15" on="1"/>
        <pt x="94" y="-7" on="0"/>
        <pt x="104" y="-7" on="0"/>
        <pt x="107" y="-11" on="0"/>
        <pt x="110" y="-16" on="1"/>
        <pt x="120" y="-31" on="0"/>
        <pt x="143" y="-36" on="1"/>
        <pt x="159" y="-17" on="0"/>
        <pt x="169" y="0" on="1"/>
        <pt x="28" y="-3" on="0"/>
        <pt x="28" y="-47" on="1"/>
        <pt x="28" y="-57" on="0"/>
        <pt x="48" y="-82" on="0"/>
        <pt x="66" y="-93" on="0"/>
        <pt x="48" y="-95" on="0"/>
        <pt x="42" y="-91" on="1"/>
        <pt x="1" y="-63" on="0"/>
        <pt x="1" y="-40" on="1"/>
        <pt x="1" y="24" on="0"/>
        <pt x="173" y="24" on="1"/>
        <pt x="180" y="24" on="0"/>
        <pt x="183" y="23" on="1"/>
        <pt x="210" y="69" on="0"/>
        <pt x="232" y="130" on="1"/>
        <pt x="224" y="129" on="0"/>
        <pt x="216" y="129" on="1"/>
        <pt x="145" y="129" on="0"/>
        <pt x="83" y="179" on="1"/>
        <pt x="3" y="242" on="0"/>
        <pt x="3" y="387" on="1"/>
        <pt x="3" y="490" on="0"/>
        <pt x="61" y="550" on="1"/>
        <pt x="106" y="596" on="0"/>
        <pt x="161" y="596" on="1"/>
        <pt x="250" y="596" on="0"/>
        <pt x="288" y="504" on="1"/>
        <pt x="326" y="504" on="1"/>
        <pt x="354" y="504" on="0"/>
        <pt x="366" y="505" on="1"/>
        <pt x="382" y="520" on="1"/>
        <pt x="390" y="526" on="0"/>
        <pt x="395" y="526" on="1"/>
        <pt x="405" y="526" on="0"/>
        <pt x="406" y="506" on="1"/>
        <pt x="410" y="506" on="0"/>
        <pt x="418" y="505" on="1"/>
        <pt x="515" y="501" on="0"/>
        <pt x="515" y="484" on="1"/>
        <pt x="515" y="478" on="0"/>
        <pt x="493" y="482" on="0"/>
        <pt x="484" y="482" on="1"/>
        <pt x="402" y="483" on="1"/>
        <pt x="377" y="312" on="0"/>
        <pt x="332" y="176" on="1"/>
        <pt x="383" y="212" on="0"/>
        <pt x="393" y="266" on="1"/>
        <pt x="394" y="271" on="0"/>
        <pt x="401" y="265" on="0"/>
        <pt x="400" y="262" on="1"/>
        <pt x="384" y="197" on="0"/>
        <pt x="327" y="161" on="1"/>
        <pt x="296" y="72" on="0"/>
      </contour>
    </TTGlyph>
    <TTGlyph name="IJ" xMin="-30" yMin="-293" xMax="1011" yMax="596">
      <contour>
        <pt x="484" y="482" on="1"/>
        <pt x="402" y="483" on="1"/>
        <pt x="377" y="312" on="0"/>
        <pt x="332" y="176" on="1"/>
        <pt x="383" y="212" on="0"/>
        <pt x="393" y="266" on="1"/>
        <pt x="394" y="271" on="0"/>
        <pt x="401" y="265" on="0"/>
        <pt x="400" y="262" on="1"/>
        <pt x="384" y="197" on="0"/>
        <pt x="327" y="161" on="1"/>
        <pt x="296" y="72" on="0"/>
        <pt x="261" y="18" on="1"/>
        <pt x="329" y="10" on="0"/>
        <pt x="391" y="-5" on="1"/>
        <pt x="405" y="-8" on="1"/>
        <pt x="418" y="4" on="1"/>
        <pt x="423" y="8" on="1"/>
        <pt x="411" y="18" on="0"/>
        <pt x="400" y="25" on="0"/>
        <pt x="403" y="27" on="1"/>
        <pt x="409" y="30" on="0"/>
        <pt x="429" y="14" on="1"/>
        <pt x="546" y="113" on="0"/>
        <pt x="722" y="152" on="1"/>
        <pt x="735" y="210" on="0"/>
        <pt x="735" y="260" on="1"/>
        <pt x="735" y="354" on="0"/>
        <pt x="689" y="415" on="1"/>
        <pt x="674" y="433" on="0"/>
        <pt x="662" y="444" on="1"/>
        <pt x="577" y="405" on="0"/>
        <pt x="577" y="341" on="1"/>
        <pt x="577" y="325" on="0"/>
        <pt x="584" y="311" on="1"/>
        <pt x="599" y="279" on="0"/>
        <pt x="670" y="231" on="0"/>
        <pt x="713" y="228" on="1"/>
        <pt x="721" y="227" on="0"/>
        <pt x="710" y="215" on="0"/>
        <pt x="702" y="216" on="1"/>
        <pt x="634" y="229" on="0"/>
        <pt x="593" y="258" on="1"/>
        <pt x="543" y="294" on="0"/>
        <pt x="543" y="339" on="1"/>
        <pt x="543" y="366" on="0"/>
        <pt x="585" y="431" on="0"/>
        <pt x="640" y="459" on="1"/>
        <pt x="614" y="473" on="0"/>
        <pt x="555" y="473" on="0"/>
        <pt x="485" y="426" on="0"/>
        <pt x="470" y="378" on="1"/>
        <pt x="462" y="348" on="0"/>
        <pt x="462" y="325" on="1"/>
        <pt x="462" y="251" on="0"/>
        <pt x="507" y="202" on="1"/>
        <pt x="540" y="167" on="0"/>
        <pt x="589" y="165" on="1"/>
        <pt x="604" y="164" on="0"/>
        <pt x="602" y="158" on="0"/>
        <pt x="588" y="159" on="1"/>
        <pt x="517" y="162" on="0"/>
        <pt x="478" y="220" on="1"/>
        <pt x="448" y="264" on="0"/>
        <pt x="448" y="317" on="1"/>
        <pt x="448" y="410" on="0"/>
        <pt x="519" y="458" on="1"/>
        <pt x="557" y="483" on="0"/>
        <pt x="624" y="483" on="0"/>
        <pt x="654" y="466" on="1"/>
        <pt x="675" y="475" on="0"/>
        <pt x="748" y="497" on="0"/>
        <pt x="842" y="503" on="1"/>
        <pt x="862" y="505" on="1"/>
        <pt x="869" y="511" on="0"/>
        <pt x="874" y="515" on="1"/>
        <pt x="885" y="525" on="0"/>
        <pt x="901" y="525" on="0"/>
        <pt x="901" y="515" on="1"/>
        <pt x="901" y="508" on="1"/>
        <pt x="901" y="506" on="0"/>
        <pt x="902" y="506" on="1"/>
        <pt x="1010" y="501" on="0"/>
        <pt x="1010" y="484" on="1"/>
        <pt x="1010" y="478" on="0"/>
        <pt x="988" y="482" on="0"/>
        <pt x="979" y="482" on="1"/>
        <pt x="898" y="483" on="1"/>
        <pt x="880" y="338" on="0"/>
        <pt x="819" y="168" on="1"/>
        <pt x="863" y="171" on="1"/>
        <pt x="884" y="173" on="0"/>
        <pt x="886" y="169" on="1"/>
        <pt x="890" y="161" on="0"/>
        <pt x="869" y="160" on="1"/>
        <pt x="842" y="158" on="0"/>
        <pt x="815" y="154" on="1"/>
        <pt x="705" y="-151" on="0"/>
        <pt x="571" y="-234" on="1"/>
        <pt x="476" y="-293" on="0"/>
        <pt x="404" y="-293" on="1"/>
        <pt x="350" y="-293" on="0"/>
        <pt x="322" y="-254" on="1"/>
        <pt x="304" y="-229" on="0"/>
        <pt x="304" y="-157" on="0"/>
        <pt x="349" y="-65" on="0"/>
        <pt x="392" y="-21" on="1"/>
        <pt x="389" y="-20" on="0"/>
        <pt x="312" y="-6" on="0"/>
        <pt x="247" y="-2" on="1"/>
        <pt x="205" y="-55" on="0"/>
        <pt x="170" y="-55" on="1"/>
        <pt x="158" y="-55" on="0"/>
        <pt x="144" y="-50" on="1"/>
        <pt x="74" y="-127" on="0"/>
        <pt x="12" y="-127" on="1"/>
        <pt x="-12" y="-127" on="0"/>
        <pt x="-28" y="-109" on="1"/>
        <pt x="-29" y="-107" on="0"/>
        <pt x="-29" y="-103" on="0"/>
        <pt x="-23" y="-101" on="0"/>
        <pt x="-22" y="-103" on="1"/>
        <pt x="-9" y="-120" on="0"/>
        <pt x="36" y="-120" on="0"/>
        <pt x="104" y="-83" on="0"/>
        <pt x="135" y="-46" on="1"/>
        <pt x="103" y="-32" on="0"/>
        <pt x="96" y="-15" on="1"/>
        <pt x="94" y="-7" on="0"/>
        <pt x="104" y="-7" on="0"/>
        <pt x="107" y="-11" on="0"/>
        <pt x="110" y="-16" on="1"/>
        <pt x="120" y="-31" on="0"/>
        <pt x="143" y="-36" on="1"/>
        <pt x="159" y="-17" on="0"/>
        <pt x="169" y="0" on="1"/>
        <pt x="28" y="-3" on="0"/>
        <pt x="28" y="-47" on="1"/>
        <pt x="28" y="-57" on="0"/>
        <pt x="48" y="-82" on="0"/>
        <pt x="66" y="-93" on="0"/>
        <pt x="48" y="-95" on="0"/>
        <pt x="42" y="-91" on="1"/>
        <pt x="1" y="-63" on="0"/>
        <pt x="1" y="-40" on="1"/>
        <pt x="1" y="24" on="0"/>
        <pt x="173" y="24" on="1"/>
        <pt x="180" y="24" on="0"/>
        <pt x="183" y="23" on="1"/>
        <pt x="210" y="69" on="0"/>
        <pt x="232" y="130" on="1"/>
        <pt x="224" y="129" on="0"/>
        <pt x="216" y="129" on="1"/>
        <pt x="145" y="129" on="0"/>
        <pt x="83" y="179" on="1"/>
        <pt x="3" y="242" on="0"/>
        <pt x="3" y="387" on="1"/>
        <pt x="3" y="490" on="0"/>
        <pt x="61" y="550" on="1"/>
        <pt x="106" y="596" on="0"/>
        <pt x="161" y="596" on="1"/>
        <pt x="250" y="596" on="0"/>
        <pt x="288" y="504" on="1"/>
        <pt x="326" y="504" on="1"/>
        <pt x="354" y="504" on="0"/>
        <pt x="366" y="505" on="1"/>
        <pt x="382" y="520" on="1"/>
        <pt x="390" y="526" on="0"/>
        <pt x="395" y="526" on="1"/>
        <pt x="405" y="526" on="0"/>
        <pt x="406" y="506" on="1"/>
        <pt x="410" y="506" on="0"/>
        <pt x="418" y="505" on="1"/>
        <pt x="511" y="502" on="0"/>
        <pt x="515" y="488" on="1"/>
        <pt x="516" y="481" on="0"/>
        <pt x="512" y="479" on="0"/>
        <pt x="493" y="482" on="0"/>
      </contour>
      <contour>
        <pt x="387" y="-243" on="1"/>
        <pt x="361" y="-243" on="0"/>
        <pt x="358" y="-237" on="0"/>
        <pt x="361" y="-233" on="0"/>
        <pt x="376" y="-235" on="0"/>
        <pt x="388" y="-235" on="1"/>
        <pt x="449" y="-235" on="0"/>
        <pt x="585" y="-138" on="0"/>
        <pt x="693" y="36" on="0"/>
        <pt x="718" y="135" on="1"/>
        <pt x="547" y="90" on="0"/>
        <pt x="443" y="-5" on="1"/>
        <pt x="446" y="-20" on="0"/>
        <pt x="425" y="-23" on="1"/>
        <pt x="421" y="-27" on="0"/>
        <pt x="420" y="-29" on="1"/>
        <pt x="375" y="-77" on="0"/>
        <pt x="351" y="-122" on="1"/>
        <pt x="325" y="-169" on="0"/>
        <pt x="325" y="-231" on="0"/>
        <pt x="341" y="-250" on="1"/>
        <pt x="361" y="-274" on="0"/>
        <pt x="394" y="-274" on="1"/>
        <pt x="468" y="-274" on="0"/>
        <pt x="558" y="-212" on="1"/>
        <pt x="674" y="-131" on="0"/>
        <pt x="772" y="147" on="1"/>
        <pt x="755" y="145" on="0"/>
        <pt x="731" y="139" on="1"/>
        <pt x="705" y="37" on="0"/>
        <pt x="593" y="-143" on="0"/>
        <pt x="450" y="-243" on="0"/>
      </contour>
      <contour>
        <pt x="265" y="502" on="1"/>
        <pt x="233" y="588" on="0"/>
        <pt x="158" y="588" on="1"/>
        <pt x="107" y="588" on="0"/>
        <pt x="19" y="480" on="0"/>
        <pt x="19" y="389" on="1"/>
        <pt x="19" y="362" on="0"/>
        <pt x="23" y="331" on="1"/>
        <pt x="38" y="227" on="0"/>
        <pt x="151" y="139" on="0"/>
        <pt x="216" y="139" on="1"/>
        <pt x="225" y="139" on="0"/>
        <pt x="235" y="140" on="1"/>
        <pt x="282" y="276" on="0"/>
        <pt x="282" y="386" on="1"/>
        <pt x="282" y="433" on="0"/>
        <pt x="272" y="480" on="1"/>
        <pt x="147" y="467" on="0"/>
        <pt x="105" y="409" on="1"/>
        <pt x="90" y="389" on="0"/>
        <pt x="90" y="347" on="0"/>
        <pt x="141" y="296" on="0"/>
        <pt x="203" y="285" on="1"/>
        <pt x="210" y="283" on="0"/>
        <pt x="200" y="274" on="0"/>
        <pt x="193" y="276" on="1"/>
        <pt x="127" y="296" on="0"/>
        <pt x="56" y="351" on="0"/>
        <pt x="56" y="406" on="0"/>
        <pt x="101" y="457" on="0"/>
        <pt x="200" y="495" on="0"/>
      </contour>
      <contour>
        <pt x="749" y="266" on="1"/>
        <pt x="749" y="215" on="0"/>
        <pt x="735" y="155" on="1"/>
        <pt x="777" y="162" on="1"/>
        <pt x="839" y="351" on="0"/>
        <pt x="851" y="481" on="1"/>
        <pt x="757" y="474" on="0"/>
        <pt x="706" y="461" on="0"/>
        <pt x="677" y="450" on="1"/>
        <pt x="694" y="433" on="0"/>
        <pt x="702" y="422" on="1"/>
        <pt x="749" y="360" on="0"/>
      </contour>
      <contour>
        <pt x="295" y="482" on="1"/>
        <pt x="306" y="443" on="0"/>
        <pt x="306" y="393" on="1"/>
        <pt x="306" y="284" on="0"/>
        <pt x="254" y="143" on="1"/>
        <pt x="274" y="147" on="0"/>
        <pt x="288" y="153" on="1"/>
        <pt x="316" y="238" on="0"/>
        <pt x="353" y="430" on="0"/>
        <pt x="354" y="482" on="1"/>
        <pt x="338" y="483" on="0"/>
        <pt x="308" y="483" on="0"/>
      </contour>
      <contour>
        <pt x="197" y="23" on="1"/>
        <pt x="207" y="23" on="0"/>
        <pt x="229" y="21" on="1"/>
        <pt x="259" y="67" on="0"/>
        <pt x="284" y="140" on="1"/>
        <pt x="271" y="136" on="0"/>
        <pt x="249" y="132" on="1"/>
        <pt x="230" y="79" on="0"/>
      </contour>
      <contour>
        <pt x="203" y="0" on="0"/>
        <pt x="183" y="0" on="1"/>
        <pt x="182" y="0" on="1"/>
        <pt x="171" y="-18" on="0"/>
        <pt x="155" y="-37" on="1"/>
        <pt x="183" y="-37" on="0"/>
        <pt x="214" y="-1" on="1"/>
      </contour>
    </TTGlyph>
    <TTGlyph name="Iacute" xMin="-30" yMin="-128" xMax="516" yMax="646">
      <contour>
        <pt x="265" y="502" on="1"/>
        <pt x="233" y="588" on="0"/>
        <pt x="158" y="588" on="1"/>
        <pt x="107" y="588" on="0"/>
        <pt x="19" y="480" on="0"/>
        <pt x="19" y="389" on="1"/>
        <pt x="19" y="362" on="0"/>
        <pt x="23" y="331" on="1"/>
        <pt x="38" y="227" on="0"/>
        <pt x="151" y="139" on="0"/>
        <pt x="216" y="139" on="1"/>
        <pt x="225" y="139" on="0"/>
        <pt x="235" y="140" on="1"/>
        <pt x="282" y="276" on="0"/>
        <pt x="282" y="386" on="1"/>
        <pt x="282" y="433" on="0"/>
        <pt x="272" y="480" on="1"/>
        <pt x="147" y="467" on="0"/>
        <pt x="105" y="409" on="1"/>
        <pt x="90" y="389" on="0"/>
        <pt x="90" y="347" on="0"/>
        <pt x="141" y="296" on="0"/>
        <pt x="203" y="285" on="1"/>
        <pt x="210" y="283" on="0"/>
        <pt x="200" y="274" on="0"/>
        <pt x="193" y="276" on="1"/>
        <pt x="127" y="296" on="0"/>
        <pt x="56" y="351" on="0"/>
        <pt x="56" y="406" on="0"/>
        <pt x="101" y="457" on="0"/>
        <pt x="200" y="495" on="0"/>
      </contour>
      <contour>
        <pt x="295" y="482" on="1"/>
        <pt x="306" y="443" on="0"/>
        <pt x="306" y="393" on="1"/>
        <pt x="306" y="284" on="0"/>
        <pt x="254" y="143" on="1"/>
        <pt x="274" y="147" on="0"/>
        <pt x="288" y="153" on="1"/>
        <pt x="316" y="238" on="0"/>
        <pt x="353" y="430" on="0"/>
        <pt x="354" y="482" on="1"/>
        <pt x="338" y="483" on="0"/>
        <pt x="308" y="483" on="0"/>
      </contour>
      <contour>
        <pt x="197" y="23" on="1"/>
        <pt x="207" y="23" on="0"/>
        <pt x="229" y="21" on="1"/>
        <pt x="259" y="67" on="0"/>
        <pt x="284" y="140" on="1"/>
        <pt x="271" y="136" on="0"/>
        <pt x="249" y="132" on="1"/>
        <pt x="230" y="79" on="0"/>
      </contour>
      <contour>
        <pt x="183" y="0" on="1"/>
        <pt x="182" y="0" on="1"/>
        <pt x="171" y="-18" on="0"/>
        <pt x="155" y="-37" on="1"/>
        <pt x="183" y="-37" on="0"/>
        <pt x="214" y="-1" on="1"/>
        <pt x="203" y="0" on="0"/>
      </contour>
      <contour>
        <pt x="261" y="18" on="1"/>
        <pt x="329" y="10" on="0"/>
        <pt x="410" y="-9" on="0"/>
        <pt x="433" y="-9" on="0"/>
        <pt x="433" y="-4" on="1"/>
        <pt x="433" y="4" on="0"/>
        <pt x="404" y="22" on="1"/>
        <pt x="400" y="25" on="0"/>
        <pt x="406" y="28" on="0"/>
        <pt x="409" y="27" on="1"/>
        <pt x="436" y="16" on="0"/>
        <pt x="443" y="-3" on="1"/>
        <pt x="444" y="-7" on="0"/>
        <pt x="444" y="-10" on="1"/>
        <pt x="444" y="-24" on="0"/>
        <pt x="417" y="-24" on="1"/>
        <pt x="404" y="-24" on="0"/>
        <pt x="312" y="-6" on="0"/>
        <pt x="247" y="-2" on="1"/>
        <pt x="205" y="-55" on="0"/>
        <pt x="170" y="-55" on="1"/>
        <pt x="158" y="-55" on="0"/>
        <pt x="144" y="-50" on="1"/>
        <pt x="74" y="-127" on="0"/>
        <pt x="12" y="-127" on="1"/>
        <pt x="-12" y="-127" on="0"/>
        <pt x="-28" y="-109" on="1"/>
        <pt x="-29" y="-107" on="0"/>
        <pt x="-29" y="-103" on="0"/>
        <pt x="-23" y="-101" on="0"/>
        <pt x="-22" y="-103" on="1"/>
        <pt x="-9" y="-120" on="0"/>
        <pt x="36" y="-120" on="0"/>
        <pt x="104" y="-83" on="0"/>
        <pt x="135" y="-46" on="1"/>
        <pt x="103" y="-32" on="0"/>
        <pt x="96" y="-15" on="1"/>
        <pt x="94" y="-7" on="0"/>
        <pt x="104" y="-7" on="0"/>
        <pt x="107" y="-11" on="0"/>
        <pt x="110" y="-16" on="1"/>
        <pt x="120" y="-31" on="0"/>
        <pt x="143" y="-36" on="1"/>
        <pt x="159" y="-17" on="0"/>
        <pt x="169" y="0" on="1"/>
        <pt x="28" y="-3" on="0"/>
        <pt x="28" y="-47" on="1"/>
        <pt x="28" y="-57" on="0"/>
        <pt x="48" y="-82" on="0"/>
        <pt x="66" y="-93" on="0"/>
        <pt x="48" y="-95" on="0"/>
        <pt x="42" y="-91" on="1"/>
        <pt x="1" y="-63" on="0"/>
        <pt x="1" y="-40" on="1"/>
        <pt x="1" y="24" on="0"/>
        <pt x="173" y="24" on="1"/>
        <pt x="180" y="24" on="0"/>
        <pt x="183" y="23" on="1"/>
        <pt x="210" y="69" on="0"/>
        <pt x="232" y="130" on="1"/>
        <pt x="224" y="129" on="0"/>
        <pt x="216" y="129" on="1"/>
        <pt x="145" y="129" on="0"/>
        <pt x="83" y="179" on="1"/>
        <pt x="3" y="242" on="0"/>
        <pt x="3" y="387" on="1"/>
        <pt x="3" y="490" on="0"/>
        <pt x="61" y="550" on="1"/>
        <pt x="106" y="596" on="0"/>
        <pt x="161" y="596" on="1"/>
        <pt x="250" y="596" on="0"/>
        <pt x="288" y="504" on="1"/>
        <pt x="326" y="504" on="1"/>
        <pt x="354" y="504" on="0"/>
        <pt x="366" y="505" on="1"/>
        <pt x="382" y="520" on="1"/>
        <pt x="390" y="526" on="0"/>
        <pt x="395" y="526" on="1"/>
        <pt x="405" y="526" on="0"/>
        <pt x="406" y="506" on="1"/>
        <pt x="410" y="506" on="0"/>
        <pt x="418" y="505" on="1"/>
        <pt x="515" y="501" on="0"/>
        <pt x="515" y="484" on="1"/>
        <pt x="515" y="478" on="0"/>
        <pt x="493" y="482" on="0"/>
        <pt x="484" y="482" on="1"/>
        <pt x="402" y="483" on="1"/>
        <pt x="377" y="312" on="0"/>
        <pt x="332" y="176" on="1"/>
        <pt x="383" y="212" on="0"/>
        <pt x="393" y="266" on="1"/>
        <pt x="394" y="271" on="0"/>
        <pt x="401" y="265" on="0"/>
        <pt x="400" y="262" on="1"/>
        <pt x="384" y="197" on="0"/>
        <pt x="327" y="161" on="1"/>
        <pt x="296" y="72" on="0"/>
      </contour>
      <contour>
        <pt x="399" y="585" on="0"/>
        <pt x="460" y="631" on="0"/>
        <pt x="481" y="646" on="0"/>
        <pt x="514" y="646" on="0"/>
        <pt x="514" y="633" on="1"/>
        <pt x="514" y="630" on="0"/>
        <pt x="507" y="618" on="0"/>
        <pt x="396" y="566" on="0"/>
        <pt x="384" y="566" on="0"/>
        <pt x="384" y="573" on="0"/>
        <pt x="385" y="575" on="1"/>
      </contour>
    </TTGlyph>
    <TTGlyph name="Icircumflex" xMin="-30" yMin="-128" xMax="516" yMax="641">
      <contour>
        <pt x="265" y="502" on="1"/>
        <pt x="233" y="588" on="0"/>
        <pt x="158" y="588" on="1"/>
        <pt x="107" y="588" on="0"/>
        <pt x="19" y="480" on="0"/>
        <pt x="19" y="389" on="1"/>
        <pt x="19" y="362" on="0"/>
        <pt x="23" y="331" on="1"/>
        <pt x="38" y="227" on="0"/>
        <pt x="151" y="139" on="0"/>
        <pt x="216" y="139" on="1"/>
        <pt x="225" y="139" on="0"/>
        <pt x="235" y="140" on="1"/>
        <pt x="282" y="276" on="0"/>
        <pt x="282" y="386" on="1"/>
        <pt x="282" y="433" on="0"/>
        <pt x="272" y="480" on="1"/>
        <pt x="147" y="467" on="0"/>
        <pt x="105" y="409" on="1"/>
        <pt x="90" y="389" on="0"/>
        <pt x="90" y="347" on="0"/>
        <pt x="141" y="296" on="0"/>
        <pt x="203" y="285" on="1"/>
        <pt x="210" y="283" on="0"/>
        <pt x="200" y="274" on="0"/>
        <pt x="193" y="276" on="1"/>
        <pt x="127" y="296" on="0"/>
        <pt x="56" y="351" on="0"/>
        <pt x="56" y="406" on="0"/>
        <pt x="101" y="457" on="0"/>
        <pt x="200" y="495" on="0"/>
      </contour>
      <contour>
        <pt x="295" y="482" on="1"/>
        <pt x="306" y="443" on="0"/>
        <pt x="306" y="393" on="1"/>
        <pt x="306" y="284" on="0"/>
        <pt x="254" y="143" on="1"/>
        <pt x="274" y="147" on="0"/>
        <pt x="288" y="153" on="1"/>
        <pt x="316" y="238" on="0"/>
        <pt x="353" y="430" on="0"/>
        <pt x="354" y="482" on="1"/>
        <pt x="338" y="483" on="0"/>
        <pt x="308" y="483" on="0"/>
      </contour>
      <contour>
        <pt x="197" y="23" on="1"/>
        <pt x="207" y="23" on="0"/>
        <pt x="229" y="21" on="1"/>
        <pt x="259" y="67" on="0"/>
        <pt x="284" y="140" on="1"/>
        <pt x="271" y="136" on="0"/>
        <pt x="249" y="132" on="1"/>
        <pt x="230" y="79" on="0"/>
      </contour>
      <contour>
        <pt x="183" y="0" on="1"/>
        <pt x="182" y="0" on="1"/>
        <pt x="171" y="-18" on="0"/>
        <pt x="155" y="-37" on="1"/>
        <pt x="183" y="-37" on="0"/>
        <pt x="214" y="-1" on="1"/>
        <pt x="203" y="0" on="0"/>
      </contour>
      <contour>
        <pt x="261" y="18" on="1"/>
        <pt x="329" y="10" on="0"/>
        <pt x="410" y="-9" on="0"/>
        <pt x="433" y="-9" on="0"/>
        <pt x="433" y="-4" on="1"/>
        <pt x="433" y="4" on="0"/>
        <pt x="404" y="22" on="1"/>
        <pt x="400" y="25" on="0"/>
        <pt x="406" y="28" on="0"/>
        <pt x="409" y="27" on="1"/>
        <pt x="436" y="16" on="0"/>
        <pt x="443" y="-3" on="1"/>
        <pt x="444" y="-7" on="0"/>
        <pt x="444" y="-10" on="1"/>
        <pt x="444" y="-24" on="0"/>
        <pt x="417" y="-24" on="1"/>
        <pt x="404" y="-24" on="0"/>
        <pt x="312" y="-6" on="0"/>
        <pt x="247" y="-2" on="1"/>
        <pt x="205" y="-55" on="0"/>
        <pt x="170" y="-55" on="1"/>
        <pt x="158" y="-55" on="0"/>
        <pt x="144" y="-50" on="1"/>
        <pt x="74" y="-127" on="0"/>
        <pt x="12" y="-127" on="1"/>
        <pt x="-12" y="-127" on="0"/>
        <pt x="-28" y="-109" on="1"/>
        <pt x="-29" y="-107" on="0"/>
        <pt x="-29" y="-103" on="0"/>
        <pt x="-23" y="-101" on="0"/>
        <pt x="-22" y="-103" on="1"/>
        <pt x="-9" y="-120" on="0"/>
        <pt x="36" y="-120" on="0"/>
        <pt x="104" y="-83" on="0"/>
        <pt x="135" y="-46" on="1"/>
        <pt x="103" y="-32" on="0"/>
        <pt x="96" y="-15" on="1"/>
        <pt x="94" y="-7" on="0"/>
        <pt x="104" y="-7" on="0"/>
        <pt x="107" y="-11" on="0"/>
        <pt x="110" y="-16" on="1"/>
        <pt x="120" y="-31" on="0"/>
        <pt x="143" y="-36" on="1"/>
        <pt x="159" y="-17" on="0"/>
        <pt x="169" y="0" on="1"/>
        <pt x="28" y="-3" on="0"/>
        <pt x="28" y="-47" on="1"/>
        <pt x="28" y="-57" on="0"/>
        <pt x="48" y="-82" on="0"/>
        <pt x="66" y="-93" on="0"/>
        <pt x="48" y="-95" on="0"/>
        <pt x="42" y="-91" on="1"/>
        <pt x="1" y="-63" on="0"/>
        <pt x="1" y="-40" on="1"/>
        <pt x="1" y="24" on="0"/>
        <pt x="173" y="24" on="1"/>
        <pt x="180" y="24" on="0"/>
        <pt x="183" y="23" on="1"/>
        <pt x="210" y="69" on="0"/>
        <pt x="232" y="130" on="1"/>
        <pt x="224" y="129" on="0"/>
        <pt x="216" y="129" on="1"/>
        <pt x="145" y="129" on="0"/>
        <pt x="83" y="179" on="1"/>
        <pt x="3" y="242" on="0"/>
        <pt x="3" y="387" on="1"/>
        <pt x="3" y="490" on="0"/>
        <pt x="61" y="550" on="1"/>
        <pt x="106" y="596" on="0"/>
        <pt x="161" y="596" on="1"/>
        <pt x="250" y="596" on="0"/>
        <pt x="288" y="504" on="1"/>
        <pt x="326" y="504" on="1"/>
        <pt x="354" y="504" on="0"/>
        <pt x="366" y="505" on="1"/>
        <pt x="382" y="520" on="1"/>
        <pt x="390" y="526" on="0"/>
        <pt x="395" y="526" on="1"/>
        <pt x="405" y="526" on="0"/>
        <pt x="406" y="506" on="1"/>
        <pt x="410" y="506" on="0"/>
        <pt x="418" y="505" on="1"/>
        <pt x="515" y="501" on="0"/>
        <pt x="515" y="484" on="1"/>
        <pt x="515" y="478" on="0"/>
        <pt x="493" y="482" on="0"/>
        <pt x="484" y="482" on="1"/>
        <pt x="402" y="483" on="1"/>
        <pt x="377" y="312" on="0"/>
        <pt x="332" y="176" on="1"/>
        <pt x="383" y="212" on="0"/>
        <pt x="393" y="266" on="1"/>
        <pt x="394" y="271" on="0"/>
        <pt x="401" y="265" on="0"/>
        <pt x="400" y="262" on="1"/>
        <pt x="384" y="197" on="0"/>
        <pt x="327" y="161" on="1"/>
        <pt x="296" y="72" on="0"/>
      </contour>
      <contour>
        <pt x="304" y="549" on="1"/>
        <pt x="296" y="547" on="0"/>
        <pt x="296" y="552" on="0"/>
        <pt x="297" y="552" on="0"/>
        <pt x="297" y="553" on="1"/>
        <pt x="419" y="639" on="1"/>
        <pt x="434" y="641" on="0"/>
        <pt x="450" y="641" on="0"/>
        <pt x="450" y="639" on="1"/>
        <pt x="480" y="553" on="1"/>
        <pt x="480" y="549" on="0"/>
        <pt x="478" y="548" on="1"/>
        <pt x="466" y="548" on="0"/>
        <pt x="463" y="553" on="1"/>
        <pt x="426" y="611" on="1"/>
        <pt x="318" y="553" on="1"/>
        <pt x="314" y="549" on="0"/>
      </contour>
    </TTGlyph>
    <TTGlyph name="Idieresis" xMin="-30" yMin="-128" xMax="516" yMax="605">
      <contour>
        <pt x="265" y="502" on="1"/>
        <pt x="233" y="588" on="0"/>
        <pt x="158" y="588" on="1"/>
        <pt x="107" y="588" on="0"/>
        <pt x="19" y="480" on="0"/>
        <pt x="19" y="389" on="1"/>
        <pt x="19" y="362" on="0"/>
        <pt x="23" y="331" on="1"/>
        <pt x="38" y="227" on="0"/>
        <pt x="151" y="139" on="0"/>
        <pt x="216" y="139" on="1"/>
        <pt x="225" y="139" on="0"/>
        <pt x="235" y="140" on="1"/>
        <pt x="282" y="276" on="0"/>
        <pt x="282" y="386" on="1"/>
        <pt x="282" y="433" on="0"/>
        <pt x="272" y="480" on="1"/>
        <pt x="147" y="467" on="0"/>
        <pt x="105" y="409" on="1"/>
        <pt x="90" y="389" on="0"/>
        <pt x="90" y="347" on="0"/>
        <pt x="141" y="296" on="0"/>
        <pt x="203" y="285" on="1"/>
        <pt x="210" y="283" on="0"/>
        <pt x="200" y="274" on="0"/>
        <pt x="193" y="276" on="1"/>
        <pt x="127" y="296" on="0"/>
        <pt x="56" y="351" on="0"/>
        <pt x="56" y="406" on="0"/>
        <pt x="101" y="457" on="0"/>
        <pt x="200" y="495" on="0"/>
      </contour>
      <contour>
        <pt x="295" y="482" on="1"/>
        <pt x="306" y="443" on="0"/>
        <pt x="306" y="393" on="1"/>
        <pt x="306" y="284" on="0"/>
        <pt x="254" y="143" on="1"/>
        <pt x="274" y="147" on="0"/>
        <pt x="288" y="153" on="1"/>
        <pt x="316" y="238" on="0"/>
        <pt x="353" y="430" on="0"/>
        <pt x="354" y="482" on="1"/>
        <pt x="338" y="483" on="0"/>
        <pt x="308" y="483" on="0"/>
      </contour>
      <contour>
        <pt x="197" y="23" on="1"/>
        <pt x="207" y="23" on="0"/>
        <pt x="229" y="21" on="1"/>
        <pt x="259" y="67" on="0"/>
        <pt x="284" y="140" on="1"/>
        <pt x="271" y="136" on="0"/>
        <pt x="249" y="132" on="1"/>
        <pt x="230" y="79" on="0"/>
      </contour>
      <contour>
        <pt x="183" y="0" on="1"/>
        <pt x="182" y="0" on="1"/>
        <pt x="171" y="-18" on="0"/>
        <pt x="155" y="-37" on="1"/>
        <pt x="183" y="-37" on="0"/>
        <pt x="214" y="-1" on="1"/>
        <pt x="203" y="0" on="0"/>
      </contour>
      <contour>
        <pt x="261" y="18" on="1"/>
        <pt x="329" y="10" on="0"/>
        <pt x="410" y="-9" on="0"/>
        <pt x="433" y="-9" on="0"/>
        <pt x="433" y="-4" on="1"/>
        <pt x="433" y="4" on="0"/>
        <pt x="404" y="22" on="1"/>
        <pt x="400" y="25" on="0"/>
        <pt x="406" y="28" on="0"/>
        <pt x="409" y="27" on="1"/>
        <pt x="436" y="16" on="0"/>
        <pt x="443" y="-3" on="1"/>
        <pt x="444" y="-7" on="0"/>
        <pt x="444" y="-10" on="1"/>
        <pt x="444" y="-24" on="0"/>
        <pt x="417" y="-24" on="1"/>
        <pt x="404" y="-24" on="0"/>
        <pt x="312" y="-6" on="0"/>
        <pt x="247" y="-2" on="1"/>
        <pt x="205" y="-55" on="0"/>
        <pt x="170" y="-55" on="1"/>
        <pt x="158" y="-55" on="0"/>
        <pt x="144" y="-50" on="1"/>
        <pt x="74" y="-127" on="0"/>
        <pt x="12" y="-127" on="1"/>
        <pt x="-12" y="-127" on="0"/>
        <pt x="-28" y="-109" on="1"/>
        <pt x="-29" y="-107" on="0"/>
        <pt x="-29" y="-103" on="0"/>
        <pt x="-23" y="-101" on="0"/>
        <pt x="-22" y="-103" on="1"/>
        <pt x="-9" y="-120" on="0"/>
        <pt x="36" y="-120" on="0"/>
        <pt x="104" y="-83" on="0"/>
        <pt x="135" y="-46" on="1"/>
        <pt x="103" y="-32" on="0"/>
        <pt x="96" y="-15" on="1"/>
        <pt x="94" y="-7" on="0"/>
        <pt x="104" y="-7" on="0"/>
        <pt x="107" y="-11" on="0"/>
        <pt x="110" y="-16" on="1"/>
        <pt x="120" y="-31" on="0"/>
        <pt x="143" y="-36" on="1"/>
        <pt x="159" y="-17" on="0"/>
        <pt x="169" y="0" on="1"/>
        <pt x="28" y="-3" on="0"/>
        <pt x="28" y="-47" on="1"/>
        <pt x="28" y="-57" on="0"/>
        <pt x="48" y="-82" on="0"/>
        <pt x="66" y="-93" on="0"/>
        <pt x="48" y="-95" on="0"/>
        <pt x="42" y="-91" on="1"/>
        <pt x="1" y="-63" on="0"/>
        <pt x="1" y="-40" on="1"/>
        <pt x="1" y="24" on="0"/>
        <pt x="173" y="24" on="1"/>
        <pt x="180" y="24" on="0"/>
        <pt x="183" y="23" on="1"/>
        <pt x="210" y="69" on="0"/>
        <pt x="232" y="130" on="1"/>
        <pt x="224" y="129" on="0"/>
        <pt x="216" y="129" on="1"/>
        <pt x="145" y="129" on="0"/>
        <pt x="83" y="179" on="1"/>
        <pt x="3" y="242" on="0"/>
        <pt x="3" y="387" on="1"/>
        <pt x="3" y="490" on="0"/>
        <pt x="61" y="550" on="1"/>
        <pt x="106" y="596" on="0"/>
        <pt x="161" y="596" on="1"/>
        <pt x="250" y="596" on="0"/>
        <pt x="288" y="504" on="1"/>
        <pt x="326" y="504" on="1"/>
        <pt x="354" y="504" on="0"/>
        <pt x="366" y="505" on="1"/>
        <pt x="382" y="520" on="1"/>
        <pt x="390" y="526" on="0"/>
        <pt x="395" y="526" on="1"/>
        <pt x="405" y="526" on="0"/>
        <pt x="406" y="506" on="1"/>
        <pt x="410" y="506" on="0"/>
        <pt x="418" y="505" on="1"/>
        <pt x="515" y="501" on="0"/>
        <pt x="515" y="484" on="1"/>
        <pt x="515" y="478" on="0"/>
        <pt x="493" y="482" on="0"/>
        <pt x="484" y="482" on="1"/>
        <pt x="402" y="483" on="1"/>
        <pt x="377" y="312" on="0"/>
        <pt x="332" y="176" on="1"/>
        <pt x="383" y="212" on="0"/>
        <pt x="393" y="266" on="1"/>
        <pt x="394" y="271" on="0"/>
        <pt x="401" y="265" on="0"/>
        <pt x="400" y="262" on="1"/>
        <pt x="384" y="197" on="0"/>
        <pt x="327" y="161" on="1"/>
        <pt x="296" y="72" on="0"/>
      </contour>
      <contour>
        <pt x="465" y="605" on="0"/>
        <pt x="465" y="561" on="0"/>
        <pt x="444" y="561" on="1"/>
        <pt x="421" y="561" on="0"/>
        <pt x="421" y="605" on="0"/>
      </contour>
      <contour>
        <pt x="379" y="605" on="0"/>
        <pt x="379" y="561" on="0"/>
        <pt x="358" y="561" on="1"/>
        <pt x="335" y="561" on="0"/>
        <pt x="335" y="605" on="0"/>
      </contour>
    </TTGlyph>
    <TTGlyph name="Igrave" xMin="-30" yMin="-128" xMax="516" yMax="646">
      <contour>
        <pt x="265" y="502" on="1"/>
        <pt x="233" y="588" on="0"/>
        <pt x="158" y="588" on="1"/>
        <pt x="107" y="588" on="0"/>
        <pt x="19" y="480" on="0"/>
        <pt x="19" y="389" on="1"/>
        <pt x="19" y="362" on="0"/>
        <pt x="23" y="331" on="1"/>
        <pt x="38" y="227" on="0"/>
        <pt x="151" y="139" on="0"/>
        <pt x="216" y="139" on="1"/>
        <pt x="225" y="139" on="0"/>
        <pt x="235" y="140" on="1"/>
        <pt x="282" y="276" on="0"/>
        <pt x="282" y="386" on="1"/>
        <pt x="282" y="433" on="0"/>
        <pt x="272" y="480" on="1"/>
        <pt x="147" y="467" on="0"/>
        <pt x="105" y="409" on="1"/>
        <pt x="90" y="389" on="0"/>
        <pt x="90" y="347" on="0"/>
        <pt x="141" y="296" on="0"/>
        <pt x="203" y="285" on="1"/>
        <pt x="210" y="283" on="0"/>
        <pt x="200" y="274" on="0"/>
        <pt x="193" y="276" on="1"/>
        <pt x="127" y="296" on="0"/>
        <pt x="56" y="351" on="0"/>
        <pt x="56" y="406" on="0"/>
        <pt x="101" y="457" on="0"/>
        <pt x="200" y="495" on="0"/>
      </contour>
      <contour>
        <pt x="295" y="482" on="1"/>
        <pt x="306" y="443" on="0"/>
        <pt x="306" y="393" on="1"/>
        <pt x="306" y="284" on="0"/>
        <pt x="254" y="143" on="1"/>
        <pt x="274" y="147" on="0"/>
        <pt x="288" y="153" on="1"/>
        <pt x="316" y="238" on="0"/>
        <pt x="353" y="430" on="0"/>
        <pt x="354" y="482" on="1"/>
        <pt x="338" y="483" on="0"/>
        <pt x="308" y="483" on="0"/>
      </contour>
      <contour>
        <pt x="197" y="23" on="1"/>
        <pt x="207" y="23" on="0"/>
        <pt x="229" y="21" on="1"/>
        <pt x="259" y="67" on="0"/>
        <pt x="284" y="140" on="1"/>
        <pt x="271" y="136" on="0"/>
        <pt x="249" y="132" on="1"/>
        <pt x="230" y="79" on="0"/>
      </contour>
      <contour>
        <pt x="183" y="0" on="1"/>
        <pt x="182" y="0" on="1"/>
        <pt x="171" y="-18" on="0"/>
        <pt x="155" y="-37" on="1"/>
        <pt x="183" y="-37" on="0"/>
        <pt x="214" y="-1" on="1"/>
        <pt x="203" y="0" on="0"/>
      </contour>
      <contour>
        <pt x="261" y="18" on="1"/>
        <pt x="329" y="10" on="0"/>
        <pt x="410" y="-9" on="0"/>
        <pt x="433" y="-9" on="0"/>
        <pt x="433" y="-4" on="1"/>
        <pt x="433" y="4" on="0"/>
        <pt x="404" y="22" on="1"/>
        <pt x="400" y="25" on="0"/>
        <pt x="406" y="28" on="0"/>
        <pt x="409" y="27" on="1"/>
        <pt x="436" y="16" on="0"/>
        <pt x="443" y="-3" on="1"/>
        <pt x="444" y="-7" on="0"/>
        <pt x="444" y="-10" on="1"/>
        <pt x="444" y="-24" on="0"/>
        <pt x="417" y="-24" on="1"/>
        <pt x="404" y="-24" on="0"/>
        <pt x="312" y="-6" on="0"/>
        <pt x="247" y="-2" on="1"/>
        <pt x="205" y="-55" on="0"/>
        <pt x="170" y="-55" on="1"/>
        <pt x="158" y="-55" on="0"/>
        <pt x="144" y="-50" on="1"/>
        <pt x="74" y="-127" on="0"/>
        <pt x="12" y="-127" on="1"/>
        <pt x="-12" y="-127" on="0"/>
        <pt x="-28" y="-109" on="1"/>
        <pt x="-29" y="-107" on="0"/>
        <pt x="-29" y="-103" on="0"/>
        <pt x="-23" y="-101" on="0"/>
        <pt x="-22" y="-103" on="1"/>
        <pt x="-9" y="-120" on="0"/>
        <pt x="36" y="-120" on="0"/>
        <pt x="104" y="-83" on="0"/>
        <pt x="135" y="-46" on="1"/>
        <pt x="103" y="-32" on="0"/>
        <pt x="96" y="-15" on="1"/>
        <pt x="94" y="-7" on="0"/>
        <pt x="104" y="-7" on="0"/>
        <pt x="107" y="-11" on="0"/>
        <pt x="110" y="-16" on="1"/>
        <pt x="120" y="-31" on="0"/>
        <pt x="143" y="-36" on="1"/>
        <pt x="159" y="-17" on="0"/>
        <pt x="169" y="0" on="1"/>
        <pt x="28" y="-3" on="0"/>
        <pt x="28" y="-47" on="1"/>
        <pt x="28" y="-57" on="0"/>
        <pt x="48" y="-82" on="0"/>
        <pt x="66" y="-93" on="0"/>
        <pt x="48" y="-95" on="0"/>
        <pt x="42" y="-91" on="1"/>
        <pt x="1" y="-63" on="0"/>
        <pt x="1" y="-40" on="1"/>
        <pt x="1" y="24" on="0"/>
        <pt x="173" y="24" on="1"/>
        <pt x="180" y="24" on="0"/>
        <pt x="183" y="23" on="1"/>
        <pt x="210" y="69" on="0"/>
        <pt x="232" y="130" on="1"/>
        <pt x="224" y="129" on="0"/>
        <pt x="216" y="129" on="1"/>
        <pt x="145" y="129" on="0"/>
        <pt x="83" y="179" on="1"/>
        <pt x="3" y="242" on="0"/>
        <pt x="3" y="387" on="1"/>
        <pt x="3" y="490" on="0"/>
        <pt x="61" y="550" on="1"/>
        <pt x="106" y="596" on="0"/>
        <pt x="161" y="596" on="1"/>
        <pt x="250" y="596" on="0"/>
        <pt x="288" y="504" on="1"/>
        <pt x="326" y="504" on="1"/>
        <pt x="354" y="504" on="0"/>
        <pt x="366" y="505" on="1"/>
        <pt x="382" y="520" on="1"/>
        <pt x="390" y="526" on="0"/>
        <pt x="395" y="526" on="1"/>
        <pt x="405" y="526" on="0"/>
        <pt x="406" y="506" on="1"/>
        <pt x="410" y="506" on="0"/>
        <pt x="418" y="505" on="1"/>
        <pt x="515" y="501" on="0"/>
        <pt x="515" y="484" on="1"/>
        <pt x="515" y="478" on="0"/>
        <pt x="493" y="482" on="0"/>
        <pt x="484" y="482" on="1"/>
        <pt x="402" y="483" on="1"/>
        <pt x="377" y="312" on="0"/>
        <pt x="332" y="176" on="1"/>
        <pt x="383" y="212" on="0"/>
        <pt x="393" y="266" on="1"/>
        <pt x="394" y="271" on="0"/>
        <pt x="401" y="265" on="0"/>
        <pt x="400" y="262" on="1"/>
        <pt x="384" y="197" on="0"/>
        <pt x="327" y="161" on="1"/>
        <pt x="296" y="72" on="0"/>
      </contour>
      <contour>
        <pt x="336" y="616" on="1"/>
        <pt x="330" y="622" on="0"/>
        <pt x="330" y="646" on="0"/>
        <pt x="339" y="646" on="1"/>
        <pt x="344" y="646" on="0"/>
        <pt x="354" y="638" on="1"/>
        <pt x="438" y="574" on="1"/>
        <pt x="442" y="571" on="0"/>
        <pt x="442" y="567" on="1"/>
        <pt x="442" y="560" on="0"/>
        <pt x="434" y="560" on="1"/>
        <pt x="422" y="560" on="0"/>
      </contour>
    </TTGlyph>
    <TTGlyph name="Itilde" xMin="-30" yMin="-128" xMax="516" yMax="631">
      <contour>
        <pt x="265" y="502" on="1"/>
        <pt x="233" y="588" on="0"/>
        <pt x="158" y="588" on="1"/>
        <pt x="107" y="588" on="0"/>
        <pt x="19" y="480" on="0"/>
        <pt x="19" y="389" on="1"/>
        <pt x="19" y="362" on="0"/>
        <pt x="23" y="331" on="1"/>
        <pt x="38" y="227" on="0"/>
        <pt x="151" y="139" on="0"/>
        <pt x="216" y="139" on="1"/>
        <pt x="225" y="139" on="0"/>
        <pt x="235" y="140" on="1"/>
        <pt x="282" y="276" on="0"/>
        <pt x="282" y="386" on="1"/>
        <pt x="282" y="433" on="0"/>
        <pt x="272" y="480" on="1"/>
        <pt x="147" y="467" on="0"/>
        <pt x="105" y="409" on="1"/>
        <pt x="90" y="389" on="0"/>
        <pt x="90" y="347" on="0"/>
        <pt x="141" y="296" on="0"/>
        <pt x="203" y="285" on="1"/>
        <pt x="210" y="283" on="0"/>
        <pt x="200" y="274" on="0"/>
        <pt x="193" y="276" on="1"/>
        <pt x="127" y="296" on="0"/>
        <pt x="56" y="351" on="0"/>
        <pt x="56" y="406" on="0"/>
        <pt x="101" y="457" on="0"/>
        <pt x="200" y="495" on="0"/>
      </contour>
      <contour>
        <pt x="295" y="482" on="1"/>
        <pt x="306" y="443" on="0"/>
        <pt x="306" y="393" on="1"/>
        <pt x="306" y="284" on="0"/>
        <pt x="254" y="143" on="1"/>
        <pt x="274" y="147" on="0"/>
        <pt x="288" y="153" on="1"/>
        <pt x="316" y="238" on="0"/>
        <pt x="353" y="430" on="0"/>
        <pt x="354" y="482" on="1"/>
        <pt x="338" y="483" on="0"/>
        <pt x="308" y="483" on="0"/>
      </contour>
      <contour>
        <pt x="197" y="23" on="1"/>
        <pt x="207" y="23" on="0"/>
        <pt x="229" y="21" on="1"/>
        <pt x="259" y="67" on="0"/>
        <pt x="284" y="140" on="1"/>
        <pt x="271" y="136" on="0"/>
        <pt x="249" y="132" on="1"/>
        <pt x="230" y="79" on="0"/>
      </contour>
      <contour>
        <pt x="183" y="0" on="1"/>
        <pt x="182" y="0" on="1"/>
        <pt x="171" y="-18" on="0"/>
        <pt x="155" y="-37" on="1"/>
        <pt x="183" y="-37" on="0"/>
        <pt x="214" y="-1" on="1"/>
        <pt x="203" y="0" on="0"/>
      </contour>
      <contour>
        <pt x="261" y="18" on="1"/>
        <pt x="329" y="10" on="0"/>
        <pt x="410" y="-9" on="0"/>
        <pt x="433" y="-9" on="0"/>
        <pt x="433" y="-4" on="1"/>
        <pt x="433" y="4" on="0"/>
        <pt x="404" y="22" on="1"/>
        <pt x="400" y="25" on="0"/>
        <pt x="406" y="28" on="0"/>
        <pt x="409" y="27" on="1"/>
        <pt x="436" y="16" on="0"/>
        <pt x="443" y="-3" on="1"/>
        <pt x="444" y="-7" on="0"/>
        <pt x="444" y="-10" on="1"/>
        <pt x="444" y="-24" on="0"/>
        <pt x="417" y="-24" on="1"/>
        <pt x="404" y="-24" on="0"/>
        <pt x="312" y="-6" on="0"/>
        <pt x="247" y="-2" on="1"/>
        <pt x="205" y="-55" on="0"/>
        <pt x="170" y="-55" on="1"/>
        <pt x="158" y="-55" on="0"/>
        <pt x="144" y="-50" on="1"/>
        <pt x="74" y="-127" on="0"/>
        <pt x="12" y="-127" on="1"/>
        <pt x="-12" y="-127" on="0"/>
        <pt x="-28" y="-109" on="1"/>
        <pt x="-29" y="-107" on="0"/>
        <pt x="-29" y="-103" on="0"/>
        <pt x="-23" y="-101" on="0"/>
        <pt x="-22" y="-103" on="1"/>
        <pt x="-9" y="-120" on="0"/>
        <pt x="36" y="-120" on="0"/>
        <pt x="104" y="-83" on="0"/>
        <pt x="135" y="-46" on="1"/>
        <pt x="103" y="-32" on="0"/>
        <pt x="96" y="-15" on="1"/>
        <pt x="94" y="-7" on="0"/>
        <pt x="104" y="-7" on="0"/>
        <pt x="107" y="-11" on="0"/>
        <pt x="110" y="-16" on="1"/>
        <pt x="120" y="-31" on="0"/>
        <pt x="143" y="-36" on="1"/>
        <pt x="159" y="-17" on="0"/>
        <pt x="169" y="0" on="1"/>
        <pt x="28" y="-3" on="0"/>
        <pt x="28" y="-47" on="1"/>
        <pt x="28" y="-57" on="0"/>
        <pt x="48" y="-82" on="0"/>
        <pt x="66" y="-93" on="0"/>
        <pt x="48" y="-95" on="0"/>
        <pt x="42" y="-91" on="1"/>
        <pt x="1" y="-63" on="0"/>
        <pt x="1" y="-40" on="1"/>
        <pt x="1" y="24" on="0"/>
        <pt x="173" y="24" on="1"/>
        <pt x="180" y="24" on="0"/>
        <pt x="183" y="23" on="1"/>
        <pt x="210" y="69" on="0"/>
        <pt x="232" y="130" on="1"/>
        <pt x="224" y="129" on="0"/>
        <pt x="216" y="129" on="1"/>
        <pt x="145" y="129" on="0"/>
        <pt x="83" y="179" on="1"/>
        <pt x="3" y="242" on="0"/>
        <pt x="3" y="387" on="1"/>
        <pt x="3" y="490" on="0"/>
        <pt x="61" y="550" on="1"/>
        <pt x="106" y="596" on="0"/>
        <pt x="161" y="596" on="1"/>
        <pt x="250" y="596" on="0"/>
        <pt x="288" y="504" on="1"/>
        <pt x="326" y="504" on="1"/>
        <pt x="354" y="504" on="0"/>
        <pt x="366" y="505" on="1"/>
        <pt x="382" y="520" on="1"/>
        <pt x="390" y="526" on="0"/>
        <pt x="395" y="526" on="1"/>
        <pt x="405" y="526" on="0"/>
        <pt x="406" y="506" on="1"/>
        <pt x="410" y="506" on="0"/>
        <pt x="418" y="505" on="1"/>
        <pt x="515" y="501" on="0"/>
        <pt x="515" y="484" on="1"/>
        <pt x="515" y="478" on="0"/>
        <pt x="493" y="482" on="0"/>
        <pt x="484" y="482" on="1"/>
        <pt x="402" y="483" on="1"/>
        <pt x="377" y="312" on="0"/>
        <pt x="332" y="176" on="1"/>
        <pt x="383" y="212" on="0"/>
        <pt x="393" y="266" on="1"/>
        <pt x="394" y="271" on="0"/>
        <pt x="401" y="265" on="0"/>
        <pt x="400" y="262" on="1"/>
        <pt x="384" y="197" on="0"/>
        <pt x="327" y="161" on="1"/>
        <pt x="296" y="72" on="0"/>
      </contour>
      <contour>
        <pt x="426" y="583" on="1"/>
        <pt x="412" y="583" on="0"/>
        <pt x="388" y="594" on="1"/>
        <pt x="364" y="605" on="0"/>
        <pt x="334" y="605" on="0"/>
        <pt x="325" y="586" on="1"/>
        <pt x="323" y="584" on="0"/>
        <pt x="312" y="586" on="0"/>
        <pt x="312" y="587" on="1"/>
        <pt x="335" y="630" on="0"/>
        <pt x="363" y="630" on="1"/>
        <pt x="378" y="630" on="0"/>
        <pt x="402" y="619" on="1"/>
        <pt x="429" y="609" on="0"/>
        <pt x="458" y="609" on="0"/>
        <pt x="466" y="629" on="1"/>
        <pt x="467" y="631" on="0"/>
        <pt x="478" y="630" on="0"/>
        <pt x="478" y="629" on="1"/>
        <pt x="478" y="583" on="0"/>
      </contour>
    </TTGlyph>
    <TTGlyph name="J" xMin="-136" yMin="-293" xMax="570" yMax="525">
      <contour>
        <pt x="461" y="506" on="1"/>
        <pt x="569" y="501" on="0"/>
        <pt x="569" y="484" on="1"/>
        <pt x="569" y="478" on="0"/>
        <pt x="547" y="482" on="0"/>
        <pt x="538" y="482" on="1"/>
        <pt x="457" y="483" on="1"/>
        <pt x="439" y="338" on="0"/>
        <pt x="378" y="168" on="1"/>
        <pt x="422" y="171" on="1"/>
        <pt x="443" y="173" on="0"/>
        <pt x="445" y="169" on="1"/>
        <pt x="449" y="161" on="0"/>
        <pt x="428" y="160" on="1"/>
        <pt x="401" y="158" on="0"/>
        <pt x="374" y="154" on="1"/>
        <pt x="264" y="-151" on="0"/>
        <pt x="130" y="-234" on="1"/>
        <pt x="38" y="-292" on="0"/>
        <pt x="-37" y="-292" on="1"/>
        <pt x="-97" y="-292" on="0"/>
        <pt x="-122" y="-247" on="1"/>
        <pt x="-136" y="-224" on="0"/>
        <pt x="-136" y="-186" on="0"/>
        <pt x="-135" y="-178" on="1"/>
        <pt x="-131" y="-139" on="0"/>
        <pt x="-74" y="-41" on="0"/>
        <pt x="-23" y="4" on="1"/>
        <pt x="97" y="112" on="0"/>
        <pt x="281" y="152" on="1"/>
        <pt x="294" y="210" on="0"/>
        <pt x="294" y="260" on="1"/>
        <pt x="294" y="354" on="0"/>
        <pt x="248" y="415" on="1"/>
        <pt x="233" y="433" on="0"/>
        <pt x="221" y="444" on="1"/>
        <pt x="136" y="405" on="0"/>
        <pt x="136" y="341" on="1"/>
        <pt x="136" y="325" on="0"/>
        <pt x="143" y="311" on="1"/>
        <pt x="158" y="279" on="0"/>
        <pt x="229" y="231" on="0"/>
        <pt x="272" y="228" on="1"/>
        <pt x="280" y="227" on="0"/>
        <pt x="269" y="215" on="0"/>
        <pt x="261" y="216" on="1"/>
        <pt x="193" y="229" on="0"/>
        <pt x="152" y="258" on="1"/>
        <pt x="102" y="294" on="0"/>
        <pt x="102" y="339" on="1"/>
        <pt x="102" y="366" on="0"/>
        <pt x="144" y="431" on="0"/>
        <pt x="199" y="459" on="1"/>
        <pt x="173" y="473" on="0"/>
        <pt x="114" y="473" on="0"/>
        <pt x="44" y="426" on="0"/>
        <pt x="30" y="378" on="1"/>
        <pt x="21" y="348" on="0"/>
        <pt x="21" y="325" on="1"/>
        <pt x="21" y="251" on="0"/>
        <pt x="66" y="202" on="1"/>
        <pt x="99" y="167" on="0"/>
        <pt x="148" y="165" on="1"/>
        <pt x="163" y="164" on="0"/>
        <pt x="161" y="158" on="0"/>
        <pt x="147" y="159" on="1"/>
        <pt x="76" y="162" on="0"/>
        <pt x="37" y="220" on="1"/>
        <pt x="7" y="264" on="0"/>
        <pt x="7" y="317" on="1"/>
        <pt x="7" y="410" on="0"/>
        <pt x="78" y="458" on="1"/>
        <pt x="116" y="483" on="0"/>
        <pt x="183" y="483" on="0"/>
        <pt x="213" y="466" on="1"/>
        <pt x="234" y="475" on="0"/>
        <pt x="307" y="497" on="0"/>
        <pt x="401" y="503" on="1"/>
        <pt x="421" y="505" on="1"/>
        <pt x="428" y="511" on="0"/>
        <pt x="432" y="515" on="1"/>
        <pt x="444" y="525" on="0"/>
        <pt x="460" y="525" on="0"/>
        <pt x="460" y="515" on="1"/>
        <pt x="460" y="508" on="1"/>
        <pt x="460" y="506" on="0"/>
      </contour>
      <contour>
        <pt x="-54" y="-243" on="1"/>
        <pt x="-80" y="-243" on="0"/>
        <pt x="-83" y="-237" on="0"/>
        <pt x="-80" y="-233" on="0"/>
        <pt x="-65" y="-235" on="0"/>
        <pt x="-53" y="-235" on="1"/>
        <pt x="8" y="-235" on="0"/>
        <pt x="144" y="-138" on="0"/>
        <pt x="252" y="36" on="0"/>
        <pt x="277" y="135" on="1"/>
        <pt x="83" y="85" on="0"/>
        <pt x="-21" y="-29" on="1"/>
        <pt x="-66" y="-77" on="0"/>
        <pt x="-90" y="-122" on="1"/>
        <pt x="-116" y="-169" on="0"/>
        <pt x="-116" y="-231" on="0"/>
        <pt x="-100" y="-250" on="1"/>
        <pt x="-80" y="-274" on="0"/>
        <pt x="-47" y="-274" on="1"/>
        <pt x="27" y="-274" on="0"/>
        <pt x="117" y="-212" on="1"/>
        <pt x="233" y="-131" on="0"/>
        <pt x="331" y="147" on="1"/>
        <pt x="314" y="145" on="0"/>
        <pt x="290" y="139" on="1"/>
        <pt x="264" y="37" on="0"/>
        <pt x="152" y="-143" on="0"/>
        <pt x="9" y="-243" on="0"/>
      </contour>
      <contour>
        <pt x="308" y="266" on="1"/>
        <pt x="308" y="215" on="0"/>
        <pt x="294" y="155" on="1"/>
        <pt x="336" y="162" on="1"/>
        <pt x="398" y="351" on="0"/>
        <pt x="410" y="481" on="1"/>
        <pt x="316" y="474" on="0"/>
        <pt x="265" y="461" on="0"/>
        <pt x="236" y="450" on="1"/>
        <pt x="253" y="433" on="0"/>
        <pt x="261" y="422" on="1"/>
        <pt x="308" y="360" on="0"/>
      </contour>
    </TTGlyph>
    <TTGlyph name="Jcircumflex" xMin="-136" yMin="-293" xMax="570" yMax="634">
      <contour>
        <pt x="461" y="506" on="1"/>
        <pt x="569" y="501" on="0"/>
        <pt x="569" y="484" on="1"/>
        <pt x="569" y="478" on="0"/>
        <pt x="547" y="482" on="0"/>
        <pt x="538" y="482" on="1"/>
        <pt x="457" y="483" on="1"/>
        <pt x="439" y="338" on="0"/>
        <pt x="378" y="168" on="1"/>
        <pt x="422" y="171" on="1"/>
        <pt x="443" y="173" on="0"/>
        <pt x="445" y="169" on="1"/>
        <pt x="449" y="161" on="0"/>
        <pt x="428" y="160" on="1"/>
        <pt x="401" y="158" on="0"/>
        <pt x="374" y="154" on="1"/>
        <pt x="264" y="-151" on="0"/>
        <pt x="130" y="-234" on="1"/>
        <pt x="38" y="-292" on="0"/>
        <pt x="-37" y="-292" on="1"/>
        <pt x="-97" y="-292" on="0"/>
        <pt x="-122" y="-247" on="1"/>
        <pt x="-136" y="-224" on="0"/>
        <pt x="-136" y="-186" on="0"/>
        <pt x="-135" y="-178" on="1"/>
        <pt x="-131" y="-139" on="0"/>
        <pt x="-74" y="-41" on="0"/>
        <pt x="-23" y="4" on="1"/>
        <pt x="97" y="112" on="0"/>
        <pt x="281" y="152" on="1"/>
        <pt x="294" y="210" on="0"/>
        <pt x="294" y="260" on="1"/>
        <pt x="294" y="354" on="0"/>
        <pt x="248" y="415" on="1"/>
        <pt x="233" y="433" on="0"/>
        <pt x="221" y="444" on="1"/>
        <pt x="136" y="405" on="0"/>
        <pt x="136" y="341" on="1"/>
        <pt x="136" y="325" on="0"/>
        <pt x="143" y="311" on="1"/>
        <pt x="158" y="279" on="0"/>
        <pt x="229" y="231" on="0"/>
        <pt x="272" y="228" on="1"/>
        <pt x="280" y="227" on="0"/>
        <pt x="269" y="215" on="0"/>
        <pt x="261" y="216" on="1"/>
        <pt x="193" y="229" on="0"/>
        <pt x="152" y="258" on="1"/>
        <pt x="102" y="294" on="0"/>
        <pt x="102" y="339" on="1"/>
        <pt x="102" y="366" on="0"/>
        <pt x="144" y="431" on="0"/>
        <pt x="199" y="459" on="1"/>
        <pt x="173" y="473" on="0"/>
        <pt x="114" y="473" on="0"/>
        <pt x="44" y="426" on="0"/>
        <pt x="30" y="378" on="1"/>
        <pt x="21" y="348" on="0"/>
        <pt x="21" y="325" on="1"/>
        <pt x="21" y="251" on="0"/>
        <pt x="66" y="202" on="1"/>
        <pt x="99" y="167" on="0"/>
        <pt x="148" y="165" on="1"/>
        <pt x="163" y="164" on="0"/>
        <pt x="161" y="158" on="0"/>
        <pt x="147" y="159" on="1"/>
        <pt x="76" y="162" on="0"/>
        <pt x="37" y="220" on="1"/>
        <pt x="7" y="264" on="0"/>
        <pt x="7" y="317" on="1"/>
        <pt x="7" y="410" on="0"/>
        <pt x="78" y="458" on="1"/>
        <pt x="116" y="483" on="0"/>
        <pt x="183" y="483" on="0"/>
        <pt x="213" y="466" on="1"/>
        <pt x="234" y="475" on="0"/>
        <pt x="307" y="497" on="0"/>
        <pt x="401" y="503" on="1"/>
        <pt x="421" y="505" on="1"/>
        <pt x="428" y="511" on="0"/>
        <pt x="432" y="515" on="1"/>
        <pt x="444" y="525" on="0"/>
        <pt x="460" y="525" on="0"/>
        <pt x="460" y="515" on="1"/>
        <pt x="460" y="508" on="1"/>
        <pt x="460" y="506" on="0"/>
      </contour>
      <contour>
        <pt x="-54" y="-243" on="1"/>
        <pt x="-80" y="-243" on="0"/>
        <pt x="-83" y="-237" on="0"/>
        <pt x="-80" y="-233" on="0"/>
        <pt x="-65" y="-235" on="0"/>
        <pt x="-53" y="-235" on="1"/>
        <pt x="8" y="-235" on="0"/>
        <pt x="144" y="-138" on="0"/>
        <pt x="252" y="36" on="0"/>
        <pt x="277" y="135" on="1"/>
        <pt x="83" y="85" on="0"/>
        <pt x="-21" y="-29" on="1"/>
        <pt x="-66" y="-77" on="0"/>
        <pt x="-90" y="-122" on="1"/>
        <pt x="-116" y="-169" on="0"/>
        <pt x="-116" y="-231" on="0"/>
        <pt x="-100" y="-250" on="1"/>
        <pt x="-80" y="-274" on="0"/>
        <pt x="-47" y="-274" on="1"/>
        <pt x="27" y="-274" on="0"/>
        <pt x="117" y="-212" on="1"/>
        <pt x="233" y="-131" on="0"/>
        <pt x="331" y="147" on="1"/>
        <pt x="314" y="145" on="0"/>
        <pt x="290" y="139" on="1"/>
        <pt x="264" y="37" on="0"/>
        <pt x="152" y="-143" on="0"/>
        <pt x="9" y="-243" on="0"/>
      </contour>
      <contour>
        <pt x="308" y="266" on="1"/>
        <pt x="308" y="215" on="0"/>
        <pt x="294" y="155" on="1"/>
        <pt x="336" y="162" on="1"/>
        <pt x="398" y="351" on="0"/>
        <pt x="410" y="481" on="1"/>
        <pt x="316" y="474" on="0"/>
        <pt x="265" y="461" on="0"/>
        <pt x="236" y="450" on="1"/>
        <pt x="253" y="433" on="0"/>
        <pt x="261" y="422" on="1"/>
        <pt x="308" y="360" on="0"/>
      </contour>
      <contour>
        <pt x="490" y="634" on="0"/>
        <pt x="506" y="634" on="0"/>
        <pt x="506" y="632" on="1"/>
        <pt x="536" y="546" on="1"/>
        <pt x="536" y="542" on="0"/>
        <pt x="534" y="541" on="1"/>
        <pt x="522" y="541" on="0"/>
        <pt x="519" y="546" on="1"/>
        <pt x="482" y="604" on="1"/>
        <pt x="374" y="546" on="1"/>
        <pt x="370" y="542" on="0"/>
        <pt x="360" y="542" on="1"/>
        <pt x="352" y="540" on="0"/>
        <pt x="352" y="544" on="1"/>
        <pt x="353" y="546" on="1"/>
        <pt x="475" y="632" on="1"/>
      </contour>
    </TTGlyph>
    <TTGlyph name="K" xMin="-1" yMin="-56" xMax="752" yMax="558">
      <contour>
        <pt x="287" y="554" on="1"/>
        <pt x="287" y="557" on="0"/>
        <pt x="295" y="557" on="0"/>
        <pt x="295" y="535" on="0"/>
        <pt x="292" y="505" on="1"/>
        <pt x="336" y="505" on="1"/>
        <pt x="352" y="520" on="1"/>
        <pt x="360" y="526" on="0"/>
        <pt x="365" y="526" on="1"/>
        <pt x="375" y="526" on="0"/>
        <pt x="376" y="506" on="1"/>
        <pt x="394" y="505" on="0"/>
        <pt x="393" y="495" on="1"/>
        <pt x="393" y="483" on="0"/>
        <pt x="371" y="483" on="1"/>
        <pt x="359" y="401" on="0"/>
        <pt x="343" y="331" on="1"/>
        <pt x="376" y="329" on="0"/>
        <pt x="397" y="324" on="1"/>
        <pt x="442" y="414" on="0"/>
        <pt x="532" y="520" on="0"/>
        <pt x="602" y="537" on="1"/>
        <pt x="617" y="540" on="1"/>
        <pt x="626" y="541" on="0"/>
        <pt x="635" y="541" on="1"/>
        <pt x="676" y="541" on="0"/>
        <pt x="746" y="480" on="0"/>
        <pt x="752" y="427" on="1"/>
        <pt x="752" y="412" on="0"/>
        <pt x="751" y="412" on="1"/>
        <pt x="747" y="412" on="0"/>
        <pt x="747" y="424" on="1"/>
        <pt x="741" y="473" on="0"/>
        <pt x="670" y="515" on="0"/>
        <pt x="632" y="515" on="1"/>
        <pt x="562" y="515" on="0"/>
        <pt x="457" y="403" on="0"/>
        <pt x="410" y="321" on="1"/>
        <pt x="478" y="302" on="0"/>
        <pt x="510" y="260" on="1"/>
        <pt x="533" y="229" on="0"/>
        <pt x="533" y="197" on="1"/>
        <pt x="533" y="184" on="0"/>
        <pt x="529" y="171" on="1"/>
        <pt x="513" y="119" on="0"/>
        <pt x="453" y="90" on="1"/>
        <pt x="506" y="22" on="0"/>
        <pt x="538" y="0" on="1"/>
        <pt x="575" y="-24" on="0"/>
        <pt x="598" y="-24" on="1"/>
        <pt x="636" y="-24" on="0"/>
        <pt x="636" y="70" on="0"/>
        <pt x="608" y="111" on="1"/>
        <pt x="606" y="113" on="0"/>
        <pt x="606" y="117" on="0"/>
        <pt x="610" y="117" on="0"/>
        <pt x="615" y="112" on="1"/>
        <pt x="648" y="74" on="0"/>
        <pt x="648" y="-3" on="0"/>
        <pt x="609" y="-47" on="0"/>
        <pt x="577" y="-47" on="1"/>
        <pt x="531" y="-47" on="0"/>
        <pt x="480" y="-2" on="1"/>
        <pt x="443" y="29" on="0"/>
        <pt x="413" y="77" on="1"/>
        <pt x="398" y="74" on="0"/>
        <pt x="384" y="74" on="1"/>
        <pt x="345" y="74" on="0"/>
        <pt x="313" y="95" on="1"/>
        <pt x="310" y="97" on="0"/>
        <pt x="314" y="104" on="0"/>
        <pt x="318" y="102" on="1"/>
        <pt x="349" y="82" on="0"/>
        <pt x="382" y="82" on="1"/>
        <pt x="395" y="82" on="0"/>
        <pt x="408" y="85" on="1"/>
        <pt x="390" y="115" on="0"/>
        <pt x="330" y="232" on="0"/>
        <pt x="322" y="247" on="1"/>
        <pt x="255" y="0" on="0"/>
        <pt x="166" y="-48" on="1"/>
        <pt x="152" y="-55" on="0"/>
        <pt x="113" y="-55" on="0"/>
        <pt x="65" y="-20" on="0"/>
        <pt x="65" y="-12" on="1"/>
        <pt x="65" y="-7" on="0"/>
        <pt x="73" y="-7" on="0"/>
        <pt x="76" y="-11" on="0"/>
        <pt x="82" y="-20" on="0"/>
        <pt x="87" y="-23" on="1"/>
        <pt x="105" y="-36" on="0"/>
        <pt x="130" y="-36" on="0"/>
        <pt x="136" y="-35" on="1"/>
        <pt x="187" y="-23" on="0"/>
        <pt x="275" y="188" on="0"/>
        <pt x="302" y="323" on="1"/>
        <pt x="275" y="321" on="0"/>
        <pt x="262" y="318" on="1"/>
        <pt x="235" y="199" on="0"/>
        <pt x="160" y="25" on="0"/>
        <pt x="97" y="7" on="1"/>
        <pt x="47" y="-7" on="0"/>
        <pt x="18" y="32" on="1"/>
        <pt x="-1" y="56" on="0"/>
        <pt x="-1" y="87" on="1"/>
        <pt x="-1" y="138" on="0"/>
        <pt x="69" y="241" on="0"/>
        <pt x="143" y="282" on="1"/>
        <pt x="25" y="322" on="0"/>
        <pt x="25" y="384" on="1"/>
        <pt x="25" y="431" on="0"/>
        <pt x="172" y="502" on="0"/>
        <pt x="284" y="505" on="1"/>
        <pt x="287" y="535" on="0"/>
      </contour>
      <contour>
        <pt x="18" y="98" on="1"/>
        <pt x="18" y="77" on="0"/>
        <pt x="26" y="58" on="1"/>
        <pt x="44" y="20" on="0"/>
        <pt x="83" y="20" on="1"/>
        <pt x="149" y="20" on="0"/>
        <pt x="192" y="119" on="1"/>
        <pt x="229" y="206" on="0"/>
        <pt x="253" y="316" on="1"/>
        <pt x="211" y="308" on="0"/>
        <pt x="169" y="286" on="1"/>
        <pt x="173" y="285" on="1"/>
        <pt x="181" y="283" on="0"/>
        <pt x="174" y="279" on="1"/>
        <pt x="168" y="274" on="0"/>
        <pt x="155" y="278" on="1"/>
        <pt x="85" y="239" on="0"/>
        <pt x="18" y="139" on="0"/>
      </contour>
      <contour>
        <pt x="82" y="418" on="1"/>
        <pt x="60" y="395" on="0"/>
        <pt x="60" y="353" on="0"/>
        <pt x="74" y="335" on="1"/>
        <pt x="97" y="303" on="0"/>
        <pt x="155" y="289" on="1"/>
        <pt x="205" y="314" on="0"/>
        <pt x="255" y="325" on="1"/>
        <pt x="272" y="400" on="0"/>
        <pt x="281" y="483" on="1"/>
        <pt x="137" y="479" on="0"/>
      </contour>
      <contour>
        <pt x="355" y="222" on="1"/>
        <pt x="447" y="98" on="1"/>
        <pt x="500" y="126" on="0"/>
        <pt x="514" y="173" on="1"/>
        <pt x="518" y="185" on="0"/>
        <pt x="518" y="227" on="0"/>
        <pt x="498" y="256" on="1"/>
        <pt x="469" y="296" on="0"/>
        <pt x="405" y="314" on="1"/>
      </contour>
      <contour>
        <pt x="303" y="331" on="1"/>
        <pt x="323" y="428" on="0"/>
        <pt x="323" y="482" on="1"/>
        <pt x="312" y="483" on="0"/>
        <pt x="289" y="483" on="1"/>
        <pt x="280" y="403" on="0"/>
        <pt x="264" y="327" on="1"/>
        <pt x="288" y="331" on="0"/>
      </contour>
      <contour>
        <pt x="341" y="324" on="1"/>
        <pt x="337" y="304" on="0"/>
        <pt x="327" y="264" on="1"/>
        <pt x="350" y="228" on="1"/>
        <pt x="394" y="317" on="1"/>
        <pt x="363" y="323" on="0"/>
      </contour>
    </TTGlyph>
</ttFont>
